<svg width="97" height="98" viewBox="0 0 97 98" fill="none" xmlns="http://www.w3.org/2000/svg">
<g clip-path="url(#clip0)">
<path d="M17.7116 0C7.90016 0 0 7.98161 0 17.8942V80.1059C0 90.0185 7.90016 98.0001 17.7116 98.0001H51.0857V59.6882H41.0584V45.8947H51.0857V34.1102C51.0857 24.8516 57.0104 16.3507 70.6585 16.3507C76.1844 16.3507 80.2706 16.8867 80.2706 16.8867L79.9492 29.7676C79.9492 29.7676 75.7818 29.7278 71.2344 29.7278C66.3127 29.7278 65.5235 32.0189 65.5235 35.8222V45.8948H80.3403L79.6946 59.6883H65.5235V98.0002H79.2884C89.0998 98.0002 97 90.0186 97 80.106V17.8943C97 7.98171 89.0998 9.8e-05 79.2884 9.8e-05H17.7115L17.7116 0Z" fill="black"/>
</g>
<defs>
<clipPath id="clip0">
<rect width="97" height="98" fill="white"/>
</clipPath>
</defs>
</svg>
