<svg width="82" height="83" viewBox="0 0 82 83" fill="none" xmlns="http://www.w3.org/2000/svg">
<path d="M61.4474 0.0908813H20.5527C9.28593 0.0908813 0.119476 9.33791 0.119476 20.7038V62.2959C0.119476 73.661 9.28593 82.909 20.5527 82.909H61.4474C72.7142 82.909 81.8804 73.6609 81.8804 62.2959V20.7037C81.8804 9.33791 72.7142 0.0909643 61.4474 0.0909643V0.0908813ZM74.3128 62.2957C74.3128 69.4515 68.5417 75.2743 61.4475 75.2743H20.5528C13.4587 75.2743 7.68742 69.4515 7.68742 62.2957V35.4329H23.8534C22.6732 37.9597 22.0094 40.7785 22.0094 43.751C22.0094 54.5479 30.7161 63.3305 41.4184 63.3305C52.1205 63.3305 60.8274 54.5479 60.8274 43.751C60.8274 40.7785 60.1637 37.9596 58.9833 35.4329H74.3127V62.2957H74.3128ZM33.3613 43.7512C33.3613 39.27 36.9756 35.6236 41.4185 35.6236C45.8616 35.6236 49.4757 39.2701 49.4757 43.7512C49.4757 48.2333 45.8616 51.8791 41.4185 51.8791C36.9757 51.879 33.3613 48.2333 33.3613 43.7512V43.7512ZM74.3128 27.7987H52.6506C49.4771 25.5188 45.6023 24.172 41.4185 24.172C37.2347 24.172 33.3595 25.5188 30.1867 27.7987H7.68742V20.7038C7.68742 13.5473 13.4587 7.7253 20.5528 7.7253H61.4475C68.5417 7.7253 74.3128 13.5473 74.3128 20.7038V27.7987H74.3129H74.3128ZM66.1123 12.3555H59.0972C57.8482 12.3555 56.8269 13.3862 56.8269 14.6458V21.7228C56.8269 22.9824 57.8481 24.0131 59.0972 24.0131H66.1123C67.3613 24.0131 68.3827 22.9824 68.3827 21.7228V14.6458C68.3827 13.3862 67.3614 12.3555 66.1123 12.3555Z" fill="black"/>
</svg>
