<svg width="810" height="390" viewBox="0 0 810 390" fill="none" xmlns="http://www.w3.org/2000/svg">
<path d="M116.114 21.032C116.114 25.896 114.514 29.528 111.314 31.928C108.114 34.296 103.842 35.48 98.498 35.48C94.658 35.48 91.378 34.872 88.658 33.656C85.97 32.408 83.938 30.84 82.562 28.952C81.218 27.064 80.546 25.16 80.546 23.24C80.546 22.952 80.642 22.712 80.834 22.52C81.058 22.296 81.314 22.184 81.602 22.184H92.45C92.738 22.184 92.978 22.28 93.17 22.472C93.394 22.664 93.554 22.92 93.65 23.24C94.258 25.16 95.794 26.12 98.258 26.12C99.762 26.12 100.946 25.768 101.81 25.064C102.706 24.36 103.154 23.352 103.154 22.04V11.24H85.634C85.282 11.24 84.978 11.112 84.722 10.856C84.466 10.6 84.338 10.296 84.338 9.944V2.696C84.338 2.344 84.466 2.04 84.722 1.784C84.978 1.528 85.282 1.4 85.634 1.4H114.818C115.17 1.4 115.474 1.528 115.73 1.784C115.986 2.04 116.114 2.344 116.114 2.696V21.032ZM140.431 35.48C135.055 35.48 130.783 34.312 127.615 31.976C124.479 29.64 122.911 25.992 122.911 21.032V2.696C122.911 2.344 123.039 2.04 123.295 1.784C123.551 1.528 123.855 1.4 124.207 1.4H134.239C134.591 1.4 134.895 1.528 135.151 1.784C135.407 2.04 135.535 2.344 135.535 2.696V21.8C135.535 23.112 135.967 24.12 136.831 24.824C137.727 25.528 138.927 25.88 140.431 25.88C141.935 25.88 143.119 25.528 143.983 24.824C144.879 24.12 145.327 23.112 145.327 21.8V2.696C145.327 2.344 145.455 2.04 145.711 1.784C145.967 1.528 146.271 1.4 146.623 1.4H156.655C157.007 1.4 157.311 1.528 157.567 1.784C157.823 2.04 157.951 2.344 157.951 2.696V21.032C157.951 25.992 156.367 29.64 153.199 31.976C150.063 34.312 145.807 35.48 140.431 35.48ZM183.853 13.592C187.373 13.976 190.189 14.6 192.301 15.464C194.445 16.328 195.997 17.464 196.957 18.872C197.917 20.28 198.397 22.04 198.397 24.152C198.397 26.456 197.645 28.472 196.141 30.2C194.669 31.896 192.621 33.208 189.997 34.136C187.373 35.032 184.381 35.48 181.021 35.48C177.277 35.48 174.109 35.016 171.517 34.088C168.925 33.16 166.989 31.928 165.709 30.392C164.429 28.824 163.789 27.112 163.789 25.256C163.789 24.936 163.885 24.68 164.077 24.488C164.301 24.296 164.573 24.2 164.893 24.2H174.733C175.405 24.2 175.949 24.408 176.365 24.824C176.909 25.336 177.517 25.688 178.189 25.88C178.861 26.04 179.805 26.12 181.021 26.12C184.061 26.12 185.581 25.656 185.581 24.728C185.581 24.344 185.373 24.024 184.957 23.768C184.573 23.48 183.869 23.24 182.845 23.048C181.853 22.824 180.381 22.6 178.429 22.376C174.045 21.864 170.685 20.776 168.349 19.112C166.013 17.416 164.845 15.032 164.845 11.96C164.845 9.784 165.501 7.864 166.812 6.2C168.125 4.536 169.981 3.24 172.381 2.312C174.813 1.384 177.629 0.919998 180.829 0.919998C184.157 0.919998 187.069 1.448 189.565 2.504C192.061 3.528 193.965 4.808 195.277 6.344C196.589 7.88 197.245 9.384 197.245 10.856C197.245 11.176 197.133 11.432 196.909 11.624C196.717 11.816 196.445 11.912 196.093 11.912H185.773C185.229 11.912 184.733 11.72 184.285 11.336C183.933 11.016 183.517 10.76 183.037 10.568C182.557 10.376 181.821 10.28 180.829 10.28C178.685 10.28 177.613 10.728 177.613 11.624C177.613 12.104 178.029 12.488 178.861 12.776C179.693 13.032 181.357 13.304 183.853 13.592ZM238.554 1.4C238.906 1.4 239.21 1.528 239.466 1.784C239.722 2.04 239.85 2.344 239.85 2.696V10.424C239.85 10.776 239.722 11.08 239.466 11.336C239.21 11.592 238.906 11.72 238.554 11.72H228.234V33.704C228.234 34.056 228.106 34.36 227.85 34.616C227.594 34.872 227.29 35 226.938 35H217.05C216.698 35 216.394 34.872 216.138 34.616C215.882 34.36 215.754 34.056 215.754 33.704V11.72H205.434C205.082 11.72 204.778 11.592 204.522 11.336C204.266 11.08 204.138 10.776 204.138 10.424V2.696C204.138 2.344 204.266 2.04 204.522 1.784C204.778 1.528 205.082 1.4 205.434 1.4H238.554ZM296.644 33.368C296.228 34.456 295.508 35 294.484 35H285.412C285.124 35 284.868 34.904 284.644 34.712C284.452 34.488 284.356 34.232 284.356 33.944L284.404 33.656L294.868 2.984C294.996 2.568 295.236 2.2 295.588 1.88C295.94 1.56 296.42 1.4 297.028 1.4H310.372C310.98 1.4 311.46 1.56 311.812 1.88C312.164 2.2 312.404 2.568 312.532 2.984L322.996 33.656L323.044 33.944C323.044 34.232 322.932 34.488 322.708 34.712C322.516 34.904 322.276 35 321.988 35H312.916C311.892 35 311.172 34.456 310.756 33.368L309.556 30.008H297.844L296.644 33.368ZM303.7 10.664L300.292 20.648H307.108L303.7 10.664ZM380.703 22.04C380.703 23.352 381.135 24.36 381.999 25.064C382.895 25.768 384.095 26.12 385.599 26.12C386.943 26.12 387.935 25.896 388.575 25.448C389.215 25 389.759 24.328 390.207 23.432C390.623 22.6 391.183 22.184 391.887 22.184H402.255C402.543 22.184 402.783 22.296 402.975 22.52C403.199 22.712 403.311 22.952 403.311 23.24C403.311 25.192 402.655 27.112 401.343 29C400.031 30.856 398.031 32.408 395.343 33.656C392.687 34.872 389.439 35.48 385.599 35.48C382.175 35.48 379.119 34.968 376.431 33.944C373.775 32.888 371.663 31.288 370.095 29.144C368.527 26.968 367.743 24.264 367.743 21.032V15.368C367.743 12.136 368.527 9.448 370.095 7.304C371.663 5.128 373.775 3.528 376.431 2.504C379.119 1.448 382.175 0.919998 385.599 0.919998C389.439 0.919998 392.687 1.544 395.343 2.792C398.031 4.008 400.031 5.56 401.343 7.448C402.655 9.304 403.311 11.208 403.311 13.16C403.311 13.448 403.199 13.704 402.975 13.928C402.783 14.12 402.543 14.216 402.255 14.216H391.887C391.183 14.216 390.623 13.8 390.207 12.968C389.759 12.072 389.215 11.4 388.575 10.952C387.935 10.504 386.943 10.28 385.599 10.28C384.095 10.28 382.895 10.632 381.999 11.336C381.135 12.04 380.703 13.048 380.703 14.36V22.04ZM443.756 21.128C443.756 26.024 442.124 29.64 438.86 31.976C435.628 34.312 431.308 35.48 425.9 35.48C420.492 35.48 416.156 34.312 412.892 31.976C409.66 29.64 408.044 25.992 408.044 21.032V15.368C408.044 12.104 408.812 9.4 410.348 7.256C411.916 5.08 414.044 3.48 416.732 2.456C419.42 1.432 422.476 0.919998 425.9 0.919998C429.324 0.919998 432.364 1.432 435.02 2.456C437.708 3.48 439.836 5.064 441.404 7.208C442.972 9.352 443.756 12.04 443.756 15.272V21.128ZM421.004 22.04C421.004 23.352 421.436 24.36 422.3 25.064C423.196 25.768 424.396 26.12 425.9 26.12C427.404 26.12 428.588 25.768 429.452 25.064C430.348 24.328 430.796 23.304 430.796 21.992V14.408C430.796 13.096 430.348 12.088 429.452 11.384C428.588 10.648 427.404 10.28 425.9 10.28C424.396 10.28 423.196 10.632 422.3 11.336C421.436 12.04 421.004 13.048 421.004 14.36V22.04ZM466.681 35.48C461.305 35.48 457.033 34.312 453.865 31.976C450.729 29.64 449.161 25.992 449.161 21.032V2.696C449.161 2.344 449.289 2.04 449.545 1.784C449.801 1.528 450.105 1.4 450.457 1.4H460.489C460.841 1.4 461.145 1.528 461.401 1.784C461.657 2.04 461.785 2.344 461.785 2.696V21.8C461.785 23.112 462.217 24.12 463.081 24.824C463.977 25.528 465.177 25.88 466.681 25.88C468.185 25.88 469.369 25.528 470.233 24.824C471.129 24.12 471.577 23.112 471.577 21.8V2.696C471.577 2.344 471.705 2.04 471.961 1.784C472.217 1.528 472.521 1.4 472.873 1.4H482.905C483.257 1.4 483.561 1.528 483.817 1.784C484.073 2.04 484.201 2.344 484.201 2.696V21.032C484.201 25.992 482.617 29.64 479.449 31.976C476.313 34.312 472.057 35.48 466.681 35.48ZM512.359 1.4C515.367 1.4 517.991 1.912 520.231 2.936C522.471 3.96 524.183 5.352 525.367 7.112C526.551 8.872 527.143 10.84 527.143 13.016C527.143 16.6 526.023 19.416 523.783 21.464C521.543 23.48 517.735 24.488 512.359 24.488H506.023V33.704C506.023 34.056 505.895 34.36 505.639 34.616C505.383 34.872 505.079 35 504.727 35H494.407C494.055 35 493.751 34.872 493.495 34.616C493.239 34.36 493.111 34.056 493.111 33.704V2.696C493.111 2.344 493.239 2.04 493.495 1.784C493.751 1.528 494.055 1.4 494.407 1.4H512.359ZM512.167 15.608C512.935 15.608 513.543 15.384 513.991 14.936C514.439 14.456 514.663 13.832 514.663 13.064C514.663 12.264 514.439 11.608 513.991 11.096C513.543 10.584 512.935 10.328 512.167 10.328H506.071V15.608H512.167ZM563.892 25.16C564.244 25.16 564.548 25.288 564.804 25.544C565.06 25.8 565.188 26.104 565.188 26.456V33.704C565.188 34.056 565.06 34.36 564.804 34.616C564.548 34.872 564.244 35 563.892 35H535.86C535.508 35 535.204 34.872 534.948 34.616C534.692 34.36 534.564 34.056 534.564 33.704V2.696C534.564 2.344 534.692 2.04 534.948 1.784C535.204 1.528 535.508 1.4 535.86 1.4H546.228C546.58 1.4 546.884 1.528 547.14 1.784C547.396 2.04 547.524 2.344 547.524 2.696V25.16H563.892ZM604.577 25.64C604.929 25.64 605.233 25.768 605.489 26.024C605.745 26.28 605.873 26.584 605.873 26.936V33.704C605.873 34.056 605.745 34.36 605.489 34.616C605.233 34.872 604.929 35 604.577 35H574.241C573.889 35 573.585 34.872 573.329 34.616C573.073 34.36 572.945 34.056 572.945 33.704V2.696C572.945 2.344 573.073 2.04 573.329 1.784C573.585 1.528 573.889 1.4 574.241 1.4H604.097C604.449 1.4 604.753 1.528 605.009 1.784C605.265 2.04 605.393 2.344 605.393 2.696V9.464C605.393 9.816 605.265 10.12 605.009 10.376C604.753 10.632 604.449 10.76 604.097 10.76H585.425V13.784H601.457C601.809 13.784 602.113 13.912 602.369 14.168C602.625 14.424 602.753 14.728 602.753 15.08V21.32C602.753 21.672 602.625 21.976 602.369 22.232C602.113 22.488 601.809 22.616 601.457 22.616H585.425V25.64H604.577ZM688.444 21.128C688.444 26.024 686.812 29.64 683.548 31.976C680.316 34.312 675.996 35.48 670.588 35.48C665.18 35.48 660.844 34.312 657.58 31.976C654.348 29.64 652.732 25.992 652.732 21.032V15.368C652.732 12.104 653.5 9.4 655.036 7.256C656.604 5.08 658.732 3.48 661.42 2.456C664.108 1.432 667.164 0.919998 670.588 0.919998C674.012 0.919998 677.052 1.432 679.708 2.456C682.396 3.48 684.524 5.064 686.092 7.208C687.66 9.352 688.444 12.04 688.444 15.272V21.128ZM665.692 22.04C665.692 23.352 666.124 24.36 666.988 25.064C667.884 25.768 669.084 26.12 670.588 26.12C672.092 26.12 673.276 25.768 674.14 25.064C675.036 24.328 675.484 23.304 675.484 21.992V14.408C675.484 13.096 675.036 12.088 674.14 11.384C673.276 10.648 672.092 10.28 670.588 10.28C669.084 10.28 667.884 10.632 666.988 11.336C666.124 12.04 665.692 13.048 665.692 14.36V22.04ZM727.593 1.4C727.945 1.4 728.249 1.528 728.505 1.784C728.761 2.04 728.889 2.344 728.889 2.696V9.992C728.889 10.344 728.761 10.648 728.505 10.904C728.249 11.16 727.945 11.288 727.593 11.288H708.729V14.36H724.473C724.825 14.36 725.129 14.488 725.385 14.744C725.641 15 725.769 15.304 725.769 15.656V22.904C725.769 23.256 725.641 23.56 725.385 23.816C725.129 24.072 724.825 24.2 724.473 24.2H708.729V33.704C708.729 34.056 708.601 34.36 708.345 34.616C708.089 34.872 707.785 35 707.433 35H697.065C696.713 35 696.409 34.872 696.153 34.616C695.897 34.36 695.769 34.056 695.769 33.704V2.696C695.769 2.344 695.897 2.04 696.153 1.784C696.409 1.528 696.713 1.4 697.065 1.4H727.593ZM95.4834 60.4C95.8354 60.4 96.1394 60.528 96.3954 60.784C96.6514 61.04 96.7794 61.344 96.7794 61.696V68.992C96.7794 69.344 96.6514 69.648 96.3954 69.904C96.1394 70.16 95.8354 70.288 95.4834 70.288H76.6194V73.36H92.3634C92.7154 73.36 93.0194 73.488 93.2754 73.744C93.5314 74 93.6594 74.304 93.6594 74.656V81.904C93.6594 82.256 93.5314 82.56 93.2754 82.816C93.0194 83.072 92.7154 83.2 92.3634 83.2H76.6194V92.704C76.6194 93.056 76.4914 93.36 76.2354 93.616C75.9794 93.872 75.6754 94 75.3234 94H64.9554C64.6034 94 64.2994 93.872 64.0434 93.616C63.7874 93.36 63.6594 93.056 63.6594 92.704V61.696C63.6594 61.344 63.7874 61.04 64.0434 60.784C64.2994 60.528 64.6034 60.4 64.9554 60.4H95.4834ZM139.097 92.512C139.161 92.64 139.193 92.784 139.193 92.944C139.193 93.232 139.081 93.488 138.857 93.712C138.665 93.904 138.425 94 138.137 94H127.241C126.793 94 126.377 93.888 125.993 93.664C125.641 93.44 125.385 93.152 125.225 92.8L121.001 83.296H116.969V92.704C116.969 93.056 116.841 93.36 116.585 93.616C116.329 93.872 116.025 94 115.673 94H105.305C104.953 94 104.649 93.872 104.393 93.616C104.137 93.36 104.009 93.056 104.009 92.704V61.696C104.009 61.344 104.137 61.04 104.393 60.784C104.649 60.528 104.953 60.4 105.305 60.4H123.977C126.857 60.4 129.369 60.864 131.513 61.792C133.689 62.72 135.353 64.064 136.505 65.824C137.657 67.584 138.233 69.648 138.233 72.016C138.233 76.368 136.553 79.52 133.193 81.472L139.097 92.512ZM122.969 74.416C123.673 74.416 124.217 74.192 124.601 73.744C124.985 73.264 125.177 72.672 125.177 71.968C125.177 71.264 124.985 70.656 124.601 70.144C124.249 69.6 123.705 69.328 122.969 69.328H116.969V74.416H122.969ZM167.35 84.16H176.038C176.39 84.16 176.694 84.288 176.95 84.544C177.206 84.8 177.334 85.104 177.334 85.456V92.704C177.334 93.056 177.206 93.36 176.95 93.616C176.694 93.872 176.39 94 176.038 94H145.606C145.254 94 144.95 93.872 144.694 93.616C144.438 93.36 144.31 93.056 144.31 92.704V85.456C144.31 85.104 144.438 84.8 144.694 84.544C144.95 84.288 145.254 84.16 145.606 84.16H154.39V70.24H145.606C145.254 70.24 144.95 70.112 144.694 69.856C144.438 69.6 144.31 69.296 144.31 68.944V61.696C144.31 61.344 144.438 61.04 144.694 60.784C144.95 60.528 145.254 60.4 145.606 60.4H176.038C176.39 60.4 176.694 60.528 176.95 60.784C177.206 61.04 177.334 61.344 177.334 61.696V68.944C177.334 69.296 177.206 69.6 176.95 69.856C176.694 70.112 176.39 70.24 176.038 70.24H167.35V84.16ZM217.155 84.64C217.507 84.64 217.811 84.768 218.067 85.024C218.323 85.28 218.451 85.584 218.451 85.936V92.704C218.451 93.056 218.323 93.36 218.067 93.616C217.811 93.872 217.507 94 217.155 94H186.819C186.467 94 186.163 93.872 185.907 93.616C185.651 93.36 185.523 93.056 185.523 92.704V61.696C185.523 61.344 185.651 61.04 185.907 60.784C186.163 60.528 186.467 60.4 186.819 60.4H216.675C217.027 60.4 217.331 60.528 217.587 60.784C217.843 61.04 217.971 61.344 217.971 61.696V68.464C217.971 68.816 217.843 69.12 217.587 69.376C217.331 69.632 217.027 69.76 216.675 69.76H198.003V72.784H214.035C214.387 72.784 214.691 72.912 214.947 73.168C215.203 73.424 215.331 73.728 215.331 74.08V80.32C215.331 80.672 215.203 80.976 214.947 81.232C214.691 81.488 214.387 81.616 214.035 81.616H198.003V84.64H217.155ZM257.408 60.4C257.76 60.4 258.064 60.528 258.32 60.784C258.576 61.04 258.704 61.344 258.704 61.696V92.704C258.704 93.056 258.576 93.36 258.32 93.616C258.064 93.872 257.76 94 257.408 94H249.68C248.912 94 248.272 93.664 247.76 92.992L237.296 79.648V92.704C237.296 93.056 237.168 93.36 236.912 93.616C236.656 93.872 236.352 94 236 94H227.072C226.72 94 226.416 93.872 226.16 93.616C225.904 93.36 225.776 93.056 225.776 92.704V61.696C225.776 61.344 225.904 61.04 226.16 60.784C226.416 60.528 226.72 60.4 227.072 60.4H234.848C235.616 60.4 236.24 60.72 236.72 61.36L247.184 75.808V61.696C247.184 61.344 247.312 61.04 247.568 60.784C247.824 60.528 248.128 60.4 248.48 60.4H257.408ZM283.022 60.4C288.43 60.4 292.75 61.568 295.982 63.904C299.246 66.24 300.878 69.856 300.878 74.752V79.648C300.878 84.64 299.262 88.288 296.03 90.592C292.83 92.864 288.494 94 283.022 94H267.71C267.358 94 267.054 93.872 266.798 93.616C266.542 93.36 266.414 93.056 266.414 92.704V61.696C266.414 61.344 266.542 61.04 266.798 60.784C267.054 60.528 267.358 60.4 267.71 60.4H283.022ZM283.262 84.64C284.766 84.64 285.95 84.288 286.814 83.584C287.71 82.848 288.158 81.824 288.158 80.512V73.888C288.158 72.576 287.71 71.568 286.814 70.864C285.95 70.128 284.766 69.76 283.262 69.76H278.894V84.64H283.262ZM326.587 72.592C330.107 72.976 332.923 73.6 335.035 74.464C337.179 75.328 338.731 76.464 339.691 77.872C340.651 79.28 341.131 81.04 341.131 83.152C341.131 85.456 340.379 87.472 338.875 89.2C337.403 90.896 335.355 92.208 332.731 93.136C330.107 94.032 327.115 94.48 323.755 94.48C320.011 94.48 316.843 94.016 314.251 93.088C311.659 92.16 309.723 90.928 308.443 89.392C307.163 87.824 306.523 86.112 306.523 84.256C306.523 83.936 306.619 83.68 306.811 83.488C307.035 83.296 307.307 83.2 307.627 83.2H317.467C318.139 83.2 318.683 83.408 319.099 83.824C319.643 84.336 320.251 84.688 320.923 84.88C321.595 85.04 322.539 85.12 323.755 85.12C326.795 85.12 328.315 84.656 328.315 83.728C328.315 83.344 328.107 83.024 327.691 82.768C327.307 82.48 326.603 82.24 325.579 82.048C324.587 81.824 323.115 81.6 321.163 81.376C316.779 80.864 313.419 79.776 311.083 78.112C308.747 76.416 307.579 74.032 307.579 70.96C307.579 68.784 308.235 66.864 309.547 65.2C310.859 63.536 312.715 62.24 315.115 61.312C317.547 60.384 320.363 59.92 323.563 59.92C326.891 59.92 329.803 60.448 332.299 61.504C334.795 62.528 336.699 63.808 338.011 65.344C339.323 66.88 339.979 68.384 339.979 69.856C339.979 70.176 339.867 70.432 339.643 70.624C339.451 70.816 339.179 70.912 338.827 70.912H328.507C327.963 70.912 327.467 70.72 327.019 70.336C326.667 70.016 326.251 69.76 325.771 69.568C325.291 69.376 324.555 69.28 323.563 69.28C321.419 69.28 320.347 69.728 320.347 70.624C320.347 71.104 320.763 71.488 321.595 71.776C322.427 72.032 324.091 72.304 326.587 72.592ZM401.285 92.704C401.189 92.992 400.949 93.28 400.565 93.568C400.213 93.856 399.749 94 399.173 94H392.453C391.845 94 391.333 93.824 390.917 93.472C390.533 93.088 390.309 92.656 390.245 92.176L386.069 61.6V61.456C386.069 61.168 386.165 60.928 386.357 60.736C386.581 60.512 386.837 60.4 387.125 60.4H395.381C396.021 60.4 396.533 60.592 396.917 60.976C397.333 61.36 397.573 61.84 397.637 62.416L399.173 77.104L401.957 69.472C402.053 69.152 402.277 68.848 402.629 68.56C403.013 68.24 403.493 68.08 404.069 68.08H407.333C407.909 68.08 408.373 68.24 408.725 68.56C409.109 68.848 409.349 69.152 409.445 69.472L412.229 77.104L413.765 62.416C413.829 61.84 414.053 61.36 414.437 60.976C414.853 60.592 415.381 60.4 416.021 60.4H424.277C424.565 60.4 424.805 60.512 424.997 60.736C425.221 60.928 425.333 61.168 425.333 61.456V61.6L421.157 92.176C421.093 92.656 420.853 93.088 420.437 93.472C420.053 93.824 419.557 94 418.949 94H412.229C411.653 94 411.173 93.856 410.789 93.568C410.437 93.28 410.213 92.992 410.117 92.704L405.701 82.576L401.285 92.704ZM462.275 60.4C462.627 60.4 462.931 60.528 463.187 60.784C463.443 61.04 463.571 61.344 463.571 61.696V92.704C463.571 93.056 463.443 93.36 463.187 93.616C462.931 93.872 462.627 94 462.275 94H452.387C452.035 94 451.731 93.872 451.475 93.616C451.219 93.36 451.091 93.056 451.091 92.704V82.48H441.491V92.704C441.491 93.056 441.363 93.36 441.107 93.616C440.851 93.872 440.547 94 440.195 94H430.307C429.955 94 429.651 93.888 429.395 93.664C429.139 93.408 429.011 93.088 429.011 92.704V61.696C429.011 61.344 429.139 61.04 429.395 60.784C429.651 60.528 429.955 60.4 430.307 60.4H440.195C440.547 60.4 440.851 60.528 441.107 60.784C441.363 61.04 441.491 61.344 441.491 61.696V71.536H451.091V61.696C451.091 61.344 451.219 61.04 451.475 60.784C451.731 60.528 452.035 60.4 452.387 60.4H462.275ZM504.928 80.128C504.928 85.024 503.296 88.64 500.032 90.976C496.8 93.312 492.48 94.48 487.072 94.48C481.664 94.48 477.328 93.312 474.064 90.976C470.832 88.64 469.216 84.992 469.216 80.032V74.368C469.216 71.104 469.984 68.4 471.52 66.256C473.088 64.08 475.216 62.48 477.904 61.456C480.592 60.432 483.648 59.92 487.072 59.92C490.496 59.92 493.536 60.432 496.192 61.456C498.88 62.48 501.008 64.064 502.576 66.208C504.144 68.352 504.928 71.04 504.928 74.272V80.128ZM482.176 81.04C482.176 82.352 482.608 83.36 483.472 84.064C484.368 84.768 485.568 85.12 487.072 85.12C488.576 85.12 489.76 84.768 490.624 84.064C491.52 83.328 491.968 82.304 491.968 80.992V73.408C491.968 72.096 491.52 71.088 490.624 70.384C489.76 69.648 488.576 69.28 487.072 69.28C485.568 69.28 484.368 69.632 483.472 70.336C482.608 71.04 482.176 72.048 482.176 73.36V81.04ZM564.41 92.704C564.314 92.992 564.074 93.28 563.69 93.568C563.338 93.856 562.874 94 562.298 94H555.578C554.97 94 554.458 93.824 554.042 93.472C553.658 93.088 553.434 92.656 553.37 92.176L549.194 61.6V61.456C549.194 61.168 549.29 60.928 549.482 60.736C549.706 60.512 549.962 60.4 550.25 60.4H558.506C559.146 60.4 559.658 60.592 560.042 60.976C560.458 61.36 560.698 61.84 560.762 62.416L562.298 77.104L565.082 69.472C565.178 69.152 565.402 68.848 565.754 68.56C566.138 68.24 566.618 68.08 567.194 68.08H570.458C571.034 68.08 571.498 68.24 571.85 68.56C572.234 68.848 572.474 69.152 572.57 69.472L575.354 77.104L576.89 62.416C576.954 61.84 577.178 61.36 577.562 60.976C577.978 60.592 578.506 60.4 579.146 60.4H587.402C587.69 60.4 587.93 60.512 588.122 60.736C588.346 60.928 588.458 61.168 588.458 61.456V61.6L584.282 92.176C584.218 92.656 583.978 93.088 583.562 93.472C583.178 93.824 582.682 94 582.074 94H575.354C574.778 94 574.298 93.856 573.914 93.568C573.562 93.28 573.338 92.992 573.242 92.704L568.826 82.576L564.41 92.704ZM625.4 60.4C625.752 60.4 626.056 60.528 626.312 60.784C626.568 61.04 626.696 61.344 626.696 61.696V92.704C626.696 93.056 626.568 93.36 626.312 93.616C626.056 93.872 625.752 94 625.4 94H615.512C615.16 94 614.856 93.872 614.6 93.616C614.344 93.36 614.216 93.056 614.216 92.704V82.48H604.616V92.704C604.616 93.056 604.488 93.36 604.232 93.616C603.976 93.872 603.672 94 603.32 94H593.432C593.08 94 592.776 93.888 592.52 93.664C592.264 93.408 592.136 93.088 592.136 92.704V61.696C592.136 61.344 592.264 61.04 592.52 60.784C592.776 60.528 593.08 60.4 593.432 60.4H603.32C603.672 60.4 603.976 60.528 604.232 60.784C604.488 61.04 604.616 61.344 604.616 61.696V71.536H614.216V61.696C614.216 61.344 614.344 61.04 614.6 60.784C614.856 60.528 615.16 60.4 615.512 60.4H625.4ZM665.749 84.64C666.101 84.64 666.405 84.768 666.661 85.024C666.917 85.28 667.045 85.584 667.045 85.936V92.704C667.045 93.056 666.917 93.36 666.661 93.616C666.405 93.872 666.101 94 665.749 94H635.413C635.061 94 634.757 93.872 634.501 93.616C634.245 93.36 634.117 93.056 634.117 92.704V61.696C634.117 61.344 634.245 61.04 634.501 60.784C634.757 60.528 635.061 60.4 635.413 60.4H665.269C665.621 60.4 665.925 60.528 666.181 60.784C666.437 61.04 666.565 61.344 666.565 61.696V68.464C666.565 68.816 666.437 69.12 666.181 69.376C665.925 69.632 665.621 69.76 665.269 69.76H646.597V72.784H662.629C662.981 72.784 663.285 72.912 663.541 73.168C663.797 73.424 663.925 73.728 663.925 74.08V80.32C663.925 80.672 663.797 80.976 663.541 81.232C663.285 81.488 662.981 81.616 662.629 81.616H646.597V84.64H665.749ZM710.034 92.512C710.098 92.64 710.13 92.784 710.13 92.944C710.13 93.232 710.018 93.488 709.794 93.712C709.602 93.904 709.362 94 709.074 94H698.178C697.73 94 697.314 93.888 696.93 93.664C696.578 93.44 696.322 93.152 696.162 92.8L691.938 83.296H687.906V92.704C687.906 93.056 687.778 93.36 687.522 93.616C687.266 93.872 686.962 94 686.61 94H676.242C675.89 94 675.586 93.872 675.33 93.616C675.074 93.36 674.946 93.056 674.946 92.704V61.696C674.946 61.344 675.074 61.04 675.33 60.784C675.586 60.528 675.89 60.4 676.242 60.4H694.914C697.794 60.4 700.306 60.864 702.45 61.792C704.626 62.72 706.29 64.064 707.442 65.824C708.594 67.584 709.17 69.648 709.17 72.016C709.17 76.368 707.49 79.52 704.13 81.472L710.034 92.512ZM693.906 74.416C694.61 74.416 695.154 74.192 695.538 73.744C695.922 73.264 696.114 72.672 696.114 71.968C696.114 71.264 695.922 70.656 695.538 70.144C695.186 69.6 694.642 69.328 693.906 69.328H687.906V74.416H693.906ZM747.311 84.64C747.663 84.64 747.967 84.768 748.223 85.024C748.479 85.28 748.607 85.584 748.607 85.936V92.704C748.607 93.056 748.479 93.36 748.223 93.616C747.967 93.872 747.663 94 747.311 94H716.975C716.623 94 716.319 93.872 716.063 93.616C715.807 93.36 715.679 93.056 715.679 92.704V61.696C715.679 61.344 715.807 61.04 716.063 60.784C716.319 60.528 716.623 60.4 716.975 60.4H746.831C747.183 60.4 747.487 60.528 747.743 60.784C747.999 61.04 748.127 61.344 748.127 61.696V68.464C748.127 68.816 747.999 69.12 747.743 69.376C747.487 69.632 747.183 69.76 746.831 69.76H728.159V72.784H744.191C744.543 72.784 744.847 72.912 745.103 73.168C745.359 73.424 745.487 73.728 745.487 74.08V80.32C745.487 80.672 745.359 80.976 745.103 81.232C744.847 81.488 744.543 81.616 744.191 81.616H728.159V84.64H747.311ZM79.2594 153.48C73.8834 153.48 69.6114 152.312 66.4434 149.976C63.3074 147.64 61.7394 143.992 61.7394 139.032V120.696C61.7394 120.344 61.8674 120.04 62.1234 119.784C62.3794 119.528 62.6834 119.4 63.0354 119.4H73.0674C73.4194 119.4 73.7234 119.528 73.9794 119.784C74.2354 120.04 74.3634 120.344 74.3634 120.696V139.8C74.3634 141.112 74.7954 142.12 75.6594 142.824C76.5554 143.528 77.7554 143.88 79.2594 143.88C80.7634 143.88 81.9474 143.528 82.8114 142.824C83.7074 142.12 84.1554 141.112 84.1554 139.8V120.696C84.1554 120.344 84.2834 120.04 84.5394 119.784C84.7954 119.528 85.0994 119.4 85.4514 119.4H95.4834C95.8354 119.4 96.1394 119.528 96.3954 119.784C96.6514 120.04 96.7794 120.344 96.7794 120.696V139.032C96.7794 143.992 95.1954 147.64 92.0274 149.976C88.8914 152.312 84.6354 153.48 79.2594 153.48ZM135.065 119.4C135.417 119.4 135.721 119.528 135.977 119.784C136.233 120.04 136.361 120.344 136.361 120.696V151.704C136.361 152.056 136.233 152.36 135.977 152.616C135.721 152.872 135.417 153 135.065 153H127.337C126.569 153 125.929 152.664 125.417 151.992L114.953 138.648V151.704C114.953 152.056 114.825 152.36 114.569 152.616C114.313 152.872 114.009 153 113.657 153H104.729C104.377 153 104.073 152.872 103.817 152.616C103.561 152.36 103.433 152.056 103.433 151.704V120.696C103.433 120.344 103.561 120.04 103.817 119.784C104.073 119.528 104.377 119.4 104.729 119.4H112.505C113.273 119.4 113.897 119.72 114.377 120.36L124.841 134.808V120.696C124.841 120.344 124.969 120.04 125.225 119.784C125.481 119.528 125.785 119.4 126.137 119.4H135.065ZM176.374 143.64C176.726 143.64 177.03 143.768 177.286 144.024C177.542 144.28 177.67 144.584 177.67 144.936V151.704C177.67 152.056 177.542 152.36 177.286 152.616C177.03 152.872 176.726 153 176.374 153H146.038C145.686 153 145.382 152.872 145.126 152.616C144.87 152.36 144.742 152.056 144.742 151.704V120.696C144.742 120.344 144.87 120.04 145.126 119.784C145.382 119.528 145.686 119.4 146.038 119.4H175.894C176.246 119.4 176.55 119.528 176.806 119.784C177.062 120.04 177.19 120.344 177.19 120.696V127.464C177.19 127.816 177.062 128.12 176.806 128.376C176.55 128.632 176.246 128.76 175.894 128.76H157.222V131.784H173.254C173.606 131.784 173.91 131.912 174.166 132.168C174.422 132.424 174.55 132.728 174.55 133.08V139.32C174.55 139.672 174.422 139.976 174.166 140.232C173.91 140.488 173.606 140.616 173.254 140.616H157.222V143.64H176.374ZM207.891 120.696C208.371 119.832 209.059 119.4 209.955 119.4H218.739C219.091 119.4 219.395 119.528 219.651 119.784C219.907 120.04 220.035 120.344 220.035 120.696V151.704C220.035 152.056 219.907 152.36 219.651 152.616C219.395 152.872 219.091 153 218.739 153H210.051C209.699 153 209.395 152.872 209.139 152.616C208.883 152.36 208.755 152.056 208.755 151.704V136.824L205.251 143.736C205.155 143.96 204.931 144.216 204.579 144.504C204.227 144.792 203.779 144.936 203.235 144.936H199.971C199.427 144.936 198.979 144.792 198.627 144.504C198.275 144.216 198.051 143.96 197.955 143.736L194.451 136.824V151.704C194.451 152.056 194.323 152.36 194.067 152.616C193.811 152.872 193.507 153 193.155 153H184.467C184.115 153 183.811 152.872 183.555 152.616C183.299 152.36 183.171 152.056 183.171 151.704V120.696C183.171 120.344 183.299 120.04 183.555 119.784C183.811 119.528 184.115 119.4 184.467 119.4H193.251C194.147 119.4 194.835 119.832 195.315 120.696L201.603 132.216L207.891 120.696ZM247.28 119.4C250.288 119.4 252.912 119.912 255.152 120.936C257.392 121.96 259.104 123.352 260.288 125.112C261.472 126.872 262.064 128.84 262.064 131.016C262.064 134.6 260.944 137.416 258.704 139.464C256.464 141.48 252.656 142.488 247.28 142.488H240.944V151.704C240.944 152.056 240.816 152.36 240.56 152.616C240.304 152.872 240 153 239.648 153H229.328C228.976 153 228.672 152.872 228.416 152.616C228.16 152.36 228.032 152.056 228.032 151.704V120.696C228.032 120.344 228.16 120.04 228.416 119.784C228.672 119.528 228.976 119.4 229.328 119.4H247.28ZM247.088 133.608C247.856 133.608 248.464 133.384 248.912 132.936C249.36 132.456 249.584 131.832 249.584 131.064C249.584 130.264 249.36 129.608 248.912 129.096C248.464 128.584 247.856 128.328 247.088 128.328H240.992V133.608H247.088ZM298.814 143.16C299.166 143.16 299.47 143.288 299.726 143.544C299.982 143.8 300.11 144.104 300.11 144.456V151.704C300.11 152.056 299.982 152.36 299.726 152.616C299.47 152.872 299.166 153 298.814 153H270.782C270.43 153 270.126 152.872 269.87 152.616C269.614 152.36 269.486 152.056 269.486 151.704V120.696C269.486 120.344 269.614 120.04 269.87 119.784C270.126 119.528 270.43 119.4 270.782 119.4H281.15C281.502 119.4 281.806 119.528 282.062 119.784C282.318 120.04 282.446 120.344 282.446 120.696V143.16H298.814ZM341.803 139.128C341.803 144.024 340.171 147.64 336.907 149.976C333.675 152.312 329.355 153.48 323.947 153.48C318.539 153.48 314.203 152.312 310.939 149.976C307.707 147.64 306.091 143.992 306.091 139.032V133.368C306.091 130.104 306.859 127.4 308.395 125.256C309.963 123.08 312.091 121.48 314.779 120.456C317.467 119.432 320.523 118.92 323.947 118.92C327.371 118.92 330.411 119.432 333.067 120.456C335.755 121.48 337.883 123.064 339.451 125.208C341.019 127.352 341.803 130.04 341.803 133.272V139.128ZM319.051 140.04C319.051 141.352 319.483 142.36 320.347 143.064C321.243 143.768 322.443 144.12 323.947 144.12C325.451 144.12 326.635 143.768 327.499 143.064C328.395 142.328 328.843 141.304 328.843 139.992V132.408C328.843 131.096 328.395 130.088 327.499 129.384C326.635 128.648 325.451 128.28 323.947 128.28C322.443 128.28 321.243 128.632 320.347 129.336C319.483 130.04 319.051 131.048 319.051 132.36V140.04ZM382.296 119.4C382.584 119.4 382.824 119.512 383.016 119.736C383.24 119.928 383.352 120.152 383.352 120.408C383.352 120.6 383.304 120.792 383.208 120.984L371.112 141V151.704C371.112 152.056 370.984 152.36 370.728 152.616C370.472 152.872 370.168 153 369.816 153H359.592C359.24 153 358.936 152.872 358.68 152.616C358.424 152.36 358.296 152.056 358.296 151.704V141L346.248 120.984C346.152 120.792 346.104 120.616 346.104 120.456C346.104 120.168 346.2 119.928 346.392 119.736C346.616 119.512 346.872 119.4 347.16 119.4H357.288C358.184 119.4 358.84 119.768 359.256 120.504L364.68 130.008L370.248 120.6C370.728 119.8 371.4 119.4 372.264 119.4H382.296ZM421.061 143.64C421.413 143.64 421.717 143.768 421.973 144.024C422.229 144.28 422.357 144.584 422.357 144.936V151.704C422.357 152.056 422.229 152.36 421.973 152.616C421.717 152.872 421.413 153 421.061 153H390.725C390.373 153 390.069 152.872 389.813 152.616C389.557 152.36 389.429 152.056 389.429 151.704V120.696C389.429 120.344 389.557 120.04 389.813 119.784C390.069 119.528 390.373 119.4 390.725 119.4H420.581C420.933 119.4 421.237 119.528 421.493 119.784C421.749 120.04 421.877 120.344 421.877 120.696V127.464C421.877 127.816 421.749 128.12 421.493 128.376C421.237 128.632 420.933 128.76 420.581 128.76H401.909V131.784H417.941C418.293 131.784 418.597 131.912 418.853 132.168C419.109 132.424 419.237 132.728 419.237 133.08V139.32C419.237 139.672 419.109 139.976 418.853 140.232C418.597 140.488 418.293 140.616 417.941 140.616H401.909V143.64H421.061ZM446.147 119.4C451.555 119.4 455.875 120.568 459.107 122.904C462.371 125.24 464.003 128.856 464.003 133.752V138.648C464.003 143.64 462.387 147.288 459.155 149.592C455.955 151.864 451.619 153 446.147 153H430.835C430.483 153 430.179 152.872 429.923 152.616C429.667 152.36 429.539 152.056 429.539 151.704V120.696C429.539 120.344 429.667 120.04 429.923 119.784C430.179 119.528 430.483 119.4 430.835 119.4H446.147ZM446.387 143.64C447.891 143.64 449.075 143.288 449.939 142.584C450.835 141.848 451.283 140.824 451.283 139.512V132.888C451.283 131.576 450.835 130.568 449.939 129.864C449.075 129.128 447.891 128.76 446.387 128.76H442.019V143.64H446.387ZM527.709 119.4C533.117 119.4 537.437 120.568 540.669 122.904C543.933 125.24 545.565 128.856 545.565 133.752V138.648C545.565 143.64 543.949 147.288 540.717 149.592C537.517 151.864 533.181 153 527.709 153H512.397C512.045 153 511.741 152.872 511.485 152.616C511.229 152.36 511.101 152.056 511.101 151.704V120.696C511.101 120.344 511.229 120.04 511.485 119.784C511.741 119.528 512.045 119.4 512.397 119.4H527.709ZM527.949 143.64C529.453 143.64 530.637 143.288 531.501 142.584C532.397 141.848 532.845 140.824 532.845 139.512V132.888C532.845 131.576 532.397 130.568 531.501 129.864C530.637 129.128 529.453 128.76 527.949 128.76H523.581V143.64H527.949ZM568.634 153.48C563.258 153.48 558.986 152.312 555.818 149.976C552.682 147.64 551.114 143.992 551.114 139.032V120.696C551.114 120.344 551.242 120.04 551.498 119.784C551.754 119.528 552.058 119.4 552.41 119.4H562.442C562.794 119.4 563.098 119.528 563.354 119.784C563.61 120.04 563.738 120.344 563.738 120.696V139.8C563.738 141.112 564.17 142.12 565.034 142.824C565.93 143.528 567.13 143.88 568.634 143.88C570.138 143.88 571.322 143.528 572.186 142.824C573.082 142.12 573.53 141.112 573.53 139.8V120.696C573.53 120.344 573.658 120.04 573.914 119.784C574.17 119.528 574.474 119.4 574.826 119.4H584.858C585.21 119.4 585.514 119.528 585.77 119.784C586.026 120.04 586.154 120.344 586.154 120.696V139.032C586.154 143.992 584.57 147.64 581.402 149.976C578.266 152.312 574.01 153.48 568.634 153.48ZM624.968 143.64C625.32 143.64 625.624 143.768 625.88 144.024C626.136 144.28 626.264 144.584 626.264 144.936V151.704C626.264 152.056 626.136 152.36 625.88 152.616C625.624 152.872 625.32 153 624.968 153H594.632C594.28 153 593.976 152.872 593.72 152.616C593.464 152.36 593.336 152.056 593.336 151.704V120.696C593.336 120.344 593.464 120.04 593.72 119.784C593.976 119.528 594.28 119.4 594.632 119.4H624.488C624.84 119.4 625.144 119.528 625.4 119.784C625.656 120.04 625.784 120.344 625.784 120.696V127.464C625.784 127.816 625.656 128.12 625.4 128.376C625.144 128.632 624.84 128.76 624.488 128.76H605.816V131.784H621.848C622.2 131.784 622.504 131.912 622.76 132.168C623.016 132.424 623.144 132.728 623.144 133.08V139.32C623.144 139.672 623.016 139.976 622.76 140.232C622.504 140.488 622.2 140.616 621.848 140.616H605.816V143.64H624.968ZM707.538 119.4C707.89 119.4 708.194 119.528 708.45 119.784C708.706 120.04 708.834 120.344 708.834 120.696V128.424C708.834 128.776 708.706 129.08 708.45 129.336C708.194 129.592 707.89 129.72 707.538 129.72H697.218V151.704C697.218 152.056 697.09 152.36 696.834 152.616C696.578 152.872 696.274 153 695.922 153H686.034C685.682 153 685.378 152.872 685.122 152.616C684.866 152.36 684.738 152.056 684.738 151.704V129.72H674.418C674.066 129.72 673.762 129.592 673.506 129.336C673.25 129.08 673.122 128.776 673.122 128.424V120.696C673.122 120.344 673.25 120.04 673.506 119.784C673.762 119.528 674.066 119.4 674.418 119.4H707.538ZM749.615 139.128C749.615 144.024 747.983 147.64 744.719 149.976C741.487 152.312 737.167 153.48 731.759 153.48C726.351 153.48 722.015 152.312 718.751 149.976C715.519 147.64 713.903 143.992 713.903 139.032V133.368C713.903 130.104 714.671 127.4 716.207 125.256C717.775 123.08 719.903 121.48 722.591 120.456C725.279 119.432 728.335 118.92 731.759 118.92C735.183 118.92 738.223 119.432 740.879 120.456C743.567 121.48 745.695 123.064 747.263 125.208C748.831 127.352 749.615 130.04 749.615 133.272V139.128ZM726.863 140.04C726.863 141.352 727.295 142.36 728.159 143.064C729.055 143.768 730.255 144.12 731.759 144.12C733.263 144.12 734.447 143.768 735.311 143.064C736.207 142.328 736.655 141.304 736.655 139.992V132.408C736.655 131.096 736.207 130.088 735.311 129.384C734.447 128.648 733.263 128.28 731.759 128.28C730.255 128.28 729.055 128.632 728.159 129.336C727.295 130.04 726.863 131.048 726.863 132.36V140.04ZM13.6715 199.04C13.6715 200.352 14.1035 201.36 14.9675 202.064C15.8635 202.768 17.0635 203.12 18.5675 203.12C19.9115 203.12 20.9035 202.896 21.5435 202.448C22.1835 202 22.7275 201.328 23.1755 200.432C23.5915 199.6 24.1515 199.184 24.8555 199.184H35.2235C35.5115 199.184 35.7515 199.296 35.9435 199.52C36.1675 199.712 36.2795 199.952 36.2795 200.24C36.2795 202.192 35.6235 204.112 34.3115 206C32.9995 207.856 30.9995 209.408 28.3115 210.656C25.6555 211.872 22.4075 212.48 18.5675 212.48C15.1435 212.48 12.0875 211.968 9.3995 210.944C6.7435 209.888 4.6315 208.288 3.0635 206.144C1.4955 203.968 0.7115 201.264 0.7115 198.032V192.368C0.7115 189.136 1.4955 186.448 3.0635 184.304C4.6315 182.128 6.7435 180.528 9.3995 179.504C12.0875 178.448 15.1435 177.92 18.5675 177.92C22.4075 177.92 25.6555 178.544 28.3115 179.792C30.9995 181.008 32.9995 182.56 34.3115 184.448C35.6235 186.304 36.2795 188.208 36.2795 190.16C36.2795 190.448 36.1675 190.704 35.9435 190.928C35.7515 191.12 35.5115 191.216 35.2235 191.216H24.8555C24.1515 191.216 23.5915 190.8 23.1755 189.968C22.7275 189.072 22.1835 188.4 21.5435 187.952C20.9035 187.504 19.9115 187.28 18.5675 187.28C17.0635 187.28 15.8635 187.632 14.9675 188.336C14.1035 189.04 13.6715 190.048 13.6715 191.36V199.04ZM76.7248 198.128C76.7248 203.024 75.0928 206.64 71.8288 208.976C68.5968 211.312 64.2768 212.48 58.8688 212.48C53.4608 212.48 49.1248 211.312 45.8608 208.976C42.6288 206.64 41.0128 202.992 41.0128 198.032V192.368C41.0128 189.104 41.7808 186.4 43.3168 184.256C44.8848 182.08 47.0128 180.48 49.7008 179.456C52.3888 178.432 55.4448 177.92 58.8688 177.92C62.2928 177.92 65.3328 178.432 67.9888 179.456C70.6768 180.48 72.8048 182.064 74.3728 184.208C75.9408 186.352 76.7248 189.04 76.7248 192.272V198.128ZM53.9728 199.04C53.9728 200.352 54.4048 201.36 55.2688 202.064C56.1648 202.768 57.3648 203.12 58.8688 203.12C60.3728 203.12 61.5568 202.768 62.4208 202.064C63.3168 201.328 63.7648 200.304 63.7648 198.992V191.408C63.7648 190.096 63.3168 189.088 62.4208 188.384C61.5568 187.648 60.3728 187.28 58.8688 187.28C57.3648 187.28 56.1648 187.632 55.2688 188.336C54.4048 189.04 53.9728 190.048 53.9728 191.36V199.04ZM118.706 210.512C118.77 210.64 118.802 210.784 118.802 210.944C118.802 211.232 118.69 211.488 118.466 211.712C118.274 211.904 118.034 212 117.746 212H106.85C106.402 212 105.986 211.888 105.602 211.664C105.25 211.44 104.994 211.152 104.834 210.8L100.61 201.296H96.578V210.704C96.578 211.056 96.45 211.36 96.194 211.616C95.938 211.872 95.634 212 95.282 212H84.914C84.562 212 84.258 211.872 84.002 211.616C83.746 211.36 83.618 211.056 83.618 210.704V179.696C83.618 179.344 83.746 179.04 84.002 178.784C84.258 178.528 84.562 178.4 84.914 178.4H103.586C106.466 178.4 108.978 178.864 111.122 179.792C113.298 180.72 114.962 182.064 116.114 183.824C117.266 185.584 117.842 187.648 117.842 190.016C117.842 194.368 116.162 197.52 112.802 199.472L118.706 210.512ZM102.578 192.416C103.282 192.416 103.826 192.192 104.21 191.744C104.594 191.264 104.786 190.672 104.786 189.968C104.786 189.264 104.594 188.656 104.21 188.144C103.858 187.6 103.314 187.328 102.578 187.328H96.578V192.416H102.578ZM158.287 198.128C158.287 203.024 156.655 206.64 153.391 208.976C150.159 211.312 145.839 212.48 140.431 212.48C135.023 212.48 130.687 211.312 127.423 208.976C124.191 206.64 122.575 202.992 122.575 198.032V192.368C122.575 189.104 123.343 186.4 124.879 184.256C126.447 182.08 128.575 180.48 131.263 179.456C133.951 178.432 137.007 177.92 140.431 177.92C143.855 177.92 146.895 178.432 149.551 179.456C152.239 180.48 154.367 182.064 155.935 184.208C157.503 186.352 158.287 189.04 158.287 192.272V198.128ZM135.535 199.04C135.535 200.352 135.967 201.36 136.831 202.064C137.727 202.768 138.927 203.12 140.431 203.12C141.935 203.12 143.119 202.768 143.983 202.064C144.879 201.328 145.327 200.304 145.327 198.992V191.408C145.327 190.096 144.879 189.088 143.983 188.384C143.119 187.648 141.935 187.28 140.431 187.28C138.927 187.28 137.727 187.632 136.831 188.336C135.967 189.04 135.535 190.048 135.535 191.36V199.04ZM196.237 178.4C196.589 178.4 196.893 178.528 197.149 178.784C197.405 179.04 197.533 179.344 197.533 179.696V210.704C197.533 211.056 197.405 211.36 197.149 211.616C196.893 211.872 196.589 212 196.237 212H188.509C187.741 212 187.101 211.664 186.589 210.992L176.125 197.648V210.704C176.125 211.056 175.997 211.36 175.741 211.616C175.485 211.872 175.181 212 174.829 212H165.901C165.549 212 165.245 211.872 164.989 211.616C164.733 211.36 164.605 211.056 164.605 210.704V179.696C164.605 179.344 164.733 179.04 164.989 178.784C165.245 178.528 165.549 178.4 165.901 178.4H173.677C174.445 178.4 175.069 178.72 175.549 179.36L186.013 193.808V179.696C186.013 179.344 186.141 179.04 186.397 178.784C186.653 178.528 186.957 178.4 187.309 178.4H196.237ZM215.082 210.368C214.666 211.456 213.946 212 212.922 212H203.85C203.562 212 203.306 211.904 203.082 211.712C202.89 211.488 202.794 211.232 202.794 210.944L202.842 210.656L213.306 179.984C213.434 179.568 213.674 179.2 214.026 178.88C214.378 178.56 214.858 178.4 215.466 178.4H228.81C229.418 178.4 229.898 178.56 230.25 178.88C230.602 179.2 230.842 179.568 230.97 179.984L241.434 210.656L241.482 210.944C241.482 211.232 241.37 211.488 241.146 211.712C240.954 211.904 240.714 212 240.426 212H231.354C230.33 212 229.61 211.456 229.194 210.368L227.994 207.008H216.282L215.082 210.368ZM222.138 187.664L218.73 197.648H225.546L222.138 187.664ZM296.644 210.368C296.228 211.456 295.508 212 294.484 212H285.412C285.124 212 284.868 211.904 284.644 211.712C284.452 211.488 284.356 211.232 284.356 210.944L284.404 210.656L294.868 179.984C294.996 179.568 295.236 179.2 295.588 178.88C295.94 178.56 296.42 178.4 297.028 178.4H310.372C310.98 178.4 311.46 178.56 311.812 178.88C312.164 179.2 312.404 179.568 312.532 179.984L322.996 210.656L323.044 210.944C323.044 211.232 322.932 211.488 322.708 211.712C322.516 211.904 322.276 212 321.988 212H312.916C311.892 212 311.172 211.456 310.756 210.368L309.556 207.008H297.844L296.644 210.368ZM303.7 187.664L300.292 197.648H307.108L303.7 187.664ZM359.362 178.4C359.714 178.4 360.018 178.528 360.274 178.784C360.53 179.04 360.658 179.344 360.658 179.696V210.704C360.658 211.056 360.53 211.36 360.274 211.616C360.018 211.872 359.714 212 359.362 212H351.634C350.866 212 350.226 211.664 349.714 210.992L339.25 197.648V210.704C339.25 211.056 339.122 211.36 338.866 211.616C338.61 211.872 338.306 212 337.954 212H329.026C328.674 212 328.37 211.872 328.114 211.616C327.858 211.36 327.73 211.056 327.73 210.704V179.696C327.73 179.344 327.858 179.04 328.114 178.784C328.37 178.528 328.674 178.4 329.026 178.4H336.802C337.57 178.4 338.194 178.72 338.674 179.36L349.138 193.808V179.696C349.138 179.344 349.266 179.04 349.522 178.784C349.778 178.528 350.082 178.4 350.434 178.4H359.362ZM384.975 178.4C390.383 178.4 394.703 179.568 397.935 181.904C401.199 184.24 402.831 187.856 402.831 192.752V197.648C402.831 202.64 401.215 206.288 397.983 208.592C394.783 210.864 390.447 212 384.975 212H369.663C369.311 212 369.007 211.872 368.751 211.616C368.495 211.36 368.367 211.056 368.367 210.704V179.696C368.367 179.344 368.495 179.04 368.751 178.784C369.007 178.528 369.311 178.4 369.663 178.4H384.975ZM385.215 202.64C386.719 202.64 387.903 202.288 388.767 201.584C389.663 200.848 390.111 199.824 390.111 198.512V191.888C390.111 190.576 389.663 189.568 388.767 188.864C387.903 188.128 386.719 187.76 385.215 187.76H380.847V202.64H385.215ZM483.145 198.032C483.145 202.896 481.545 206.528 478.345 208.928C475.145 211.296 470.873 212.48 465.529 212.48C461.689 212.48 458.409 211.872 455.689 210.656C453.001 209.408 450.969 207.84 449.593 205.952C448.249 204.064 447.577 202.16 447.577 200.24C447.577 199.952 447.673 199.712 447.865 199.52C448.089 199.296 448.345 199.184 448.633 199.184H459.481C459.769 199.184 460.009 199.28 460.201 199.472C460.425 199.664 460.585 199.92 460.681 200.24C461.289 202.16 462.825 203.12 465.289 203.12C466.793 203.12 467.977 202.768 468.841 202.064C469.737 201.36 470.185 200.352 470.185 199.04V188.24H452.665C452.313 188.24 452.009 188.112 451.753 187.856C451.497 187.6 451.369 187.296 451.369 186.944V179.696C451.369 179.344 451.497 179.04 451.753 178.784C452.009 178.528 452.313 178.4 452.665 178.4H481.849C482.201 178.4 482.505 178.528 482.761 178.784C483.017 179.04 483.145 179.344 483.145 179.696V198.032ZM507.463 212.48C502.087 212.48 497.815 211.312 494.647 208.976C491.511 206.64 489.943 202.992 489.943 198.032V179.696C489.943 179.344 490.071 179.04 490.327 178.784C490.583 178.528 490.887 178.4 491.239 178.4H501.271C501.623 178.4 501.927 178.528 502.183 178.784C502.439 179.04 502.567 179.344 502.567 179.696V198.8C502.567 200.112 502.999 201.12 503.863 201.824C504.759 202.528 505.959 202.88 507.463 202.88C508.967 202.88 510.151 202.528 511.015 201.824C511.911 201.12 512.359 200.112 512.359 198.8V179.696C512.359 179.344 512.487 179.04 512.743 178.784C512.999 178.528 513.303 178.4 513.655 178.4H523.687C524.039 178.4 524.343 178.528 524.599 178.784C524.855 179.04 524.983 179.344 524.983 179.696V198.032C524.983 202.992 523.399 206.64 520.231 208.976C517.095 211.312 512.839 212.48 507.463 212.48ZM550.884 190.592C554.404 190.976 557.22 191.6 559.332 192.464C561.476 193.328 563.028 194.464 563.988 195.872C564.948 197.28 565.428 199.04 565.428 201.152C565.428 203.456 564.676 205.472 563.172 207.2C561.7 208.896 559.652 210.208 557.028 211.136C554.404 212.032 551.412 212.48 548.052 212.48C544.308 212.48 541.14 212.016 538.548 211.088C535.956 210.16 534.02 208.928 532.74 207.392C531.46 205.824 530.82 204.112 530.82 202.256C530.82 201.936 530.916 201.68 531.108 201.488C531.332 201.296 531.604 201.2 531.924 201.2H541.764C542.436 201.2 542.98 201.408 543.396 201.824C543.94 202.336 544.548 202.688 545.22 202.88C545.892 203.04 546.836 203.12 548.052 203.12C551.092 203.12 552.612 202.656 552.612 201.728C552.612 201.344 552.404 201.024 551.988 200.768C551.604 200.48 550.9 200.24 549.876 200.048C548.884 199.824 547.412 199.6 545.46 199.376C541.076 198.864 537.716 197.776 535.38 196.112C533.044 194.416 531.876 192.032 531.876 188.96C531.876 186.784 532.532 184.864 533.844 183.2C535.156 181.536 537.012 180.24 539.412 179.312C541.844 178.384 544.66 177.92 547.86 177.92C551.188 177.92 554.1 178.448 556.596 179.504C559.092 180.528 560.996 181.808 562.308 183.344C563.62 184.88 564.276 186.384 564.276 187.856C564.276 188.176 564.164 188.432 563.94 188.624C563.748 188.816 563.476 188.912 563.124 188.912H552.804C552.26 188.912 551.764 188.72 551.316 188.336C550.964 188.016 550.548 187.76 550.068 187.568C549.588 187.376 548.852 187.28 547.86 187.28C545.716 187.28 544.644 187.728 544.644 188.624C544.644 189.104 545.06 189.488 545.892 189.776C546.724 190.032 548.388 190.304 550.884 190.592ZM605.585 178.4C605.937 178.4 606.241 178.528 606.497 178.784C606.753 179.04 606.881 179.344 606.881 179.696V187.424C606.881 187.776 606.753 188.08 606.497 188.336C606.241 188.592 605.937 188.72 605.585 188.72H595.265V210.704C595.265 211.056 595.137 211.36 594.881 211.616C594.625 211.872 594.321 212 593.969 212H584.081C583.729 212 583.425 211.872 583.169 211.616C582.913 211.36 582.785 211.056 582.785 210.704V188.72H572.465C572.113 188.72 571.809 188.592 571.553 188.336C571.297 188.08 571.169 187.776 571.169 187.424V179.696C571.169 179.344 571.297 179.04 571.553 178.784C571.809 178.528 572.113 178.4 572.465 178.4H605.585ZM666.172 199.04C666.172 200.352 666.604 201.36 667.468 202.064C668.364 202.768 669.564 203.12 671.068 203.12C672.412 203.12 673.404 202.896 674.044 202.448C674.684 202 675.228 201.328 675.676 200.432C676.092 199.6 676.652 199.184 677.356 199.184H687.724C688.012 199.184 688.252 199.296 688.444 199.52C688.668 199.712 688.78 199.952 688.78 200.24C688.78 202.192 688.124 204.112 686.812 206C685.5 207.856 683.5 209.408 680.812 210.656C678.156 211.872 674.908 212.48 671.068 212.48C667.644 212.48 664.588 211.968 661.9 210.944C659.244 209.888 657.132 208.288 655.564 206.144C653.996 203.968 653.212 201.264 653.212 198.032V192.368C653.212 189.136 653.996 186.448 655.564 184.304C657.132 182.128 659.244 180.528 661.9 179.504C664.588 178.448 667.644 177.92 671.068 177.92C674.908 177.92 678.156 178.544 680.812 179.792C683.5 181.008 685.5 182.56 686.812 184.448C688.124 186.304 688.78 188.208 688.78 190.16C688.78 190.448 688.668 190.704 688.444 190.928C688.252 191.12 688.012 191.216 687.724 191.216H677.356C676.652 191.216 676.092 190.8 675.676 189.968C675.228 189.072 674.684 188.4 674.044 187.952C673.404 187.504 672.412 187.28 671.068 187.28C669.564 187.28 668.364 187.632 667.468 188.336C666.604 189.04 666.172 190.048 666.172 191.36V199.04ZM704.457 210.368C704.041 211.456 703.321 212 702.297 212H693.225C692.937 212 692.681 211.904 692.457 211.712C692.265 211.488 692.169 211.232 692.169 210.944L692.217 210.656L702.681 179.984C702.809 179.568 703.049 179.2 703.401 178.88C703.753 178.56 704.233 178.4 704.841 178.4H718.185C718.793 178.4 719.273 178.56 719.625 178.88C719.977 179.2 720.217 179.568 720.345 179.984L730.809 210.656L730.857 210.944C730.857 211.232 730.745 211.488 730.521 211.712C730.329 211.904 730.089 212 729.801 212H720.729C719.705 212 718.985 211.456 718.569 210.368L717.369 207.008H705.657L704.457 210.368ZM711.513 187.664L708.105 197.648H714.921L711.513 187.664ZM758.438 179.696C758.918 178.832 759.606 178.4 760.502 178.4H769.286C769.638 178.4 769.942 178.528 770.198 178.784C770.454 179.04 770.582 179.344 770.582 179.696V210.704C770.582 211.056 770.454 211.36 770.198 211.616C769.942 211.872 769.638 212 769.286 212H760.598C760.246 212 759.942 211.872 759.686 211.616C759.43 211.36 759.302 211.056 759.302 210.704V195.824L755.798 202.736C755.702 202.96 755.478 203.216 755.126 203.504C754.774 203.792 754.326 203.936 753.782 203.936H750.518C749.974 203.936 749.526 203.792 749.174 203.504C748.822 203.216 748.598 202.96 748.502 202.736L744.998 195.824V210.704C744.998 211.056 744.87 211.36 744.614 211.616C744.358 211.872 744.054 212 743.702 212H735.014C734.662 212 734.358 211.872 734.102 211.616C733.846 211.36 733.718 211.056 733.718 210.704V179.696C733.718 179.344 733.846 179.04 734.102 178.784C734.358 178.528 734.662 178.4 735.014 178.4H743.798C744.694 178.4 745.382 178.832 745.862 179.696L752.15 191.216L758.438 179.696ZM808.483 202.64C808.835 202.64 809.139 202.768 809.395 203.024C809.651 203.28 809.779 203.584 809.779 203.936V210.704C809.779 211.056 809.651 211.36 809.395 211.616C809.139 211.872 808.835 212 808.483 212H778.147C777.795 212 777.491 211.872 777.235 211.616C776.979 211.36 776.851 211.056 776.851 210.704V179.696C776.851 179.344 776.979 179.04 777.235 178.784C777.491 178.528 777.795 178.4 778.147 178.4H808.003C808.355 178.4 808.659 178.528 808.915 178.784C809.171 179.04 809.299 179.344 809.299 179.696V186.464C809.299 186.816 809.171 187.12 808.915 187.376C808.659 187.632 808.355 187.76 808.003 187.76H789.331V190.784H805.363C805.715 190.784 806.019 190.912 806.275 191.168C806.531 191.424 806.659 191.728 806.659 192.08V198.32C806.659 198.672 806.531 198.976 806.275 199.232C806.019 199.488 805.715 199.616 805.363 199.616H789.331V202.64H808.483ZM79.2594 271.48C73.8834 271.48 69.6114 270.312 66.4434 267.976C63.3074 265.64 61.7394 261.992 61.7394 257.032V238.696C61.7394 238.344 61.8674 238.04 62.1234 237.784C62.3794 237.528 62.6834 237.4 63.0354 237.4H73.0674C73.4194 237.4 73.7234 237.528 73.9794 237.784C74.2354 238.04 74.3634 238.344 74.3634 238.696V257.8C74.3634 259.112 74.7954 260.12 75.6594 260.824C76.5554 261.528 77.7554 261.88 79.2594 261.88C80.7634 261.88 81.9474 261.528 82.8114 260.824C83.7074 260.12 84.1554 259.112 84.1554 257.8V238.696C84.1554 238.344 84.2834 238.04 84.5394 237.784C84.7954 237.528 85.0994 237.4 85.4514 237.4H95.4834C95.8354 237.4 96.1394 237.528 96.3954 237.784C96.6514 238.04 96.7794 238.344 96.7794 238.696V257.032C96.7794 261.992 95.1954 265.64 92.0274 267.976C88.8914 270.312 84.6354 271.48 79.2594 271.48ZM124.937 237.4C127.945 237.4 130.569 237.912 132.809 238.936C135.049 239.96 136.761 241.352 137.945 243.112C139.129 244.872 139.721 246.84 139.721 249.016C139.721 252.6 138.601 255.416 136.361 257.464C134.121 259.48 130.313 260.488 124.937 260.488H118.601V269.704C118.601 270.056 118.473 270.36 118.217 270.616C117.961 270.872 117.657 271 117.305 271H106.985C106.633 271 106.329 270.872 106.073 270.616C105.817 270.36 105.689 270.056 105.689 269.704V238.696C105.689 238.344 105.817 238.04 106.073 237.784C106.329 237.528 106.633 237.4 106.985 237.4H124.937ZM124.745 251.608C125.513 251.608 126.121 251.384 126.569 250.936C127.017 250.456 127.241 249.832 127.241 249.064C127.241 248.264 127.017 247.608 126.569 247.096C126.121 246.584 125.513 246.328 124.745 246.328H118.649V251.608H124.745ZM197.379 269.704C197.283 269.992 197.043 270.28 196.659 270.568C196.307 270.856 195.843 271 195.267 271H188.547C187.939 271 187.427 270.824 187.011 270.472C186.627 270.088 186.403 269.656 186.339 269.176L182.163 238.6V238.456C182.163 238.168 182.259 237.928 182.451 237.736C182.675 237.512 182.931 237.4 183.219 237.4H191.475C192.115 237.4 192.627 237.592 193.011 237.976C193.427 238.36 193.667 238.84 193.731 239.416L195.267 254.104L198.051 246.472C198.147 246.152 198.371 245.848 198.723 245.56C199.107 245.24 199.587 245.08 200.163 245.08H203.427C204.003 245.08 204.467 245.24 204.819 245.56C205.203 245.848 205.443 246.152 205.539 246.472L208.323 254.104L209.859 239.416C209.923 238.84 210.147 238.36 210.531 237.976C210.947 237.592 211.475 237.4 212.115 237.4H220.371C220.659 237.4 220.899 237.512 221.091 237.736C221.315 237.928 221.427 238.168 221.427 238.456V238.6L217.251 269.176C217.187 269.656 216.947 270.088 216.531 270.472C216.147 270.824 215.651 271 215.043 271H208.323C207.747 271 207.267 270.856 206.883 270.568C206.531 270.28 206.307 269.992 206.211 269.704L201.795 259.576L197.379 269.704ZM248.912 261.16H257.6C257.952 261.16 258.256 261.288 258.512 261.544C258.768 261.8 258.896 262.104 258.896 262.456V269.704C258.896 270.056 258.768 270.36 258.512 270.616C258.256 270.872 257.952 271 257.6 271H227.168C226.816 271 226.512 270.872 226.256 270.616C226 270.36 225.872 270.056 225.872 269.704V262.456C225.872 262.104 226 261.8 226.256 261.544C226.512 261.288 226.816 261.16 227.168 261.16H235.952V247.24H227.168C226.816 247.24 226.512 247.112 226.256 246.856C226 246.6 225.872 246.296 225.872 245.944V238.696C225.872 238.344 226 238.04 226.256 237.784C226.512 237.528 226.816 237.4 227.168 237.4H257.6C257.952 237.4 258.256 237.528 258.512 237.784C258.768 238.04 258.896 238.344 258.896 238.696V245.944C258.896 246.296 258.768 246.6 258.512 246.856C258.256 247.112 257.952 247.24 257.6 247.24H248.912V261.16ZM299.726 237.4C300.078 237.4 300.382 237.528 300.638 237.784C300.894 238.04 301.022 238.344 301.022 238.696V246.424C301.022 246.776 300.894 247.08 300.638 247.336C300.382 247.592 300.078 247.72 299.726 247.72H289.406V269.704C289.406 270.056 289.278 270.36 289.022 270.616C288.766 270.872 288.462 271 288.11 271H278.222C277.87 271 277.566 270.872 277.31 270.616C277.054 270.36 276.926 270.056 276.926 269.704V247.72H266.606C266.254 247.72 265.95 247.592 265.694 247.336C265.438 247.08 265.31 246.776 265.31 246.424V238.696C265.31 238.344 265.438 238.04 265.694 237.784C265.95 237.528 266.254 237.4 266.606 237.4H299.726ZM339.931 237.4C340.283 237.4 340.587 237.528 340.843 237.784C341.099 238.04 341.227 238.344 341.227 238.696V269.704C341.227 270.056 341.099 270.36 340.843 270.616C340.587 270.872 340.283 271 339.931 271H330.043C329.691 271 329.387 270.872 329.131 270.616C328.875 270.36 328.747 270.056 328.747 269.704V259.48H319.147V269.704C319.147 270.056 319.019 270.36 318.763 270.616C318.507 270.872 318.203 271 317.851 271H307.963C307.611 271 307.307 270.888 307.051 270.664C306.795 270.408 306.667 270.088 306.667 269.704V238.696C306.667 238.344 306.795 238.04 307.051 237.784C307.307 237.528 307.611 237.4 307.963 237.4H317.851C318.203 237.4 318.507 237.528 318.763 237.784C319.019 238.04 319.147 238.344 319.147 238.696V248.536H328.747V238.696C328.747 238.344 328.875 238.04 329.131 237.784C329.387 237.528 329.691 237.4 330.043 237.4H339.931ZM422.069 237.4C422.421 237.4 422.725 237.528 422.981 237.784C423.237 238.04 423.365 238.344 423.365 238.696V246.424C423.365 246.776 423.237 247.08 422.981 247.336C422.725 247.592 422.421 247.72 422.069 247.72H411.749V269.704C411.749 270.056 411.621 270.36 411.365 270.616C411.109 270.872 410.805 271 410.453 271H400.565C400.213 271 399.909 270.872 399.653 270.616C399.397 270.36 399.269 270.056 399.269 269.704V247.72H388.949C388.597 247.72 388.293 247.592 388.037 247.336C387.781 247.08 387.653 246.776 387.653 246.424V238.696C387.653 238.344 387.781 238.04 388.037 237.784C388.293 237.528 388.597 237.4 388.949 237.4H422.069ZM462.275 237.4C462.627 237.4 462.931 237.528 463.187 237.784C463.443 238.04 463.571 238.344 463.571 238.696V269.704C463.571 270.056 463.443 270.36 463.187 270.616C462.931 270.872 462.627 271 462.275 271H452.387C452.035 271 451.731 270.872 451.475 270.616C451.219 270.36 451.091 270.056 451.091 269.704V259.48H441.491V269.704C441.491 270.056 441.363 270.36 441.107 270.616C440.851 270.872 440.547 271 440.195 271H430.307C429.955 271 429.651 270.888 429.395 270.664C429.139 270.408 429.011 270.088 429.011 269.704V238.696C429.011 238.344 429.139 238.04 429.395 237.784C429.651 237.528 429.955 237.4 430.307 237.4H440.195C440.547 237.4 440.851 237.528 441.107 237.784C441.363 238.04 441.491 238.344 441.491 238.696V248.536H451.091V238.696C451.091 238.344 451.219 238.04 451.475 237.784C451.731 237.528 452.035 237.4 452.387 237.4H462.275ZM502.624 261.64C502.976 261.64 503.28 261.768 503.536 262.024C503.792 262.28 503.92 262.584 503.92 262.936V269.704C503.92 270.056 503.792 270.36 503.536 270.616C503.28 270.872 502.976 271 502.624 271H472.288C471.936 271 471.632 270.872 471.376 270.616C471.12 270.36 470.992 270.056 470.992 269.704V238.696C470.992 238.344 471.12 238.04 471.376 237.784C471.632 237.528 471.936 237.4 472.288 237.4H502.144C502.496 237.4 502.8 237.528 503.056 237.784C503.312 238.04 503.44 238.344 503.44 238.696V245.464C503.44 245.816 503.312 246.12 503.056 246.376C502.8 246.632 502.496 246.76 502.144 246.76H483.472V249.784H499.504C499.856 249.784 500.16 249.912 500.416 250.168C500.672 250.424 500.8 250.728 500.8 251.08V257.32C500.8 257.672 500.672 257.976 500.416 258.232C500.16 258.488 499.856 258.616 499.504 258.616H483.472V261.64H502.624ZM585.914 250.744C586.266 250.744 586.57 250.872 586.826 251.128C587.082 251.384 587.21 251.688 587.21 252.04V257.128C587.21 261.992 585.546 265.608 582.218 267.976C578.922 270.312 574.554 271.48 569.114 271.48C563.674 271.48 559.29 270.312 555.962 267.976C552.666 265.608 551.018 261.96 551.018 257.032V251.368C551.018 248.104 551.818 245.4 553.418 243.256C555.018 241.08 557.178 239.48 559.898 238.456C562.618 237.432 565.69 236.92 569.114 236.92C573.21 236.92 576.586 237.592 579.242 238.936C581.898 240.28 583.818 241.8 585.002 243.496C586.218 245.192 586.826 246.568 586.826 247.624C586.826 247.912 586.714 248.168 586.49 248.392C586.298 248.584 586.058 248.68 585.77 248.68H574.922C574.282 248.68 573.818 248.504 573.53 248.152C572.538 246.904 571.066 246.28 569.114 246.28C567.642 246.28 566.41 246.616 565.418 247.288C564.458 247.96 563.978 248.824 563.978 249.88V258.04C563.978 259.32 564.458 260.328 565.418 261.064C566.378 261.768 567.61 262.12 569.114 262.12C571.098 262.12 572.554 261.784 573.482 261.112C574.442 260.408 574.938 259.592 574.97 258.664H571.994C571.642 258.664 571.338 258.536 571.082 258.28C570.826 258.024 570.698 257.72 570.698 257.368V252.04C570.698 251.688 570.826 251.384 571.082 251.128C571.338 250.872 571.642 250.744 571.994 250.744H585.914ZM628.472 269.512C628.536 269.64 628.568 269.784 628.568 269.944C628.568 270.232 628.456 270.488 628.232 270.712C628.04 270.904 627.8 271 627.512 271H616.616C616.168 271 615.752 270.888 615.368 270.664C615.016 270.44 614.76 270.152 614.6 269.8L610.376 260.296H606.344V269.704C606.344 270.056 606.216 270.36 605.96 270.616C605.704 270.872 605.4 271 605.048 271H594.68C594.328 271 594.024 270.872 593.768 270.616C593.512 270.36 593.384 270.056 593.384 269.704V238.696C593.384 238.344 593.512 238.04 593.768 237.784C594.024 237.528 594.328 237.4 594.68 237.4H613.352C616.232 237.4 618.744 237.864 620.888 238.792C623.064 239.72 624.728 241.064 625.88 242.824C627.032 244.584 627.608 246.648 627.608 249.016C627.608 253.368 625.928 256.52 622.568 258.472L628.472 269.512ZM612.344 251.416C613.048 251.416 613.592 251.192 613.976 250.744C614.36 250.264 614.552 249.672 614.552 248.968C614.552 248.264 614.36 247.656 613.976 247.144C613.624 246.6 613.08 246.328 612.344 246.328H606.344V251.416H612.344ZM665.749 261.64C666.101 261.64 666.405 261.768 666.661 262.024C666.917 262.28 667.045 262.584 667.045 262.936V269.704C667.045 270.056 666.917 270.36 666.661 270.616C666.405 270.872 666.101 271 665.749 271H635.413C635.061 271 634.757 270.872 634.501 270.616C634.245 270.36 634.117 270.056 634.117 269.704V238.696C634.117 238.344 634.245 238.04 634.501 237.784C634.757 237.528 635.061 237.4 635.413 237.4H665.269C665.621 237.4 665.925 237.528 666.181 237.784C666.437 238.04 666.565 238.344 666.565 238.696V245.464C666.565 245.816 666.437 246.12 666.181 246.376C665.925 246.632 665.621 246.76 665.269 246.76H646.597V249.784H662.629C662.981 249.784 663.285 249.912 663.541 250.168C663.797 250.424 663.925 250.728 663.925 251.08V257.32C663.925 257.672 663.797 257.976 663.541 258.232C663.285 258.488 662.981 258.616 662.629 258.616H646.597V261.64H665.749ZM684.066 269.368C683.65 270.456 682.93 271 681.906 271H672.834C672.546 271 672.29 270.904 672.066 270.712C671.874 270.488 671.778 270.232 671.778 269.944L671.826 269.656L682.29 238.984C682.418 238.568 682.658 238.2 683.01 237.88C683.362 237.56 683.842 237.4 684.45 237.4H697.794C698.402 237.4 698.882 237.56 699.234 237.88C699.586 238.2 699.826 238.568 699.954 238.984L710.418 269.656L710.466 269.944C710.466 270.232 710.354 270.488 710.13 270.712C709.938 270.904 709.698 271 709.41 271H700.338C699.314 271 698.594 270.456 698.178 269.368L696.978 266.008H685.266L684.066 269.368ZM691.122 246.664L687.714 256.648H694.53L691.122 246.664ZM748.319 237.4C748.671 237.4 748.975 237.528 749.231 237.784C749.487 238.04 749.615 238.344 749.615 238.696V246.424C749.615 246.776 749.487 247.08 749.231 247.336C748.975 247.592 748.671 247.72 748.319 247.72H737.999V269.704C737.999 270.056 737.871 270.36 737.615 270.616C737.359 270.872 737.055 271 736.703 271H726.815C726.463 271 726.159 270.872 725.903 270.616C725.647 270.36 725.519 270.056 725.519 269.704V247.72H715.199C714.847 247.72 714.543 247.592 714.287 247.336C714.031 247.08 713.903 246.776 713.903 246.424V238.696C713.903 238.344 714.031 238.04 714.287 237.784C714.543 237.528 714.847 237.4 715.199 237.4H748.319ZM65.3968 320.16H74.0848C74.4368 320.16 74.7408 320.288 74.9968 320.544C75.2528 320.8 75.3808 321.104 75.3808 321.456V328.704C75.3808 329.056 75.2528 329.36 74.9968 329.616C74.7408 329.872 74.4368 330 74.0848 330H43.6528C43.3008 330 42.9968 329.872 42.7408 329.616C42.4848 329.36 42.3568 329.056 42.3568 328.704V321.456C42.3568 321.104 42.4848 320.8 42.7408 320.544C42.9968 320.288 43.3008 320.16 43.6528 320.16H52.4368V306.24H43.6528C43.3008 306.24 42.9968 306.112 42.7408 305.856C42.4848 305.6 42.3568 305.296 42.3568 304.944V297.696C42.3568 297.344 42.4848 297.04 42.7408 296.784C42.9968 296.528 43.3008 296.4 43.6528 296.4H74.0848C74.4368 296.4 74.7408 296.528 74.9968 296.784C75.2528 297.04 75.3808 297.344 75.3808 297.696V304.944C75.3808 305.296 75.2528 305.6 74.9968 305.856C74.7408 306.112 74.4368 306.24 74.0848 306.24H65.3968V320.16ZM99.506 296.4C104.914 296.4 109.234 297.568 112.466 299.904C115.73 302.24 117.362 305.856 117.362 310.752V315.648C117.362 320.64 115.746 324.288 112.514 326.592C109.314 328.864 104.978 330 99.506 330H84.194C83.842 330 83.538 329.872 83.282 329.616C83.026 329.36 82.898 329.056 82.898 328.704V297.696C82.898 297.344 83.026 297.04 83.282 296.784C83.538 296.528 83.842 296.4 84.194 296.4H99.506ZM99.746 320.64C101.25 320.64 102.434 320.288 103.298 319.584C104.194 318.848 104.642 317.824 104.642 316.512V309.888C104.642 308.576 104.194 307.568 103.298 306.864C102.434 306.128 101.25 305.76 99.746 305.76H95.378V320.64H99.746ZM155.983 320.64C156.335 320.64 156.639 320.768 156.895 321.024C157.151 321.28 157.279 321.584 157.279 321.936V328.704C157.279 329.056 157.151 329.36 156.895 329.616C156.639 329.872 156.335 330 155.983 330H125.647C125.295 330 124.991 329.872 124.735 329.616C124.479 329.36 124.351 329.056 124.351 328.704V297.696C124.351 297.344 124.479 297.04 124.735 296.784C124.991 296.528 125.295 296.4 125.647 296.4H155.503C155.855 296.4 156.159 296.528 156.415 296.784C156.671 297.04 156.799 297.344 156.799 297.696V304.464C156.799 304.816 156.671 305.12 156.415 305.376C156.159 305.632 155.855 305.76 155.503 305.76H136.831V308.784H152.863C153.215 308.784 153.519 308.912 153.775 309.168C154.031 309.424 154.159 309.728 154.159 310.08V316.32C154.159 316.672 154.031 316.976 153.775 317.232C153.519 317.488 153.215 317.616 152.863 317.616H136.831V320.64H155.983ZM174.301 328.368C173.885 329.456 173.165 330 172.141 330H163.069C162.781 330 162.525 329.904 162.301 329.712C162.109 329.488 162.013 329.232 162.013 328.944L162.061 328.656L172.525 297.984C172.653 297.568 172.893 297.2 173.245 296.88C173.597 296.56 174.077 296.4 174.685 296.4H188.029C188.637 296.4 189.117 296.56 189.469 296.88C189.821 297.2 190.061 297.568 190.189 297.984L200.653 328.656L200.701 328.944C200.701 329.232 200.589 329.488 200.365 329.712C200.173 329.904 199.933 330 199.645 330H190.573C189.549 330 188.829 329.456 188.413 328.368L187.213 325.008H175.501L174.301 328.368ZM181.357 305.664L177.949 315.648H184.765L181.357 305.664ZM280.631 316.128C280.631 321.024 278.999 324.64 275.735 326.976C272.503 329.312 268.183 330.48 262.775 330.48C257.367 330.48 253.031 329.312 249.767 326.976C246.535 324.64 244.919 320.992 244.919 316.032V310.368C244.919 307.104 245.687 304.4 247.223 302.256C248.791 300.08 250.919 298.48 253.607 297.456C256.295 296.432 259.351 295.92 262.775 295.92C266.199 295.92 269.239 296.432 271.895 297.456C274.583 298.48 276.711 300.064 278.279 302.208C279.847 304.352 280.631 307.04 280.631 310.272V316.128ZM257.879 317.04C257.879 318.352 258.311 319.36 259.175 320.064C260.071 320.768 261.271 321.12 262.775 321.12C264.279 321.12 265.463 320.768 266.327 320.064C267.223 319.328 267.671 318.304 267.671 316.992V309.408C267.671 308.096 267.223 307.088 266.327 306.384C265.463 305.648 264.279 305.28 262.775 305.28C261.271 305.28 260.071 305.632 259.175 306.336C258.311 307.04 257.879 308.048 257.879 309.36V317.04ZM319.78 296.4C320.132 296.4 320.436 296.528 320.692 296.784C320.948 297.04 321.076 297.344 321.076 297.696V304.992C321.076 305.344 320.948 305.648 320.692 305.904C320.436 306.16 320.132 306.288 319.78 306.288H300.916V309.36H316.66C317.012 309.36 317.316 309.488 317.572 309.744C317.828 310 317.956 310.304 317.956 310.656V317.904C317.956 318.256 317.828 318.56 317.572 318.816C317.316 319.072 317.012 319.2 316.66 319.2H300.916V328.704C300.916 329.056 300.788 329.36 300.532 329.616C300.276 329.872 299.972 330 299.62 330H289.252C288.9 330 288.596 329.872 288.34 329.616C288.084 329.36 287.956 329.056 287.956 328.704V297.696C287.956 297.344 288.084 297.04 288.34 296.784C288.596 296.528 288.9 296.4 289.252 296.4H319.78ZM387.759 308.592C391.279 308.976 394.095 309.6 396.207 310.464C398.351 311.328 399.903 312.464 400.863 313.872C401.823 315.28 402.303 317.04 402.303 319.152C402.303 321.456 401.551 323.472 400.047 325.2C398.575 326.896 396.527 328.208 393.903 329.136C391.279 330.032 388.287 330.48 384.927 330.48C381.183 330.48 378.015 330.016 375.423 329.088C372.831 328.16 370.895 326.928 369.615 325.392C368.335 323.824 367.695 322.112 367.695 320.256C367.695 319.936 367.791 319.68 367.983 319.488C368.207 319.296 368.479 319.2 368.799 319.2H378.639C379.311 319.2 379.855 319.408 380.271 319.824C380.815 320.336 381.423 320.688 382.095 320.88C382.767 321.04 383.711 321.12 384.927 321.12C387.967 321.12 389.487 320.656 389.487 319.728C389.487 319.344 389.279 319.024 388.863 318.768C388.479 318.48 387.775 318.24 386.751 318.048C385.759 317.824 384.287 317.6 382.335 317.376C377.951 316.864 374.591 315.776 372.255 314.112C369.919 312.416 368.751 310.032 368.751 306.96C368.751 304.784 369.407 302.864 370.719 301.2C372.031 299.536 373.887 298.24 376.287 297.312C378.719 296.384 381.535 295.92 384.735 295.92C388.063 295.92 390.975 296.448 393.471 297.504C395.967 298.528 397.871 299.808 399.183 301.344C400.495 302.88 401.151 304.384 401.151 305.856C401.151 306.176 401.039 306.432 400.815 306.624C400.623 306.816 400.351 306.912 399.999 306.912H389.679C389.135 306.912 388.639 306.72 388.191 306.336C387.839 306.016 387.423 305.76 386.943 305.568C386.463 305.376 385.727 305.28 384.735 305.28C382.591 305.28 381.519 305.728 381.519 306.624C381.519 307.104 381.935 307.488 382.767 307.776C383.599 308.032 385.263 308.304 387.759 308.592ZM442.46 296.4C442.812 296.4 443.116 296.528 443.372 296.784C443.628 297.04 443.756 297.344 443.756 297.696V305.424C443.756 305.776 443.628 306.08 443.372 306.336C443.116 306.592 442.812 306.72 442.46 306.72H432.14V328.704C432.14 329.056 432.012 329.36 431.756 329.616C431.5 329.872 431.196 330 430.844 330H420.956C420.604 330 420.3 329.872 420.044 329.616C419.788 329.36 419.66 329.056 419.66 328.704V306.72H409.34C408.988 306.72 408.684 306.592 408.428 306.336C408.172 306.08 408.044 305.776 408.044 305.424V297.696C408.044 297.344 408.172 297.04 408.428 296.784C408.684 296.528 408.988 296.4 409.34 296.4H442.46ZM459.769 328.368C459.353 329.456 458.633 330 457.609 330H448.537C448.249 330 447.993 329.904 447.769 329.712C447.577 329.488 447.481 329.232 447.481 328.944L447.529 328.656L457.993 297.984C458.121 297.568 458.361 297.2 458.713 296.88C459.065 296.56 459.545 296.4 460.153 296.4H473.497C474.105 296.4 474.585 296.56 474.937 296.88C475.289 297.2 475.529 297.568 475.657 297.984L486.121 328.656L486.169 328.944C486.169 329.232 486.057 329.488 485.833 329.712C485.641 329.904 485.401 330 485.113 330H476.041C475.017 330 474.297 329.456 473.881 328.368L472.681 325.008H460.969L459.769 328.368ZM466.825 305.664L463.417 315.648H470.233L466.825 305.664ZM526.519 328.512C526.583 328.64 526.615 328.784 526.615 328.944C526.615 329.232 526.503 329.488 526.279 329.712C526.087 329.904 525.847 330 525.559 330H514.663C514.215 330 513.799 329.888 513.415 329.664C513.063 329.44 512.807 329.152 512.647 328.8L508.423 319.296H504.391V328.704C504.391 329.056 504.263 329.36 504.007 329.616C503.751 329.872 503.447 330 503.095 330H492.727C492.375 330 492.071 329.872 491.815 329.616C491.559 329.36 491.431 329.056 491.431 328.704V297.696C491.431 297.344 491.559 297.04 491.815 296.784C492.071 296.528 492.375 296.4 492.727 296.4H511.399C514.279 296.4 516.791 296.864 518.935 297.792C521.111 298.72 522.775 300.064 523.927 301.824C525.079 303.584 525.655 305.648 525.655 308.016C525.655 312.368 523.975 315.52 520.615 317.472L526.519 328.512ZM510.391 310.416C511.095 310.416 511.639 310.192 512.023 309.744C512.407 309.264 512.599 308.672 512.599 307.968C512.599 307.264 512.407 306.656 512.023 306.144C511.671 305.6 511.127 305.328 510.391 305.328H504.391V310.416H510.391ZM564.804 296.4C565.156 296.4 565.46 296.528 565.716 296.784C565.972 297.04 566.1 297.344 566.1 297.696V305.424C566.1 305.776 565.972 306.08 565.716 306.336C565.46 306.592 565.156 306.72 564.804 306.72H554.484V328.704C554.484 329.056 554.356 329.36 554.1 329.616C553.844 329.872 553.54 330 553.188 330H543.3C542.948 330 542.644 329.872 542.388 329.616C542.132 329.36 542.004 329.056 542.004 328.704V306.72H531.684C531.332 306.72 531.028 306.592 530.772 306.336C530.516 306.08 530.388 305.776 530.388 305.424V297.696C530.388 297.344 530.516 297.04 530.772 296.784C531.028 296.528 531.332 296.4 531.684 296.4H564.804ZM595.553 320.16H604.241C604.593 320.16 604.897 320.288 605.153 320.544C605.409 320.8 605.537 321.104 605.537 321.456V328.704C605.537 329.056 605.409 329.36 605.153 329.616C604.897 329.872 604.593 330 604.241 330H573.809C573.457 330 573.153 329.872 572.897 329.616C572.641 329.36 572.513 329.056 572.513 328.704V321.456C572.513 321.104 572.641 320.8 572.897 320.544C573.153 320.288 573.457 320.16 573.809 320.16H582.593V306.24H573.809C573.457 306.24 573.153 306.112 572.897 305.856C572.641 305.6 572.513 305.296 572.513 304.944V297.696C572.513 297.344 572.641 297.04 572.897 296.784C573.153 296.528 573.457 296.4 573.809 296.4H604.241C604.593 296.4 604.897 296.528 605.153 296.784C605.409 297.04 605.537 297.344 605.537 297.696V304.944C605.537 305.296 605.409 305.6 605.153 305.856C604.897 306.112 604.593 306.24 604.241 306.24H595.553V320.16ZM644.83 296.4C645.182 296.4 645.486 296.528 645.742 296.784C645.998 297.04 646.126 297.344 646.126 297.696V328.704C646.126 329.056 645.998 329.36 645.742 329.616C645.486 329.872 645.182 330 644.83 330H637.102C636.334 330 635.694 329.664 635.182 328.992L624.718 315.648V328.704C624.718 329.056 624.59 329.36 624.334 329.616C624.078 329.872 623.774 330 623.422 330H614.494C614.142 330 613.838 329.872 613.582 329.616C613.326 329.36 613.198 329.056 613.198 328.704V297.696C613.198 297.344 613.326 297.04 613.582 296.784C613.838 296.528 614.142 296.4 614.494 296.4H622.27C623.038 296.4 623.662 296.72 624.142 297.36L634.606 311.808V297.696C634.606 297.344 634.734 297.04 634.99 296.784C635.246 296.528 635.55 296.4 635.902 296.4H644.83ZM687.868 309.744C688.22 309.744 688.524 309.872 688.78 310.128C689.036 310.384 689.164 310.688 689.164 311.04V316.128C689.164 320.992 687.5 324.608 684.172 326.976C680.876 329.312 676.508 330.48 671.068 330.48C665.628 330.48 661.244 329.312 657.916 326.976C654.62 324.608 652.972 320.96 652.972 316.032V310.368C652.972 307.104 653.772 304.4 655.372 302.256C656.972 300.08 659.132 298.48 661.852 297.456C664.572 296.432 667.644 295.92 671.068 295.92C675.164 295.92 678.54 296.592 681.196 297.936C683.852 299.28 685.772 300.8 686.956 302.496C688.172 304.192 688.78 305.568 688.78 306.624C688.78 306.912 688.668 307.168 688.444 307.392C688.252 307.584 688.012 307.68 687.724 307.68H676.876C676.236 307.68 675.772 307.504 675.484 307.152C674.492 305.904 673.02 305.28 671.068 305.28C669.596 305.28 668.364 305.616 667.372 306.288C666.412 306.96 665.932 307.824 665.932 308.88V317.04C665.932 318.32 666.412 319.328 667.372 320.064C668.332 320.768 669.564 321.12 671.068 321.12C673.052 321.12 674.508 320.784 675.436 320.112C676.396 319.408 676.892 318.592 676.924 317.664H673.948C673.596 317.664 673.292 317.536 673.036 317.28C672.78 317.024 672.652 316.72 672.652 316.368V311.04C672.652 310.688 672.78 310.384 673.036 310.128C673.292 309.872 673.596 309.744 673.948 309.744H687.868ZM745.238 328.368C744.822 329.456 744.102 330 743.078 330H734.006C733.718 330 733.462 329.904 733.238 329.712C733.046 329.488 732.95 329.232 732.95 328.944L732.998 328.656L743.462 297.984C743.59 297.568 743.83 297.2 744.182 296.88C744.534 296.56 745.014 296.4 745.622 296.4H758.966C759.574 296.4 760.054 296.56 760.406 296.88C760.758 297.2 760.998 297.568 761.126 297.984L771.59 328.656L771.638 328.944C771.638 329.232 771.526 329.488 771.302 329.712C771.11 329.904 770.87 330 770.582 330H761.51C760.486 330 759.766 329.456 759.35 328.368L758.15 325.008H746.438L745.238 328.368ZM752.294 305.664L748.886 315.648H755.702L752.294 305.664ZM183.853 367.592C187.373 367.976 190.189 368.6 192.301 369.464C194.445 370.328 195.997 371.464 196.957 372.872C197.917 374.28 198.397 376.04 198.397 378.152C198.397 380.456 197.645 382.472 196.141 384.2C194.669 385.896 192.621 387.208 189.997 388.136C187.373 389.032 184.381 389.48 181.021 389.48C177.277 389.48 174.109 389.016 171.517 388.088C168.925 387.16 166.989 385.928 165.709 384.392C164.429 382.824 163.789 381.112 163.789 379.256C163.789 378.936 163.885 378.68 164.077 378.488C164.301 378.296 164.573 378.2 164.893 378.2H174.733C175.405 378.2 175.949 378.408 176.365 378.824C176.909 379.336 177.517 379.688 178.189 379.88C178.861 380.04 179.805 380.12 181.021 380.12C184.061 380.12 185.581 379.656 185.581 378.728C185.581 378.344 185.373 378.024 184.957 377.768C184.573 377.48 183.869 377.24 182.845 377.048C181.853 376.824 180.381 376.6 178.429 376.376C174.045 375.864 170.685 374.776 168.349 373.112C166.013 371.416 164.845 369.032 164.845 365.96C164.845 363.784 165.501 361.864 166.812 360.2C168.125 358.536 169.981 357.24 172.381 356.312C174.813 355.384 177.629 354.92 180.829 354.92C184.157 354.92 187.069 355.448 189.565 356.504C192.061 357.528 193.965 358.808 195.277 360.344C196.589 361.88 197.245 363.384 197.245 364.856C197.245 365.176 197.133 365.432 196.909 365.624C196.717 365.816 196.445 365.912 196.093 365.912H185.773C185.229 365.912 184.733 365.72 184.285 365.336C183.933 365.016 183.517 364.76 183.037 364.568C182.557 364.376 181.821 364.28 180.829 364.28C178.685 364.28 177.613 364.728 177.613 365.624C177.613 366.104 178.029 366.488 178.861 366.776C179.693 367.032 181.357 367.304 183.853 367.592ZM241.818 387.32C241.946 387.512 242.01 387.72 242.01 387.944C242.01 388.232 241.898 388.488 241.674 388.712C241.482 388.904 241.242 389 240.954 389H228.57C227.834 389 227.258 388.744 226.842 388.232L218.49 377.912V387.704C218.49 388.056 218.362 388.36 218.106 388.616C217.85 388.872 217.546 389 217.194 389H207.306C206.954 389 206.65 388.872 206.394 388.616C206.138 388.36 206.01 388.056 206.01 387.704V356.696C206.01 356.344 206.138 356.04 206.394 355.784C206.65 355.528 206.954 355.4 207.306 355.4H217.194C217.546 355.4 217.85 355.528 218.106 355.784C218.362 356.04 218.49 356.344 218.49 356.696V365.72L226.074 356.216C226.554 355.672 227.146 355.4 227.85 355.4H239.418C239.706 355.4 239.946 355.512 240.138 355.736C240.362 355.928 240.474 356.168 240.474 356.456C240.474 356.712 240.394 356.936 240.234 357.128L228.858 371L241.818 387.32ZM255.863 387.368C255.447 388.456 254.727 389 253.703 389H244.631C244.343 389 244.087 388.904 243.863 388.712C243.671 388.488 243.575 388.232 243.575 387.944L243.623 387.656L254.087 356.984C254.215 356.568 254.455 356.2 254.807 355.88C255.159 355.56 255.639 355.4 256.247 355.4H269.591C270.199 355.4 270.679 355.56 271.031 355.88C271.383 356.2 271.623 356.568 271.751 356.984L282.215 387.656L282.263 387.944C282.263 388.232 282.151 388.488 281.927 388.712C281.735 388.904 281.495 389 281.207 389H272.135C271.111 389 270.391 388.456 269.975 387.368L268.775 384.008H257.063L255.863 387.368ZM262.919 364.664L259.511 374.648H266.327L262.919 364.664ZM320.116 355.4C320.468 355.4 320.772 355.528 321.028 355.784C321.284 356.04 321.412 356.344 321.412 356.696V364.424C321.412 364.776 321.284 365.08 321.028 365.336C320.772 365.592 320.468 365.72 320.116 365.72H309.796V387.704C309.796 388.056 309.668 388.36 309.412 388.616C309.156 388.872 308.852 389 308.5 389H298.612C298.26 389 297.956 388.872 297.7 388.616C297.444 388.36 297.316 388.056 297.316 387.704V365.72H286.996C286.644 365.72 286.34 365.592 286.084 365.336C285.828 365.08 285.7 364.776 285.7 364.424V356.696C285.7 356.344 285.828 356.04 286.084 355.784C286.34 355.528 286.644 355.4 286.996 355.4H320.116ZM359.89 379.64C360.242 379.64 360.546 379.768 360.802 380.024C361.058 380.28 361.186 380.584 361.186 380.936V387.704C361.186 388.056 361.058 388.36 360.802 388.616C360.546 388.872 360.242 389 359.89 389H329.554C329.202 389 328.898 388.872 328.642 388.616C328.386 388.36 328.258 388.056 328.258 387.704V356.696C328.258 356.344 328.386 356.04 328.642 355.784C328.898 355.528 329.202 355.4 329.554 355.4H359.41C359.762 355.4 360.066 355.528 360.322 355.784C360.578 356.04 360.706 356.344 360.706 356.696V363.464C360.706 363.816 360.578 364.12 360.322 364.376C360.066 364.632 359.762 364.76 359.41 364.76H340.738V367.784H356.77C357.122 367.784 357.426 367.912 357.682 368.168C357.938 368.424 358.066 368.728 358.066 369.08V375.32C358.066 375.672 357.938 375.976 357.682 376.232C357.426 376.488 357.122 376.616 356.77 376.616H340.738V379.64H359.89ZM380.895 387.704C380.799 387.992 380.559 388.28 380.175 388.568C379.823 388.856 379.359 389 378.783 389H372.063C371.455 389 370.943 388.824 370.527 388.472C370.143 388.088 369.919 387.656 369.855 387.176L365.679 356.6V356.456C365.679 356.168 365.775 355.928 365.967 355.736C366.191 355.512 366.447 355.4 366.735 355.4H374.991C375.631 355.4 376.143 355.592 376.527 355.976C376.943 356.36 377.183 356.84 377.247 357.416L378.783 372.104L381.567 364.472C381.663 364.152 381.887 363.848 382.239 363.56C382.623 363.24 383.103 363.08 383.679 363.08H386.943C387.519 363.08 387.983 363.24 388.335 363.56C388.719 363.848 388.959 364.152 389.055 364.472L391.839 372.104L393.375 357.416C393.439 356.84 393.663 356.36 394.047 355.976C394.463 355.592 394.991 355.4 395.631 355.4H403.887C404.175 355.4 404.415 355.512 404.607 355.736C404.831 355.928 404.943 356.168 404.943 356.456V356.6L400.767 387.176C400.703 387.656 400.463 388.088 400.047 388.472C399.663 388.824 399.167 389 398.559 389H391.839C391.263 389 390.783 388.856 390.399 388.568C390.047 388.28 389.823 387.992 389.727 387.704L385.311 377.576L380.895 387.704ZM441.452 379.64C441.804 379.64 442.108 379.768 442.364 380.024C442.62 380.28 442.748 380.584 442.748 380.936V387.704C442.748 388.056 442.62 388.36 442.364 388.616C442.108 388.872 441.804 389 441.452 389H411.116C410.764 389 410.46 388.872 410.204 388.616C409.948 388.36 409.82 388.056 409.82 387.704V356.696C409.82 356.344 409.948 356.04 410.204 355.784C410.46 355.528 410.764 355.4 411.116 355.4H440.972C441.324 355.4 441.628 355.528 441.884 355.784C442.14 356.04 442.268 356.344 442.268 356.696V363.464C442.268 363.816 442.14 364.12 441.884 364.376C441.628 364.632 441.324 364.76 440.972 364.76H422.3V367.784H438.332C438.684 367.784 438.988 367.912 439.244 368.168C439.5 368.424 439.628 368.728 439.628 369.08V375.32C439.628 375.672 439.5 375.976 439.244 376.232C438.988 376.488 438.684 376.616 438.332 376.616H422.3V379.64H441.452ZM480.409 371.48C481.657 371.864 482.729 372.712 483.625 374.024C484.521 375.304 484.969 376.776 484.969 378.44C484.969 381.992 483.817 384.648 481.513 386.408C479.209 388.136 475.849 389 471.433 389H451.657C451.305 389 451.001 388.872 450.745 388.616C450.489 388.36 450.361 388.056 450.361 387.704V356.696C450.361 356.344 450.489 356.04 450.745 355.784C451.001 355.528 451.305 355.4 451.657 355.4H470.953C475.497 355.4 478.841 356.232 480.985 357.896C483.161 359.528 484.249 362.008 484.249 365.336V365.48C484.249 367.016 483.833 368.328 483.001 369.416C482.169 370.504 481.305 371.192 480.409 371.48ZM471.241 365.768C471.241 365.192 471.065 364.696 470.713 364.28C470.393 363.864 469.913 363.656 469.273 363.656H462.841V368.024H469.273C469.913 368.024 470.393 367.8 470.713 367.352C471.065 366.872 471.241 366.344 471.241 365.768ZM469.801 380.744C470.537 380.744 471.081 380.504 471.433 380.024C471.817 379.512 472.009 378.952 472.009 378.344V378.296C472.009 377.688 471.801 377.16 471.385 376.712C471.001 376.264 470.473 376.04 469.801 376.04H462.841V380.744H469.801ZM510.103 367.592C513.623 367.976 516.439 368.6 518.551 369.464C520.695 370.328 522.247 371.464 523.207 372.872C524.167 374.28 524.647 376.04 524.647 378.152C524.647 380.456 523.895 382.472 522.391 384.2C520.919 385.896 518.871 387.208 516.247 388.136C513.623 389.032 510.631 389.48 507.271 389.48C503.527 389.48 500.359 389.016 497.767 388.088C495.175 387.16 493.239 385.928 491.959 384.392C490.679 382.824 490.039 381.112 490.039 379.256C490.039 378.936 490.135 378.68 490.327 378.488C490.551 378.296 490.823 378.2 491.143 378.2H500.983C501.655 378.2 502.199 378.408 502.615 378.824C503.159 379.336 503.767 379.688 504.439 379.88C505.111 380.04 506.055 380.12 507.271 380.12C510.311 380.12 511.831 379.656 511.831 378.728C511.831 378.344 511.623 378.024 511.207 377.768C510.823 377.48 510.119 377.24 509.095 377.048C508.103 376.824 506.631 376.6 504.679 376.376C500.295 375.864 496.935 374.776 494.599 373.112C492.263 371.416 491.095 369.032 491.095 365.96C491.095 363.784 491.751 361.864 493.062 360.2C494.375 358.536 496.231 357.24 498.631 356.312C501.063 355.384 503.879 354.92 507.079 354.92C510.407 354.92 513.319 355.448 515.815 356.504C518.311 357.528 520.215 358.808 521.527 360.344C522.839 361.88 523.495 363.384 523.495 364.856C523.495 365.176 523.383 365.432 523.159 365.624C522.967 365.816 522.695 365.912 522.343 365.912H512.023C511.479 365.912 510.983 365.72 510.535 365.336C510.183 365.016 509.767 364.76 509.287 364.568C508.807 364.376 508.071 364.28 507.079 364.28C504.935 364.28 503.863 364.728 503.863 365.624C503.863 366.104 504.279 366.488 505.111 366.776C505.943 367.032 507.607 367.304 510.103 367.592ZM564.228 355.4C564.58 355.4 564.884 355.528 565.14 355.784C565.396 356.04 565.524 356.344 565.524 356.696V387.704C565.524 388.056 565.396 388.36 565.14 388.616C564.884 388.872 564.58 389 564.228 389H554.34C553.988 389 553.684 388.872 553.428 388.616C553.172 388.36 553.044 388.056 553.044 387.704V377.48H543.444V387.704C543.444 388.056 543.316 388.36 543.06 388.616C542.804 388.872 542.5 389 542.148 389H532.26C531.908 389 531.604 388.888 531.348 388.664C531.092 388.408 530.964 388.088 530.964 387.704V356.696C530.964 356.344 531.092 356.04 531.348 355.784C531.604 355.528 531.908 355.4 532.26 355.4H542.148C542.5 355.4 542.804 355.528 543.06 355.784C543.316 356.04 543.444 356.344 543.444 356.696V366.536H553.044V356.696C553.044 356.344 553.172 356.04 553.428 355.784C553.684 355.528 553.988 355.4 554.34 355.4H564.228ZM606.881 375.128C606.881 380.024 605.249 383.64 601.985 385.976C598.753 388.312 594.433 389.48 589.025 389.48C583.617 389.48 579.281 388.312 576.017 385.976C572.785 383.64 571.169 379.992 571.169 375.032V369.368C571.169 366.104 571.937 363.4 573.473 361.256C575.041 359.08 577.169 357.48 579.857 356.456C582.545 355.432 585.601 354.92 589.025 354.92C592.449 354.92 595.489 355.432 598.145 356.456C600.833 357.48 602.961 359.064 604.529 361.208C606.097 363.352 606.881 366.04 606.881 369.272V375.128ZM584.129 376.04C584.129 377.352 584.561 378.36 585.425 379.064C586.321 379.768 587.521 380.12 589.025 380.12C590.529 380.12 591.713 379.768 592.577 379.064C593.473 378.328 593.921 377.304 593.921 375.992V368.408C593.921 367.096 593.473 366.088 592.577 365.384C591.713 364.648 590.529 364.28 589.025 364.28C587.521 364.28 586.321 364.632 585.425 365.336C584.561 366.04 584.129 367.048 584.129 368.36V376.04ZM634.702 355.4C637.71 355.4 640.334 355.912 642.574 356.936C644.814 357.96 646.526 359.352 647.71 361.112C648.894 362.872 649.486 364.84 649.486 367.016C649.486 370.6 648.366 373.416 646.126 375.464C643.886 377.48 640.078 378.488 634.702 378.488H628.366V387.704C628.366 388.056 628.238 388.36 627.982 388.616C627.726 388.872 627.422 389 627.07 389H616.75C616.398 389 616.094 388.872 615.838 388.616C615.582 388.36 615.454 388.056 615.454 387.704V356.696C615.454 356.344 615.582 356.04 615.838 355.784C616.094 355.528 616.398 355.4 616.75 355.4H634.702ZM634.51 369.608C635.278 369.608 635.886 369.384 636.334 368.936C636.782 368.456 637.006 367.832 637.006 367.064C637.006 366.264 636.782 365.608 636.334 365.096C635.886 364.584 635.278 364.328 634.51 364.328H628.414V369.608H634.51Z" fill="black"/>
</svg>
