<svg width="1139" height="272" viewBox="0 0 1139 272" fill="none" xmlns="http://www.w3.org/2000/svg">
<path d="M35.7078 21.032C35.7078 25.896 34.1078 29.528 30.9078 31.928C27.7078 34.296 23.4358 35.48 18.0918 35.48C14.2518 35.48 10.9718 34.872 8.25175 33.656C5.56375 32.408 3.53175 30.84 2.15575 28.952C0.81175 27.064 0.13975 25.16 0.13975 23.24C0.13975 22.952 0.23575 22.712 0.42775 22.52C0.65175 22.296 0.90775 22.184 1.19575 22.184H12.0438C12.3318 22.184 12.5718 22.28 12.7638 22.472C12.9878 22.664 13.1478 22.92 13.2438 23.24C13.8518 25.16 15.3878 26.12 17.8518 26.12C19.3558 26.12 20.5398 25.768 21.4038 25.064C22.2998 24.36 22.7478 23.352 22.7478 22.04V11.24H5.22775C4.87575 11.24 4.57175 11.112 4.31575 10.856C4.05975 10.6 3.93175 10.296 3.93175 9.944V2.696C3.93175 2.344 4.05975 2.04 4.31575 1.784C4.57175 1.528 4.87575 1.4 5.22775 1.4H34.4118C34.7638 1.4 35.0678 1.528 35.3238 1.784C35.5798 2.04 35.7078 2.344 35.7078 2.696V21.032ZM60.025 35.48C54.649 35.48 50.377 34.312 47.209 31.976C44.073 29.64 42.505 25.992 42.505 21.032V2.696C42.505 2.344 42.633 2.04 42.889 1.784C43.145 1.528 43.449 1.4 43.801 1.4H53.833C54.185 1.4 54.489 1.528 54.745 1.784C55.001 2.04 55.129 2.344 55.129 2.696V21.8C55.129 23.112 55.561 24.12 56.425 24.824C57.321 25.528 58.521 25.88 60.025 25.88C61.529 25.88 62.713 25.528 63.577 24.824C64.473 24.12 64.921 23.112 64.921 21.8V2.696C64.921 2.344 65.049 2.04 65.305 1.784C65.561 1.528 65.865 1.4 66.217 1.4H76.249C76.601 1.4 76.905 1.528 77.161 1.784C77.417 2.04 77.545 2.344 77.545 2.696V21.032C77.545 25.992 75.961 29.64 72.793 31.976C69.657 34.312 65.401 35.48 60.025 35.48ZM103.446 13.592C106.966 13.976 109.782 14.6 111.894 15.464C114.038 16.328 115.59 17.464 116.55 18.872C117.51 20.28 117.99 22.04 117.99 24.152C117.99 26.456 117.238 28.472 115.734 30.2C114.262 31.896 112.214 33.208 109.59 34.136C106.966 35.032 103.974 35.48 100.614 35.48C96.8703 35.48 93.7023 35.016 91.1103 34.088C88.5183 33.16 86.5823 31.928 85.3023 30.392C84.0223 28.824 83.3823 27.112 83.3823 25.256C83.3823 24.936 83.4783 24.68 83.6703 24.488C83.8943 24.296 84.1663 24.2 84.4863 24.2H94.3263C94.9983 24.2 95.5423 24.408 95.9583 24.824C96.5023 25.336 97.1103 25.688 97.7823 25.88C98.4543 26.04 99.3983 26.12 100.614 26.12C103.654 26.12 105.174 25.656 105.174 24.728C105.174 24.344 104.966 24.024 104.55 23.768C104.166 23.48 103.462 23.24 102.438 23.048C101.446 22.824 99.9743 22.6 98.0223 22.376C93.6383 21.864 90.2783 20.776 87.9423 19.112C85.6063 17.416 84.4383 15.032 84.4383 11.96C84.4383 9.784 85.0943 7.864 86.4062 6.2C87.7183 4.536 89.5743 3.24 91.9743 2.312C94.4063 1.384 97.2223 0.919998 100.422 0.919998C103.75 0.919998 106.662 1.448 109.158 2.504C111.654 3.528 113.558 4.808 114.87 6.344C116.182 7.88 116.838 9.384 116.838 10.856C116.838 11.176 116.726 11.432 116.502 11.624C116.31 11.816 116.038 11.912 115.686 11.912H105.366C104.822 11.912 104.326 11.72 103.878 11.336C103.526 11.016 103.11 10.76 102.63 10.568C102.15 10.376 101.414 10.28 100.422 10.28C98.2783 10.28 97.2063 10.728 97.2063 11.624C97.2063 12.104 97.6223 12.488 98.4543 12.776C99.2863 13.032 100.95 13.304 103.446 13.592ZM158.148 1.4C158.5 1.4 158.804 1.528 159.06 1.784C159.316 2.04 159.444 2.344 159.444 2.696V10.424C159.444 10.776 159.316 11.08 159.06 11.336C158.804 11.592 158.5 11.72 158.148 11.72H147.828V33.704C147.828 34.056 147.7 34.36 147.444 34.616C147.188 34.872 146.884 35 146.531 35H136.644C136.292 35 135.988 34.872 135.732 34.616C135.476 34.36 135.348 34.056 135.348 33.704V11.72H125.028C124.676 11.72 124.372 11.592 124.116 11.336C123.86 11.08 123.732 10.776 123.732 10.424V2.696C123.732 2.344 123.86 2.04 124.116 1.784C124.372 1.528 124.676 1.4 125.028 1.4H158.148ZM216.238 33.368C215.822 34.456 215.102 35 214.078 35H205.006C204.718 35 204.462 34.904 204.238 34.712C204.046 34.488 203.95 34.232 203.95 33.944L203.998 33.656L214.462 2.984C214.59 2.568 214.83 2.2 215.182 1.88C215.534 1.56 216.014 1.4 216.622 1.4H229.966C230.574 1.4 231.054 1.56 231.406 1.88C231.758 2.2 231.998 2.568 232.126 2.984L242.59 33.656L242.638 33.944C242.638 34.232 242.526 34.488 242.302 34.712C242.11 34.904 241.87 35 241.582 35H232.51C231.486 35 230.766 34.456 230.35 33.368L229.15 30.008H217.438L216.238 33.368ZM223.294 10.664L219.886 20.648H226.702L223.294 10.664ZM300.297 22.04C300.297 23.352 300.729 24.36 301.593 25.064C302.489 25.768 303.689 26.12 305.193 26.12C306.537 26.12 307.529 25.896 308.169 25.448C308.809 25 309.353 24.328 309.801 23.432C310.217 22.6 310.777 22.184 311.481 22.184H321.849C322.137 22.184 322.377 22.296 322.569 22.52C322.793 22.712 322.905 22.952 322.905 23.24C322.905 25.192 322.249 27.112 320.937 29C319.625 30.856 317.625 32.408 314.937 33.656C312.281 34.872 309.033 35.48 305.193 35.48C301.769 35.48 298.713 34.968 296.025 33.944C293.369 32.888 291.257 31.288 289.689 29.144C288.121 26.968 287.337 24.264 287.337 21.032V15.368C287.337 12.136 288.121 9.448 289.689 7.304C291.257 5.128 293.369 3.528 296.025 2.504C298.713 1.448 301.769 0.919998 305.193 0.919998C309.033 0.919998 312.281 1.544 314.937 2.792C317.625 4.008 319.625 5.56 320.937 7.448C322.249 9.304 322.905 11.208 322.905 13.16C322.905 13.448 322.793 13.704 322.569 13.928C322.377 14.12 322.137 14.216 321.849 14.216H311.481C310.777 14.216 310.217 13.8 309.801 12.968C309.353 12.072 308.809 11.4 308.169 10.952C307.529 10.504 306.537 10.28 305.193 10.28C303.689 10.28 302.489 10.632 301.593 11.336C300.729 12.04 300.297 13.048 300.297 14.36V22.04ZM363.35 21.128C363.35 26.024 361.718 29.64 358.454 31.976C355.222 34.312 350.902 35.48 345.494 35.48C340.086 35.48 335.75 34.312 332.486 31.976C329.254 29.64 327.638 25.992 327.638 21.032V15.368C327.638 12.104 328.406 9.4 329.942 7.256C331.51 5.08 333.638 3.48 336.326 2.456C339.014 1.432 342.07 0.919998 345.494 0.919998C348.918 0.919998 351.958 1.432 354.614 2.456C357.302 3.48 359.43 5.064 360.998 7.208C362.566 9.352 363.35 12.04 363.35 15.272V21.128ZM340.598 22.04C340.598 23.352 341.03 24.36 341.894 25.064C342.79 25.768 343.99 26.12 345.494 26.12C346.998 26.12 348.182 25.768 349.046 25.064C349.942 24.328 350.39 23.304 350.39 21.992V14.408C350.39 13.096 349.942 12.088 349.046 11.384C348.182 10.648 346.998 10.28 345.494 10.28C343.99 10.28 342.79 10.632 341.894 11.336C341.03 12.04 340.598 13.048 340.598 14.36V22.04ZM386.275 35.48C380.899 35.48 376.627 34.312 373.459 31.976C370.323 29.64 368.755 25.992 368.755 21.032V2.696C368.755 2.344 368.883 2.04 369.139 1.784C369.395 1.528 369.699 1.4 370.051 1.4H380.083C380.435 1.4 380.739 1.528 380.995 1.784C381.251 2.04 381.379 2.344 381.379 2.696V21.8C381.379 23.112 381.811 24.12 382.675 24.824C383.571 25.528 384.771 25.88 386.275 25.88C387.779 25.88 388.963 25.528 389.827 24.824C390.723 24.12 391.171 23.112 391.171 21.8V2.696C391.171 2.344 391.299 2.04 391.555 1.784C391.811 1.528 392.115 1.4 392.467 1.4H402.499C402.851 1.4 403.155 1.528 403.411 1.784C403.667 2.04 403.795 2.344 403.795 2.696V21.032C403.795 25.992 402.211 29.64 399.043 31.976C395.907 34.312 391.651 35.48 386.275 35.48ZM431.952 1.4C434.96 1.4 437.584 1.912 439.824 2.936C442.064 3.96 443.776 5.352 444.96 7.112C446.144 8.872 446.736 10.84 446.736 13.016C446.736 16.6 445.616 19.416 443.376 21.464C441.136 23.48 437.328 24.488 431.952 24.488H425.616V33.704C425.616 34.056 425.488 34.36 425.232 34.616C424.976 34.872 424.672 35 424.32 35H414C413.648 35 413.344 34.872 413.088 34.616C412.832 34.36 412.704 34.056 412.704 33.704V2.696C412.704 2.344 412.832 2.04 413.088 1.784C413.344 1.528 413.648 1.4 414 1.4H431.952ZM431.76 15.608C432.528 15.608 433.136 15.384 433.584 14.936C434.032 14.456 434.256 13.832 434.256 13.064C434.256 12.264 434.032 11.608 433.584 11.096C433.136 10.584 432.528 10.328 431.76 10.328H425.664V15.608H431.76ZM483.486 25.16C483.838 25.16 484.142 25.288 484.398 25.544C484.654 25.8 484.782 26.104 484.782 26.456V33.704C484.782 34.056 484.654 34.36 484.398 34.616C484.142 34.872 483.838 35 483.486 35H455.454C455.102 35 454.798 34.872 454.542 34.616C454.286 34.36 454.158 34.056 454.158 33.704V2.696C454.158 2.344 454.286 2.04 454.542 1.784C454.798 1.528 455.102 1.4 455.454 1.4H465.822C466.174 1.4 466.478 1.528 466.734 1.784C466.99 2.04 467.118 2.344 467.118 2.696V25.16H483.486ZM524.171 25.64C524.523 25.64 524.827 25.768 525.083 26.024C525.339 26.28 525.467 26.584 525.467 26.936V33.704C525.467 34.056 525.339 34.36 525.083 34.616C524.827 34.872 524.523 35 524.171 35H493.835C493.483 35 493.179 34.872 492.923 34.616C492.667 34.36 492.539 34.056 492.539 33.704V2.696C492.539 2.344 492.667 2.04 492.923 1.784C493.179 1.528 493.483 1.4 493.835 1.4H523.691C524.043 1.4 524.347 1.528 524.603 1.784C524.859 2.04 524.987 2.344 524.987 2.696V9.464C524.987 9.816 524.859 10.12 524.603 10.376C524.347 10.632 524.043 10.76 523.691 10.76H505.019V13.784H521.051C521.403 13.784 521.707 13.912 521.963 14.168C522.219 14.424 522.347 14.728 522.347 15.08V21.32C522.347 21.672 522.219 21.976 521.963 22.232C521.707 22.488 521.403 22.616 521.051 22.616H505.019V25.64H524.171ZM608.037 21.128C608.037 26.024 606.405 29.64 603.141 31.976C599.909 34.312 595.589 35.48 590.181 35.48C584.773 35.48 580.437 34.312 577.173 31.976C573.941 29.64 572.325 25.992 572.325 21.032V15.368C572.325 12.104 573.093 9.4 574.629 7.256C576.197 5.08 578.325 3.48 581.013 2.456C583.701 1.432 586.757 0.919998 590.181 0.919998C593.605 0.919998 596.645 1.432 599.301 2.456C601.989 3.48 604.117 5.064 605.685 7.208C607.253 9.352 608.037 12.04 608.037 15.272V21.128ZM585.285 22.04C585.285 23.352 585.717 24.36 586.581 25.064C587.477 25.768 588.677 26.12 590.181 26.12C591.685 26.12 592.869 25.768 593.733 25.064C594.629 24.328 595.077 23.304 595.077 21.992V14.408C595.077 13.096 594.629 12.088 593.733 11.384C592.869 10.648 591.685 10.28 590.181 10.28C588.677 10.28 587.477 10.632 586.581 11.336C585.717 12.04 585.285 13.048 585.285 14.36V22.04ZM647.187 1.4C647.539 1.4 647.843 1.528 648.099 1.784C648.355 2.04 648.483 2.344 648.483 2.696V9.992C648.483 10.344 648.355 10.648 648.099 10.904C647.843 11.16 647.539 11.288 647.187 11.288H628.323V14.36H644.067C644.419 14.36 644.723 14.488 644.979 14.744C645.235 15 645.363 15.304 645.363 15.656V22.904C645.363 23.256 645.235 23.56 644.979 23.816C644.723 24.072 644.419 24.2 644.067 24.2H628.323V33.704C628.323 34.056 628.195 34.36 627.939 34.616C627.683 34.872 627.379 35 627.027 35H616.659C616.307 35 616.003 34.872 615.747 34.616C615.491 34.36 615.363 34.056 615.363 33.704V2.696C615.363 2.344 615.491 2.04 615.747 1.784C616.003 1.528 616.307 1.4 616.659 1.4H647.187ZM728.749 1.4C729.101 1.4 729.405 1.528 729.661 1.784C729.917 2.04 730.045 2.344 730.045 2.696V9.992C730.045 10.344 729.917 10.648 729.661 10.904C729.405 11.16 729.101 11.288 728.749 11.288H709.885V14.36H725.629C725.981 14.36 726.285 14.488 726.541 14.744C726.797 15 726.925 15.304 726.925 15.656V22.904C726.925 23.256 726.797 23.56 726.541 23.816C726.285 24.072 725.981 24.2 725.629 24.2H709.885V33.704C709.885 34.056 709.757 34.36 709.501 34.616C709.245 34.872 708.941 35 708.589 35H698.221C697.869 35 697.565 34.872 697.309 34.616C697.053 34.36 696.925 34.056 696.925 33.704V2.696C696.925 2.344 697.053 2.04 697.309 1.784C697.565 1.528 697.869 1.4 698.221 1.4H728.749ZM772.362 33.512C772.426 33.64 772.458 33.784 772.458 33.944C772.458 34.232 772.346 34.488 772.122 34.712C771.93 34.904 771.69 35 771.402 35H760.506C760.058 35 759.642 34.888 759.258 34.664C758.906 34.44 758.65 34.152 758.49 33.8L754.266 24.296H750.234V33.704C750.234 34.056 750.106 34.36 749.85 34.616C749.594 34.872 749.29 35 748.938 35H738.57C738.218 35 737.914 34.872 737.658 34.616C737.402 34.36 737.274 34.056 737.274 33.704V2.696C737.274 2.344 737.402 2.04 737.658 1.784C737.914 1.528 738.218 1.4 738.57 1.4H757.242C760.122 1.4 762.634 1.864 764.778 2.792C766.954 3.72 768.618 5.064 769.77 6.824C770.922 8.584 771.498 10.648 771.498 13.016C771.498 17.368 769.818 20.52 766.458 22.472L772.362 33.512ZM756.234 15.416C756.938 15.416 757.482 15.192 757.866 14.744C758.25 14.264 758.442 13.672 758.442 12.968C758.442 12.264 758.25 11.656 757.866 11.144C757.514 10.6 756.97 10.328 756.234 10.328H750.234V15.416H756.234ZM800.616 25.16H809.304C809.656 25.16 809.96 25.288 810.216 25.544C810.472 25.8 810.6 26.104 810.6 26.456V33.704C810.6 34.056 810.472 34.36 810.216 34.616C809.96 34.872 809.656 35 809.304 35H778.872C778.52 35 778.216 34.872 777.96 34.616C777.704 34.36 777.576 34.056 777.576 33.704V26.456C777.576 26.104 777.704 25.8 777.96 25.544C778.216 25.288 778.52 25.16 778.872 25.16H787.656V11.24H778.872C778.52 11.24 778.216 11.112 777.96 10.856C777.704 10.6 777.576 10.296 777.576 9.944V2.696C777.576 2.344 777.704 2.04 777.96 1.784C778.216 1.528 778.52 1.4 778.872 1.4H809.304C809.656 1.4 809.96 1.528 810.216 1.784C810.472 2.04 810.6 2.344 810.6 2.696V9.944C810.6 10.296 810.472 10.6 810.216 10.856C809.96 11.112 809.656 11.24 809.304 11.24H800.616V25.16ZM850.421 25.64C850.773 25.64 851.077 25.768 851.333 26.024C851.589 26.28 851.717 26.584 851.717 26.936V33.704C851.717 34.056 851.589 34.36 851.333 34.616C851.077 34.872 850.773 35 850.421 35H820.085C819.733 35 819.429 34.872 819.173 34.616C818.917 34.36 818.789 34.056 818.789 33.704V2.696C818.789 2.344 818.917 2.04 819.173 1.784C819.429 1.528 819.733 1.4 820.085 1.4H849.941C850.293 1.4 850.597 1.528 850.853 1.784C851.109 2.04 851.237 2.344 851.237 2.696V9.464C851.237 9.816 851.109 10.12 850.853 10.376C850.597 10.632 850.293 10.76 849.941 10.76H831.269V13.784H847.301C847.653 13.784 847.957 13.912 848.213 14.168C848.469 14.424 848.597 14.728 848.597 15.08V21.32C848.597 21.672 848.469 21.976 848.213 22.232C847.957 22.488 847.653 22.616 847.301 22.616H831.269V25.64H850.421ZM890.674 1.4C891.026 1.4 891.33 1.528 891.586 1.784C891.842 2.04 891.97 2.344 891.97 2.696V33.704C891.97 34.056 891.842 34.36 891.586 34.616C891.33 34.872 891.026 35 890.674 35H882.946C882.178 35 881.538 34.664 881.026 33.992L870.562 20.648V33.704C870.562 34.056 870.434 34.36 870.178 34.616C869.922 34.872 869.618 35 869.266 35H860.338C859.986 35 859.682 34.872 859.426 34.616C859.17 34.36 859.042 34.056 859.042 33.704V2.696C859.042 2.344 859.17 2.04 859.426 1.784C859.682 1.528 859.986 1.4 860.338 1.4H868.114C868.882 1.4 869.506 1.72 869.986 2.36L880.45 16.808V2.696C880.45 2.344 880.578 2.04 880.834 1.784C881.09 1.528 881.394 1.4 881.746 1.4H890.674ZM916.287 1.4C921.695 1.4 926.015 2.568 929.247 4.904C932.511 7.24 934.143 10.856 934.143 15.752V20.648C934.143 25.64 932.527 29.288 929.295 31.592C926.095 33.864 921.759 35 916.287 35H900.975C900.623 35 900.319 34.872 900.063 34.616C899.807 34.36 899.679 34.056 899.679 33.704V2.696C899.679 2.344 899.807 2.04 900.063 1.784C900.319 1.528 900.623 1.4 900.975 1.4H916.287ZM916.527 25.64C918.031 25.64 919.215 25.288 920.079 24.584C920.975 23.848 921.423 22.824 921.423 21.512V14.888C921.423 13.576 920.975 12.568 920.079 11.864C919.215 11.128 918.031 10.76 916.527 10.76H912.159V25.64H916.527ZM959.853 13.592C963.373 13.976 966.189 14.6 968.301 15.464C970.445 16.328 971.997 17.464 972.957 18.872C973.917 20.28 974.397 22.04 974.397 24.152C974.397 26.456 973.645 28.472 972.141 30.2C970.669 31.896 968.621 33.208 965.997 34.136C963.373 35.032 960.381 35.48 957.021 35.48C953.277 35.48 950.109 35.016 947.517 34.088C944.925 33.16 942.989 31.928 941.709 30.392C940.429 28.824 939.789 27.112 939.789 25.256C939.789 24.936 939.885 24.68 940.077 24.488C940.301 24.296 940.573 24.2 940.893 24.2H950.733C951.405 24.2 951.949 24.408 952.365 24.824C952.909 25.336 953.517 25.688 954.189 25.88C954.861 26.04 955.805 26.12 957.021 26.12C960.061 26.12 961.581 25.656 961.581 24.728C961.581 24.344 961.373 24.024 960.957 23.768C960.573 23.48 959.869 23.24 958.845 23.048C957.853 22.824 956.381 22.6 954.429 22.376C950.045 21.864 946.685 20.776 944.349 19.112C942.013 17.416 940.845 15.032 940.845 11.96C940.845 9.784 941.501 7.864 942.812 6.2C944.125 4.536 945.981 3.24 948.381 2.312C950.813 1.384 953.629 0.919998 956.829 0.919998C960.157 0.919998 963.069 1.448 965.565 2.504C968.061 3.528 969.965 4.808 971.277 6.344C972.589 7.88 973.245 9.384 973.245 10.856C973.245 11.176 973.133 11.432 972.909 11.624C972.717 11.816 972.445 11.912 972.093 11.912H961.773C961.229 11.912 960.733 11.72 960.285 11.336C959.933 11.016 959.517 10.76 959.037 10.568C958.557 10.376 957.821 10.28 956.829 10.28C954.685 10.28 953.613 10.728 953.613 11.624C953.613 12.104 954.029 12.488 954.861 12.776C955.693 13.032 957.357 13.304 959.853 13.592ZM1034.55 33.704C1034.46 33.992 1034.22 34.28 1033.83 34.568C1033.48 34.856 1033.02 35 1032.44 35H1025.72C1025.11 35 1024.6 34.824 1024.18 34.472C1023.8 34.088 1023.58 33.656 1023.51 33.176L1019.34 2.6V2.456C1019.34 2.168 1019.43 1.928 1019.62 1.736C1019.85 1.512 1020.1 1.4 1020.39 1.4H1028.65C1029.29 1.4 1029.8 1.592 1030.18 1.976C1030.6 2.36 1030.84 2.84 1030.9 3.416L1032.44 18.104L1035.22 10.472C1035.32 10.152 1035.54 9.848 1035.9 9.56C1036.28 9.24 1036.76 9.08 1037.34 9.08H1040.6C1041.18 9.08 1041.64 9.24 1041.99 9.56C1042.38 9.848 1042.62 10.152 1042.71 10.472L1045.49 18.104L1047.03 3.416C1047.1 2.84 1047.32 2.36 1047.7 1.976C1048.12 1.592 1048.65 1.4 1049.29 1.4H1057.54C1057.83 1.4 1058.07 1.512 1058.26 1.736C1058.49 1.928 1058.6 2.168 1058.6 2.456V2.6L1054.42 33.176C1054.36 33.656 1054.12 34.088 1053.7 34.472C1053.32 34.824 1052.82 35 1052.22 35H1045.49C1044.92 35 1044.44 34.856 1044.06 34.568C1043.7 34.28 1043.48 33.992 1043.38 33.704L1038.97 23.576L1034.55 33.704ZM1095.54 1.4C1095.89 1.4 1096.2 1.528 1096.45 1.784C1096.71 2.04 1096.84 2.344 1096.84 2.696V33.704C1096.84 34.056 1096.71 34.36 1096.45 34.616C1096.2 34.872 1095.89 35 1095.54 35H1085.65C1085.3 35 1085 34.872 1084.74 34.616C1084.48 34.36 1084.36 34.056 1084.36 33.704V23.48H1074.76V33.704C1074.76 34.056 1074.63 34.36 1074.37 34.616C1074.12 34.872 1073.81 35 1073.46 35H1063.57C1063.22 35 1062.92 34.888 1062.66 34.664C1062.4 34.408 1062.28 34.088 1062.28 33.704V2.696C1062.28 2.344 1062.4 2.04 1062.66 1.784C1062.92 1.528 1063.22 1.4 1063.57 1.4H1073.46C1073.81 1.4 1074.12 1.528 1074.37 1.784C1074.63 2.04 1074.76 2.344 1074.76 2.696V12.536H1084.36V2.696C1084.36 2.344 1084.48 2.04 1084.74 1.784C1085 1.528 1085.3 1.4 1085.65 1.4H1095.54ZM1138.19 21.128C1138.19 26.024 1136.56 29.64 1133.3 31.976C1130.07 34.312 1125.75 35.48 1120.34 35.48C1114.93 35.48 1110.59 34.312 1107.33 31.976C1104.1 29.64 1102.48 25.992 1102.48 21.032V15.368C1102.48 12.104 1103.25 9.4 1104.79 7.256C1106.35 5.08 1108.48 3.48 1111.17 2.456C1113.86 1.432 1116.91 0.919998 1120.34 0.919998C1123.76 0.919998 1126.8 1.432 1129.46 2.456C1132.15 3.48 1134.27 5.064 1135.84 7.208C1137.41 9.352 1138.19 12.04 1138.19 15.272V21.128ZM1115.44 22.04C1115.44 23.352 1115.87 24.36 1116.74 25.064C1117.63 25.768 1118.83 26.12 1120.34 26.12C1121.84 26.12 1123.03 25.768 1123.89 25.064C1124.79 24.328 1125.23 23.304 1125.23 21.992V14.408C1125.23 13.096 1124.79 12.088 1123.89 11.384C1123.03 10.648 1121.84 10.28 1120.34 10.28C1118.83 10.28 1117.63 10.632 1116.74 11.336C1115.87 12.04 1115.44 13.048 1115.44 14.36V22.04ZM55.801 92.704C55.705 92.992 55.465 93.28 55.081 93.568C54.729 93.856 54.265 94 53.689 94H46.969C46.361 94 45.849 93.824 45.433 93.472C45.049 93.088 44.825 92.656 44.761 92.176L40.585 61.6V61.456C40.585 61.168 40.681 60.928 40.873 60.736C41.097 60.512 41.353 60.4 41.641 60.4H49.897C50.537 60.4 51.049 60.592 51.433 60.976C51.849 61.36 52.089 61.84 52.153 62.416L53.689 77.104L56.473 69.472C56.569 69.152 56.793 68.848 57.145 68.56C57.529 68.24 58.009 68.08 58.585 68.08H61.849C62.425 68.08 62.889 68.24 63.241 68.56C63.625 68.848 63.865 69.152 63.961 69.472L66.745 77.104L68.281 62.416C68.345 61.84 68.569 61.36 68.953 60.976C69.369 60.592 69.897 60.4 70.537 60.4H78.793C79.081 60.4 79.321 60.512 79.513 60.736C79.737 60.928 79.849 61.168 79.849 61.456V61.6L75.673 92.176C75.609 92.656 75.369 93.088 74.953 93.472C74.569 93.824 74.073 94 73.465 94H66.745C66.169 94 65.689 93.856 65.305 93.568C64.953 93.28 64.729 92.992 64.633 92.704L60.217 82.576L55.801 92.704ZM116.79 60.4C117.142 60.4 117.446 60.528 117.702 60.784C117.958 61.04 118.086 61.344 118.086 61.696V92.704C118.086 93.056 117.958 93.36 117.702 93.616C117.446 93.872 117.142 94 116.79 94H106.902C106.55 94 106.246 93.872 105.99 93.616C105.734 93.36 105.606 93.056 105.606 92.704V82.48H96.0063V92.704C96.0063 93.056 95.8783 93.36 95.6223 93.616C95.3663 93.872 95.0623 94 94.7103 94H84.8223C84.4703 94 84.1663 93.888 83.9103 93.664C83.6543 93.408 83.5263 93.088 83.5263 92.704V61.696C83.5263 61.344 83.6543 61.04 83.9103 60.784C84.1663 60.528 84.4703 60.4 84.8223 60.4H94.7103C95.0623 60.4 95.3663 60.528 95.6223 60.784C95.8783 61.04 96.0063 61.344 96.0063 61.696V71.536H105.606V61.696C105.606 61.344 105.734 61.04 105.99 60.784C106.246 60.528 106.55 60.4 106.902 60.4H116.79ZM157.14 84.64C157.492 84.64 157.796 84.768 158.052 85.024C158.308 85.28 158.436 85.584 158.436 85.936V92.704C158.436 93.056 158.308 93.36 158.052 93.616C157.796 93.872 157.492 94 157.14 94H126.804C126.452 94 126.148 93.872 125.892 93.616C125.636 93.36 125.508 93.056 125.508 92.704V61.696C125.508 61.344 125.636 61.04 125.892 60.784C126.148 60.528 126.452 60.4 126.804 60.4H156.66C157.012 60.4 157.316 60.528 157.572 60.784C157.828 61.04 157.956 61.344 157.956 61.696V68.464C157.956 68.816 157.828 69.12 157.572 69.376C157.316 69.632 157.012 69.76 156.66 69.76H137.988V72.784H154.02C154.372 72.784 154.676 72.912 154.932 73.168C155.188 73.424 155.316 73.728 155.316 74.08V80.32C155.316 80.672 155.188 80.976 154.932 81.232C154.676 81.488 154.372 81.616 154.02 81.616H137.988V84.64H157.14ZM201.425 92.512C201.489 92.64 201.521 92.784 201.521 92.944C201.521 93.232 201.409 93.488 201.185 93.712C200.993 93.904 200.753 94 200.465 94H189.569C189.121 94 188.705 93.888 188.321 93.664C187.969 93.44 187.713 93.152 187.553 92.8L183.329 83.296H179.297V92.704C179.297 93.056 179.169 93.36 178.913 93.616C178.657 93.872 178.353 94 178.001 94H167.633C167.281 94 166.977 93.872 166.721 93.616C166.465 93.36 166.337 93.056 166.337 92.704V61.696C166.337 61.344 166.465 61.04 166.721 60.784C166.977 60.528 167.281 60.4 167.633 60.4H186.305C189.185 60.4 191.697 60.864 193.841 61.792C196.017 62.72 197.681 64.064 198.833 65.824C199.985 67.584 200.561 69.648 200.561 72.016C200.561 76.368 198.881 79.52 195.521 81.472L201.425 92.512ZM185.297 74.416C186.001 74.416 186.545 74.192 186.929 73.744C187.313 73.264 187.505 72.672 187.505 71.968C187.505 71.264 187.313 70.656 186.929 70.144C186.577 69.6 186.033 69.328 185.297 69.328H179.297V74.416H185.297ZM238.702 84.64C239.054 84.64 239.358 84.768 239.614 85.024C239.87 85.28 239.998 85.584 239.998 85.936V92.704C239.998 93.056 239.87 93.36 239.614 93.616C239.358 93.872 239.054 94 238.702 94H208.366C208.014 94 207.71 93.872 207.454 93.616C207.198 93.36 207.07 93.056 207.07 92.704V61.696C207.07 61.344 207.198 61.04 207.454 60.784C207.71 60.528 208.014 60.4 208.366 60.4H238.222C238.574 60.4 238.878 60.528 239.134 60.784C239.39 61.04 239.518 61.344 239.518 61.696V68.464C239.518 68.816 239.39 69.12 239.134 69.376C238.878 69.632 238.574 69.76 238.222 69.76H219.55V72.784H235.582C235.934 72.784 236.238 72.912 236.494 73.168C236.75 73.424 236.878 73.728 236.878 74.08V80.32C236.878 80.672 236.75 80.976 236.494 81.232C236.238 81.488 235.934 81.616 235.582 81.616H219.55V84.64H238.702ZM304.713 94.48C299.337 94.48 295.065 93.312 291.897 90.976C288.761 88.64 287.193 84.992 287.193 80.032V61.696C287.193 61.344 287.321 61.04 287.577 60.784C287.833 60.528 288.137 60.4 288.489 60.4H298.521C298.873 60.4 299.177 60.528 299.433 60.784C299.689 61.04 299.817 61.344 299.817 61.696V80.8C299.817 82.112 300.249 83.12 301.113 83.824C302.009 84.528 303.209 84.88 304.713 84.88C306.217 84.88 307.401 84.528 308.265 83.824C309.161 83.12 309.609 82.112 309.609 80.8V61.696C309.609 61.344 309.737 61.04 309.993 60.784C310.249 60.528 310.553 60.4 310.905 60.4H320.937C321.289 60.4 321.593 60.528 321.849 60.784C322.105 61.04 322.233 61.344 322.233 61.696V80.032C322.233 84.992 320.649 88.64 317.481 90.976C314.345 93.312 310.089 94.48 304.713 94.48ZM360.518 60.4C360.87 60.4 361.174 60.528 361.43 60.784C361.686 61.04 361.814 61.344 361.814 61.696V92.704C361.814 93.056 361.686 93.36 361.43 93.616C361.174 93.872 360.87 94 360.518 94H352.79C352.022 94 351.382 93.664 350.87 92.992L340.406 79.648V92.704C340.406 93.056 340.278 93.36 340.022 93.616C339.766 93.872 339.462 94 339.11 94H330.182C329.83 94 329.526 93.872 329.27 93.616C329.014 93.36 328.886 93.056 328.886 92.704V61.696C328.886 61.344 329.014 61.04 329.27 60.784C329.526 60.528 329.83 60.4 330.182 60.4H337.958C338.726 60.4 339.35 60.72 339.83 61.36L350.294 75.808V61.696C350.294 61.344 350.422 61.04 350.678 60.784C350.934 60.528 351.238 60.4 351.59 60.4H360.518ZM401.827 84.64C402.179 84.64 402.483 84.768 402.739 85.024C402.995 85.28 403.123 85.584 403.123 85.936V92.704C403.123 93.056 402.995 93.36 402.739 93.616C402.483 93.872 402.179 94 401.827 94H371.491C371.139 94 370.835 93.872 370.579 93.616C370.323 93.36 370.195 93.056 370.195 92.704V61.696C370.195 61.344 370.323 61.04 370.579 60.784C370.835 60.528 371.139 60.4 371.491 60.4H401.347C401.699 60.4 402.003 60.528 402.259 60.784C402.515 61.04 402.643 61.344 402.643 61.696V68.464C402.643 68.816 402.515 69.12 402.259 69.376C402.003 69.632 401.699 69.76 401.347 69.76H382.675V72.784H398.707C399.059 72.784 399.363 72.912 399.619 73.168C399.875 73.424 400.003 73.728 400.003 74.08V80.32C400.003 80.672 399.875 80.976 399.619 81.232C399.363 81.488 399.059 81.616 398.707 81.616H382.675V84.64H401.827ZM433.344 61.696C433.824 60.832 434.512 60.4 435.408 60.4H444.192C444.544 60.4 444.848 60.528 445.104 60.784C445.36 61.04 445.488 61.344 445.488 61.696V92.704C445.488 93.056 445.36 93.36 445.104 93.616C444.848 93.872 444.544 94 444.192 94H435.504C435.152 94 434.848 93.872 434.592 93.616C434.336 93.36 434.208 93.056 434.208 92.704V77.824L430.704 84.736C430.608 84.96 430.384 85.216 430.032 85.504C429.68 85.792 429.232 85.936 428.688 85.936H425.424C424.88 85.936 424.432 85.792 424.08 85.504C423.728 85.216 423.504 84.96 423.408 84.736L419.904 77.824V92.704C419.904 93.056 419.776 93.36 419.52 93.616C419.264 93.872 418.96 94 418.608 94H409.92C409.568 94 409.264 93.872 409.008 93.616C408.752 93.36 408.624 93.056 408.624 92.704V61.696C408.624 61.344 408.752 61.04 409.008 60.784C409.264 60.528 409.568 60.4 409.92 60.4H418.704C419.6 60.4 420.288 60.832 420.768 61.696L427.056 73.216L433.344 61.696ZM472.734 60.4C475.742 60.4 478.366 60.912 480.606 61.936C482.846 62.96 484.558 64.352 485.742 66.112C486.926 67.872 487.518 69.84 487.518 72.016C487.518 75.6 486.398 78.416 484.158 80.464C481.918 82.48 478.11 83.488 472.734 83.488H466.398V92.704C466.398 93.056 466.27 93.36 466.014 93.616C465.758 93.872 465.454 94 465.102 94H454.782C454.43 94 454.126 93.872 453.87 93.616C453.614 93.36 453.486 93.056 453.486 92.704V61.696C453.486 61.344 453.614 61.04 453.87 60.784C454.126 60.528 454.43 60.4 454.782 60.4H472.734ZM472.542 74.608C473.31 74.608 473.918 74.384 474.366 73.936C474.814 73.456 475.038 72.832 475.038 72.064C475.038 71.264 474.814 70.608 474.366 70.096C473.918 69.584 473.31 69.328 472.542 69.328H466.446V74.608H472.542ZM524.267 84.16C524.619 84.16 524.923 84.288 525.179 84.544C525.435 84.8 525.563 85.104 525.563 85.456V92.704C525.563 93.056 525.435 93.36 525.179 93.616C524.923 93.872 524.619 94 524.267 94H496.235C495.883 94 495.579 93.872 495.323 93.616C495.067 93.36 494.939 93.056 494.939 92.704V61.696C494.939 61.344 495.067 61.04 495.323 60.784C495.579 60.528 495.883 60.4 496.235 60.4H506.603C506.955 60.4 507.259 60.528 507.515 60.784C507.771 61.04 507.899 61.344 507.899 61.696V84.16H524.267ZM567.256 80.128C567.256 85.024 565.624 88.64 562.36 90.976C559.128 93.312 554.808 94.48 549.4 94.48C543.992 94.48 539.656 93.312 536.392 90.976C533.16 88.64 531.544 84.992 531.544 80.032V74.368C531.544 71.104 532.312 68.4 533.848 66.256C535.416 64.08 537.544 62.48 540.232 61.456C542.92 60.432 545.976 59.92 549.4 59.92C552.824 59.92 555.864 60.432 558.52 61.456C561.208 62.48 563.336 64.064 564.904 66.208C566.472 68.352 567.256 71.04 567.256 74.272V80.128ZM544.504 81.04C544.504 82.352 544.936 83.36 545.8 84.064C546.696 84.768 547.896 85.12 549.4 85.12C550.904 85.12 552.088 84.768 552.952 84.064C553.848 83.328 554.296 82.304 554.296 80.992V73.408C554.296 72.096 553.848 71.088 552.952 70.384C552.088 69.648 550.904 69.28 549.4 69.28C547.896 69.28 546.696 69.632 545.8 70.336C544.936 71.04 544.504 72.048 544.504 73.36V81.04ZM607.749 60.4C608.037 60.4 608.277 60.512 608.469 60.736C608.693 60.928 608.805 61.152 608.805 61.408C608.805 61.6 608.757 61.792 608.661 61.984L596.565 82V92.704C596.565 93.056 596.437 93.36 596.181 93.616C595.925 93.872 595.621 94 595.269 94H585.045C584.693 94 584.389 93.872 584.133 93.616C583.877 93.36 583.749 93.056 583.749 92.704V82L571.701 61.984C571.605 61.792 571.557 61.616 571.557 61.456C571.557 61.168 571.653 60.928 571.845 60.736C572.069 60.512 572.325 60.4 572.613 60.4H582.741C583.637 60.4 584.293 60.768 584.709 61.504L590.133 71.008L595.701 61.6C596.181 60.8 596.853 60.4 597.717 60.4H607.749ZM646.515 84.64C646.867 84.64 647.171 84.768 647.427 85.024C647.683 85.28 647.811 85.584 647.811 85.936V92.704C647.811 93.056 647.683 93.36 647.427 93.616C647.171 93.872 646.867 94 646.515 94H616.179C615.827 94 615.523 93.872 615.267 93.616C615.011 93.36 614.883 93.056 614.883 92.704V61.696C614.883 61.344 615.011 61.04 615.267 60.784C615.523 60.528 615.827 60.4 616.179 60.4H646.035C646.387 60.4 646.691 60.528 646.947 60.784C647.203 61.04 647.331 61.344 647.331 61.696V68.464C647.331 68.816 647.203 69.12 646.947 69.376C646.691 69.632 646.387 69.76 646.035 69.76H627.363V72.784H643.395C643.747 72.784 644.051 72.912 644.307 73.168C644.563 73.424 644.691 73.728 644.691 74.08V80.32C644.691 80.672 644.563 80.976 644.307 81.232C644.051 81.488 643.747 81.616 643.395 81.616H627.363V84.64H646.515ZM671.6 60.4C677.008 60.4 681.328 61.568 684.56 63.904C687.824 66.24 689.456 69.856 689.456 74.752V79.648C689.456 84.64 687.84 88.288 684.608 90.592C681.408 92.864 677.072 94 671.6 94H656.288C655.936 94 655.632 93.872 655.376 93.616C655.12 93.36 654.992 93.056 654.992 92.704V61.696C654.992 61.344 655.12 61.04 655.376 60.784C655.632 60.528 655.936 60.4 656.288 60.4H671.6ZM671.84 84.64C673.344 84.64 674.528 84.288 675.392 83.584C676.288 82.848 676.736 81.824 676.736 80.512V73.888C676.736 72.576 676.288 71.568 675.392 70.864C674.528 70.128 673.344 69.76 671.84 69.76H667.472V84.64H671.84ZM753.162 60.4C758.57 60.4 762.89 61.568 766.122 63.904C769.386 66.24 771.018 69.856 771.018 74.752V79.648C771.018 84.64 769.402 88.288 766.17 90.592C762.97 92.864 758.634 94 753.162 94H737.85C737.498 94 737.194 93.872 736.938 93.616C736.682 93.36 736.554 93.056 736.554 92.704V61.696C736.554 61.344 736.682 61.04 736.938 60.784C737.194 60.528 737.498 60.4 737.85 60.4H753.162ZM753.402 84.64C754.906 84.64 756.09 84.288 756.954 83.584C757.85 82.848 758.298 81.824 758.298 80.512V73.888C758.298 72.576 757.85 71.568 756.954 70.864C756.09 70.128 754.906 69.76 753.402 69.76H749.034V84.64H753.402ZM794.088 94.48C788.712 94.48 784.44 93.312 781.272 90.976C778.136 88.64 776.568 84.992 776.568 80.032V61.696C776.568 61.344 776.696 61.04 776.952 60.784C777.208 60.528 777.512 60.4 777.864 60.4H787.896C788.248 60.4 788.552 60.528 788.808 60.784C789.064 61.04 789.192 61.344 789.192 61.696V80.8C789.192 82.112 789.624 83.12 790.488 83.824C791.384 84.528 792.584 84.88 794.088 84.88C795.592 84.88 796.776 84.528 797.64 83.824C798.536 83.12 798.984 82.112 798.984 80.8V61.696C798.984 61.344 799.112 61.04 799.368 60.784C799.624 60.528 799.928 60.4 800.28 60.4H810.312C810.664 60.4 810.968 60.528 811.224 60.784C811.48 61.04 811.608 61.344 811.608 61.696V80.032C811.608 84.992 810.024 88.64 806.856 90.976C803.72 93.312 799.464 94.48 794.088 94.48ZM850.421 84.64C850.773 84.64 851.077 84.768 851.333 85.024C851.589 85.28 851.717 85.584 851.717 85.936V92.704C851.717 93.056 851.589 93.36 851.333 93.616C851.077 93.872 850.773 94 850.421 94H820.085C819.733 94 819.429 93.872 819.173 93.616C818.917 93.36 818.789 93.056 818.789 92.704V61.696C818.789 61.344 818.917 61.04 819.173 60.784C819.429 60.528 819.733 60.4 820.085 60.4H849.941C850.293 60.4 850.597 60.528 850.853 60.784C851.109 61.04 851.237 61.344 851.237 61.696V68.464C851.237 68.816 851.109 69.12 850.853 69.376C850.597 69.632 850.293 69.76 849.941 69.76H831.269V72.784H847.301C847.653 72.784 847.957 72.912 848.213 73.168C848.469 73.424 848.597 73.728 848.597 74.08V80.32C848.597 80.672 848.469 80.976 848.213 81.232C847.957 81.488 847.653 81.616 847.301 81.616H831.269V84.64H850.421ZM932.991 60.4C933.343 60.4 933.647 60.528 933.903 60.784C934.159 61.04 934.287 61.344 934.287 61.696V69.424C934.287 69.776 934.159 70.08 933.903 70.336C933.647 70.592 933.343 70.72 932.991 70.72H922.671V92.704C922.671 93.056 922.543 93.36 922.287 93.616C922.031 93.872 921.727 94 921.375 94H911.487C911.135 94 910.831 93.872 910.575 93.616C910.319 93.36 910.191 93.056 910.191 92.704V70.72H899.871C899.519 70.72 899.215 70.592 898.959 70.336C898.703 70.08 898.575 69.776 898.575 69.424V61.696C898.575 61.344 898.703 61.04 898.959 60.784C899.215 60.528 899.519 60.4 899.871 60.4H932.991ZM975.069 80.128C975.069 85.024 973.437 88.64 970.173 90.976C966.941 93.312 962.621 94.48 957.213 94.48C951.805 94.48 947.469 93.312 944.205 90.976C940.973 88.64 939.357 84.992 939.357 80.032V74.368C939.357 71.104 940.125 68.4 941.661 66.256C943.229 64.08 945.357 62.48 948.045 61.456C950.733 60.432 953.789 59.92 957.213 59.92C960.637 59.92 963.677 60.432 966.333 61.456C969.021 62.48 971.149 64.064 972.717 66.208C974.285 68.352 975.069 71.04 975.069 74.272V80.128ZM952.317 81.04C952.317 82.352 952.749 83.36 953.613 84.064C954.509 84.768 955.709 85.12 957.213 85.12C958.717 85.12 959.901 84.768 960.765 84.064C961.661 83.328 962.109 82.304 962.109 80.992V73.408C962.109 72.096 961.661 71.088 960.765 70.384C959.901 69.648 958.717 69.28 957.213 69.28C955.709 69.28 954.509 69.632 953.613 70.336C952.749 71.04 952.317 72.048 952.317 73.36V81.04ZM75.9996 140.04C75.9996 141.352 76.4316 142.36 77.2956 143.064C78.1916 143.768 79.3916 144.12 80.8956 144.12C82.2396 144.12 83.2316 143.896 83.8716 143.448C84.5116 143 85.0556 142.328 85.5036 141.432C85.9196 140.6 86.4796 140.184 87.1836 140.184H97.5516C97.8396 140.184 98.0796 140.296 98.2716 140.52C98.4956 140.712 98.6076 140.952 98.6076 141.24C98.6076 143.192 97.9516 145.112 96.6396 147C95.3276 148.856 93.3276 150.408 90.6396 151.656C87.9836 152.872 84.7356 153.48 80.8956 153.48C77.4716 153.48 74.4156 152.968 71.7276 151.944C69.0716 150.888 66.9596 149.288 65.3916 147.144C63.8236 144.968 63.0396 142.264 63.0396 139.032V133.368C63.0396 130.136 63.8236 127.448 65.3916 125.304C66.9596 123.128 69.0716 121.528 71.7276 120.504C74.4156 119.448 77.4716 118.92 80.8956 118.92C84.7356 118.92 87.9836 119.544 90.6396 120.792C93.3276 122.008 95.3276 123.56 96.6396 125.448C97.9516 127.304 98.6076 129.208 98.6076 131.16C98.6076 131.448 98.4956 131.704 98.2716 131.928C98.0796 132.12 97.8396 132.216 97.5516 132.216H87.1836C86.4796 132.216 85.9196 131.8 85.5036 130.968C85.0556 130.072 84.5116 129.4 83.8716 128.952C83.2316 128.504 82.2396 128.28 80.8956 128.28C79.3916 128.28 78.1916 128.632 77.2956 129.336C76.4316 130.04 75.9996 131.048 75.9996 132.36V140.04ZM139.053 139.128C139.053 144.024 137.421 147.64 134.157 149.976C130.925 152.312 126.605 153.48 121.197 153.48C115.789 153.48 111.453 152.312 108.189 149.976C104.957 147.64 103.341 143.992 103.341 139.032V133.368C103.341 130.104 104.109 127.4 105.645 125.256C107.213 123.08 109.341 121.48 112.029 120.456C114.717 119.432 117.773 118.92 121.197 118.92C124.621 118.92 127.661 119.432 130.317 120.456C133.005 121.48 135.133 123.064 136.701 125.208C138.269 127.352 139.053 130.04 139.053 133.272V139.128ZM116.301 140.04C116.301 141.352 116.733 142.36 117.597 143.064C118.493 143.768 119.693 144.12 121.197 144.12C122.701 144.12 123.885 143.768 124.749 143.064C125.645 142.328 126.093 141.304 126.093 139.992V132.408C126.093 131.096 125.645 130.088 124.749 129.384C123.885 128.648 122.701 128.28 121.197 128.28C119.693 128.28 118.493 128.632 117.597 129.336C116.733 130.04 116.301 131.048 116.301 132.36V140.04ZM181.034 151.512C181.098 151.64 181.13 151.784 181.13 151.944C181.13 152.232 181.018 152.488 180.794 152.712C180.602 152.904 180.362 153 180.074 153H169.178C168.73 153 168.314 152.888 167.93 152.664C167.578 152.44 167.322 152.152 167.162 151.8L162.938 142.296H158.906V151.704C158.906 152.056 158.778 152.36 158.522 152.616C158.266 152.872 157.962 153 157.61 153H147.242C146.89 153 146.586 152.872 146.33 152.616C146.074 152.36 145.946 152.056 145.946 151.704V120.696C145.946 120.344 146.074 120.04 146.33 119.784C146.586 119.528 146.89 119.4 147.242 119.4H165.914C168.794 119.4 171.306 119.864 173.45 120.792C175.626 121.72 177.29 123.064 178.442 124.824C179.594 126.584 180.17 128.648 180.17 131.016C180.17 135.368 178.49 138.52 175.13 140.472L181.034 151.512ZM164.906 133.416C165.61 133.416 166.154 133.192 166.538 132.744C166.922 132.264 167.114 131.672 167.114 130.968C167.114 130.264 166.922 129.656 166.538 129.144C166.186 128.6 165.642 128.328 164.906 128.328H158.906V133.416H164.906ZM220.615 139.128C220.615 144.024 218.983 147.64 215.719 149.976C212.487 152.312 208.167 153.48 202.759 153.48C197.351 153.48 193.015 152.312 189.751 149.976C186.519 147.64 184.903 143.992 184.903 139.032V133.368C184.903 130.104 185.671 127.4 187.207 125.256C188.775 123.08 190.903 121.48 193.591 120.456C196.279 119.432 199.335 118.92 202.759 118.92C206.183 118.92 209.223 119.432 211.879 120.456C214.567 121.48 216.695 123.064 218.263 125.208C219.831 127.352 220.615 130.04 220.615 133.272V139.128ZM197.863 140.04C197.863 141.352 198.295 142.36 199.159 143.064C200.055 143.768 201.255 144.12 202.759 144.12C204.263 144.12 205.447 143.768 206.311 143.064C207.207 142.328 207.655 141.304 207.655 139.992V132.408C207.655 131.096 207.207 130.088 206.311 129.384C205.447 128.648 204.263 128.28 202.759 128.28C201.255 128.28 200.055 128.632 199.159 129.336C198.295 130.04 197.863 131.048 197.863 132.36V140.04ZM258.565 119.4C258.917 119.4 259.221 119.528 259.477 119.784C259.733 120.04 259.861 120.344 259.861 120.696V151.704C259.861 152.056 259.733 152.36 259.477 152.616C259.221 152.872 258.917 153 258.565 153H250.837C250.069 153 249.429 152.664 248.917 151.992L238.453 138.648V151.704C238.453 152.056 238.325 152.36 238.069 152.616C237.813 152.872 237.509 153 237.157 153H228.229C227.877 153 227.573 152.872 227.317 152.616C227.061 152.36 226.933 152.056 226.933 151.704V120.696C226.933 120.344 227.061 120.04 227.317 119.784C227.573 119.528 227.877 119.4 228.229 119.4H236.005C236.773 119.4 237.397 119.72 237.877 120.36L248.341 134.808V120.696C248.341 120.344 248.469 120.04 248.725 119.784C248.981 119.528 249.285 119.4 249.637 119.4H258.565ZM277.41 151.368C276.994 152.456 276.274 153 275.25 153H266.178C265.89 153 265.634 152.904 265.41 152.712C265.218 152.488 265.122 152.232 265.122 151.944L265.17 151.656L275.634 120.984C275.762 120.568 276.002 120.2 276.354 119.88C276.706 119.56 277.186 119.4 277.794 119.4H291.138C291.746 119.4 292.226 119.56 292.578 119.88C292.93 120.2 293.17 120.568 293.298 120.984L303.762 151.656L303.81 151.944C303.81 152.232 303.698 152.488 303.474 152.712C303.282 152.904 303.042 153 302.754 153H293.682C292.658 153 291.938 152.456 291.522 151.368L290.322 148.008H278.61L277.41 151.368ZM284.466 128.664L281.058 138.648H287.874L284.466 128.664ZM358.972 151.368C358.556 152.456 357.836 153 356.812 153H347.74C347.452 153 347.196 152.904 346.972 152.712C346.78 152.488 346.684 152.232 346.684 151.944L346.732 151.656L357.196 120.984C357.324 120.568 357.564 120.2 357.916 119.88C358.268 119.56 358.748 119.4 359.356 119.4H372.7C373.308 119.4 373.788 119.56 374.14 119.88C374.492 120.2 374.732 120.568 374.86 120.984L385.324 151.656L385.372 151.944C385.372 152.232 385.26 152.488 385.036 152.712C384.844 152.904 384.604 153 384.316 153H375.244C374.22 153 373.5 152.456 373.084 151.368L371.884 148.008H360.172L358.972 151.368ZM366.028 128.664L362.62 138.648H369.436L366.028 128.664ZM421.69 119.4C422.042 119.4 422.346 119.528 422.602 119.784C422.858 120.04 422.986 120.344 422.986 120.696V151.704C422.986 152.056 422.858 152.36 422.602 152.616C422.346 152.872 422.042 153 421.69 153H413.962C413.194 153 412.554 152.664 412.042 151.992L401.578 138.648V151.704C401.578 152.056 401.45 152.36 401.194 152.616C400.938 152.872 400.634 153 400.282 153H391.354C391.002 153 390.698 152.872 390.442 152.616C390.186 152.36 390.058 152.056 390.058 151.704V120.696C390.058 120.344 390.186 120.04 390.442 119.784C390.698 119.528 391.002 119.4 391.354 119.4H399.13C399.898 119.4 400.522 119.72 401.002 120.36L411.466 134.808V120.696C411.466 120.344 411.594 120.04 411.85 119.784C412.106 119.528 412.41 119.4 412.762 119.4H421.69ZM447.303 119.4C452.711 119.4 457.031 120.568 460.263 122.904C463.527 125.24 465.159 128.856 465.159 133.752V138.648C465.159 143.64 463.543 147.288 460.311 149.592C457.111 151.864 452.775 153 447.303 153H431.991C431.639 153 431.335 152.872 431.079 152.616C430.823 152.36 430.695 152.056 430.695 151.704V120.696C430.695 120.344 430.823 120.04 431.079 119.784C431.335 119.528 431.639 119.4 431.991 119.4H447.303ZM447.543 143.64C449.047 143.64 450.231 143.288 451.095 142.584C451.991 141.848 452.439 140.824 452.439 139.512V132.888C452.439 131.576 451.991 130.568 451.095 129.864C450.231 129.128 449.047 128.76 447.543 128.76H443.175V143.64H447.543ZM545.473 139.032C545.473 143.896 543.873 147.528 540.673 149.928C537.473 152.296 533.201 153.48 527.857 153.48C524.017 153.48 520.737 152.872 518.017 151.656C515.329 150.408 513.297 148.84 511.921 146.952C510.577 145.064 509.905 143.16 509.905 141.24C509.905 140.952 510.001 140.712 510.193 140.52C510.417 140.296 510.673 140.184 510.961 140.184H521.809C522.097 140.184 522.337 140.28 522.529 140.472C522.753 140.664 522.913 140.92 523.009 141.24C523.617 143.16 525.153 144.12 527.617 144.12C529.121 144.12 530.305 143.768 531.169 143.064C532.065 142.36 532.513 141.352 532.513 140.04V129.24H514.993C514.641 129.24 514.337 129.112 514.081 128.856C513.825 128.6 513.697 128.296 513.697 127.944V120.696C513.697 120.344 513.825 120.04 514.081 119.784C514.337 119.528 514.641 119.4 514.993 119.4H544.177C544.529 119.4 544.833 119.528 545.089 119.784C545.345 120.04 545.473 120.344 545.473 120.696V139.032ZM569.791 153.48C564.415 153.48 560.143 152.312 556.975 149.976C553.839 147.64 552.271 143.992 552.271 139.032V120.696C552.271 120.344 552.399 120.04 552.655 119.784C552.911 119.528 553.215 119.4 553.567 119.4H563.599C563.951 119.4 564.255 119.528 564.511 119.784C564.767 120.04 564.895 120.344 564.895 120.696V139.8C564.895 141.112 565.327 142.12 566.191 142.824C567.087 143.528 568.287 143.88 569.791 143.88C571.295 143.88 572.479 143.528 573.343 142.824C574.239 142.12 574.687 141.112 574.687 139.8V120.696C574.687 120.344 574.815 120.04 575.071 119.784C575.327 119.528 575.631 119.4 575.983 119.4H586.015C586.367 119.4 586.671 119.528 586.927 119.784C587.183 120.04 587.311 120.344 587.311 120.696V139.032C587.311 143.992 585.727 147.64 582.559 149.976C579.423 152.312 575.167 153.48 569.791 153.48ZM613.212 131.592C616.732 131.976 619.548 132.6 621.66 133.464C623.804 134.328 625.356 135.464 626.316 136.872C627.276 138.28 627.756 140.04 627.756 142.152C627.756 144.456 627.004 146.472 625.5 148.2C624.028 149.896 621.98 151.208 619.356 152.136C616.732 153.032 613.74 153.48 610.38 153.48C606.636 153.48 603.468 153.016 600.876 152.088C598.284 151.16 596.348 149.928 595.068 148.392C593.788 146.824 593.148 145.112 593.148 143.256C593.148 142.936 593.244 142.68 593.436 142.488C593.66 142.296 593.932 142.2 594.252 142.2H604.092C604.764 142.2 605.308 142.408 605.724 142.824C606.268 143.336 606.876 143.688 607.548 143.88C608.22 144.04 609.164 144.12 610.38 144.12C613.42 144.12 614.94 143.656 614.94 142.728C614.94 142.344 614.732 142.024 614.316 141.768C613.932 141.48 613.228 141.24 612.204 141.048C611.212 140.824 609.74 140.6 607.788 140.376C603.404 139.864 600.044 138.776 597.708 137.112C595.372 135.416 594.204 133.032 594.204 129.96C594.204 127.784 594.86 125.864 596.172 124.2C597.484 122.536 599.34 121.24 601.74 120.312C604.172 119.384 606.988 118.92 610.188 118.92C613.516 118.92 616.428 119.448 618.924 120.504C621.42 121.528 623.324 122.808 624.636 124.344C625.948 125.88 626.604 127.384 626.604 128.856C626.604 129.176 626.492 129.432 626.268 129.624C626.076 129.816 625.804 129.912 625.452 129.912H615.132C614.588 129.912 614.092 129.72 613.644 129.336C613.292 129.016 612.876 128.76 612.396 128.568C611.916 128.376 611.18 128.28 610.188 128.28C608.044 128.28 606.972 128.728 606.972 129.624C606.972 130.104 607.388 130.488 608.22 130.776C609.052 131.032 610.716 131.304 613.212 131.592ZM667.913 119.4C668.265 119.4 668.569 119.528 668.825 119.784C669.081 120.04 669.209 120.344 669.209 120.696V128.424C669.209 128.776 669.081 129.08 668.825 129.336C668.569 129.592 668.265 129.72 667.913 129.72H657.593V151.704C657.593 152.056 657.465 152.36 657.209 152.616C656.953 152.872 656.649 153 656.297 153H646.409C646.057 153 645.753 152.872 645.497 152.616C645.241 152.36 645.113 152.056 645.113 151.704V129.72H634.793C634.441 129.72 634.137 129.592 633.881 129.336C633.625 129.08 633.497 128.776 633.497 128.424V120.696C633.497 120.344 633.625 120.04 633.881 119.784C634.137 119.528 634.441 119.4 634.793 119.4H667.913ZM728.5 140.04C728.5 141.352 728.932 142.36 729.796 143.064C730.692 143.768 731.892 144.12 733.396 144.12C734.74 144.12 735.732 143.896 736.372 143.448C737.012 143 737.556 142.328 738.004 141.432C738.42 140.6 738.98 140.184 739.684 140.184H750.052C750.34 140.184 750.58 140.296 750.772 140.52C750.996 140.712 751.108 140.952 751.108 141.24C751.108 143.192 750.452 145.112 749.14 147C747.828 148.856 745.828 150.408 743.14 151.656C740.484 152.872 737.236 153.48 733.396 153.48C729.972 153.48 726.916 152.968 724.228 151.944C721.572 150.888 719.46 149.288 717.892 147.144C716.324 144.968 715.54 142.264 715.54 139.032V133.368C715.54 130.136 716.324 127.448 717.892 125.304C719.46 123.128 721.572 121.528 724.228 120.504C726.916 119.448 729.972 118.92 733.396 118.92C737.236 118.92 740.484 119.544 743.14 120.792C745.828 122.008 747.828 123.56 749.14 125.448C750.452 127.304 751.108 129.208 751.108 131.16C751.108 131.448 750.996 131.704 750.772 131.928C750.58 132.12 750.34 132.216 750.052 132.216H739.684C738.98 132.216 738.42 131.8 738.004 130.968C737.556 130.072 737.012 129.4 736.372 128.952C735.732 128.504 734.74 128.28 733.396 128.28C731.892 128.28 730.692 128.632 729.796 129.336C728.932 130.04 728.5 131.048 728.5 132.36V140.04ZM766.785 151.368C766.369 152.456 765.649 153 764.625 153H755.553C755.265 153 755.009 152.904 754.785 152.712C754.593 152.488 754.497 152.232 754.497 151.944L754.545 151.656L765.009 120.984C765.137 120.568 765.377 120.2 765.729 119.88C766.081 119.56 766.561 119.4 767.169 119.4H780.513C781.121 119.4 781.601 119.56 781.953 119.88C782.305 120.2 782.545 120.568 782.673 120.984L793.137 151.656L793.185 151.944C793.185 152.232 793.073 152.488 792.849 152.712C792.657 152.904 792.417 153 792.129 153H783.057C782.033 153 781.313 152.456 780.897 151.368L779.697 148.008H767.985L766.785 151.368ZM773.841 128.664L770.433 138.648H777.249L773.841 128.664ZM820.766 120.696C821.246 119.832 821.934 119.4 822.83 119.4H831.614C831.966 119.4 832.27 119.528 832.526 119.784C832.782 120.04 832.91 120.344 832.91 120.696V151.704C832.91 152.056 832.782 152.36 832.526 152.616C832.27 152.872 831.966 153 831.614 153H822.926C822.574 153 822.27 152.872 822.014 152.616C821.758 152.36 821.63 152.056 821.63 151.704V136.824L818.126 143.736C818.03 143.96 817.806 144.216 817.454 144.504C817.102 144.792 816.654 144.936 816.11 144.936H812.846C812.302 144.936 811.854 144.792 811.502 144.504C811.15 144.216 810.926 143.96 810.83 143.736L807.326 136.824V151.704C807.326 152.056 807.198 152.36 806.942 152.616C806.686 152.872 806.382 153 806.03 153H797.342C796.99 153 796.686 152.872 796.43 152.616C796.174 152.36 796.046 152.056 796.046 151.704V120.696C796.046 120.344 796.174 120.04 796.43 119.784C796.686 119.528 796.99 119.4 797.342 119.4H806.126C807.022 119.4 807.71 119.832 808.19 120.696L814.478 132.216L820.766 120.696ZM870.811 143.64C871.163 143.64 871.467 143.768 871.723 144.024C871.979 144.28 872.107 144.584 872.107 144.936V151.704C872.107 152.056 871.979 152.36 871.723 152.616C871.467 152.872 871.163 153 870.811 153H840.475C840.123 153 839.819 152.872 839.563 152.616C839.307 152.36 839.179 152.056 839.179 151.704V120.696C839.179 120.344 839.307 120.04 839.563 119.784C839.819 119.528 840.123 119.4 840.475 119.4H870.331C870.683 119.4 870.987 119.528 871.243 119.784C871.499 120.04 871.627 120.344 871.627 120.696V127.464C871.627 127.816 871.499 128.12 871.243 128.376C870.987 128.632 870.683 128.76 870.331 128.76H851.659V131.784H867.691C868.043 131.784 868.347 131.912 868.603 132.168C868.859 132.424 868.987 132.728 868.987 133.08V139.32C868.987 139.672 868.859 139.976 868.603 140.232C868.347 140.488 868.043 140.616 867.691 140.616H851.659V143.64H870.811ZM936.822 153.48C931.446 153.48 927.174 152.312 924.006 149.976C920.87 147.64 919.302 143.992 919.302 139.032V120.696C919.302 120.344 919.43 120.04 919.686 119.784C919.942 119.528 920.246 119.4 920.598 119.4H930.63C930.982 119.4 931.286 119.528 931.542 119.784C931.798 120.04 931.926 120.344 931.926 120.696V139.8C931.926 141.112 932.358 142.12 933.222 142.824C934.118 143.528 935.318 143.88 936.822 143.88C938.326 143.88 939.51 143.528 940.374 142.824C941.27 142.12 941.718 141.112 941.718 139.8V120.696C941.718 120.344 941.846 120.04 942.102 119.784C942.358 119.528 942.662 119.4 943.014 119.4H953.046C953.398 119.4 953.702 119.528 953.958 119.784C954.214 120.04 954.342 120.344 954.342 120.696V139.032C954.342 143.992 952.758 147.64 949.59 149.976C946.454 152.312 942.198 153.48 936.822 153.48ZM982.499 119.4C985.507 119.4 988.131 119.912 990.371 120.936C992.611 121.96 994.323 123.352 995.507 125.112C996.691 126.872 997.283 128.84 997.283 131.016C997.283 134.6 996.163 137.416 993.923 139.464C991.683 141.48 987.875 142.488 982.499 142.488H976.163V151.704C976.163 152.056 976.035 152.36 975.779 152.616C975.523 152.872 975.219 153 974.867 153H964.547C964.195 153 963.891 152.872 963.635 152.616C963.379 152.36 963.251 152.056 963.251 151.704V120.696C963.251 120.344 963.379 120.04 963.635 119.784C963.891 119.528 964.195 119.4 964.547 119.4H982.499ZM982.307 133.608C983.075 133.608 983.683 133.384 984.131 132.936C984.579 132.456 984.803 131.832 984.803 131.064C984.803 130.264 984.579 129.608 984.131 129.096C983.683 128.584 983.075 128.328 982.307 128.328H976.211V133.608H982.307ZM96.5823 210.704C96.4863 210.992 96.2463 211.28 95.8623 211.568C95.5103 211.856 95.0463 212 94.4703 212H87.7503C87.1423 212 86.6303 211.824 86.2143 211.472C85.8303 211.088 85.6063 210.656 85.5423 210.176L81.3663 179.6V179.456C81.3663 179.168 81.4623 178.928 81.6543 178.736C81.8783 178.512 82.1343 178.4 82.4223 178.4H90.6783C91.3183 178.4 91.8303 178.592 92.2143 178.976C92.6303 179.36 92.8703 179.84 92.9343 180.416L94.4703 195.104L97.2543 187.472C97.3503 187.152 97.5743 186.848 97.9263 186.56C98.3103 186.24 98.7903 186.08 99.3663 186.08H102.63C103.206 186.08 103.67 186.24 104.022 186.56C104.406 186.848 104.646 187.152 104.742 187.472L107.526 195.104L109.062 180.416C109.126 179.84 109.35 179.36 109.734 178.976C110.15 178.592 110.678 178.4 111.318 178.4H119.574C119.862 178.4 120.102 178.512 120.294 178.736C120.518 178.928 120.63 179.168 120.63 179.456V179.6L116.454 210.176C116.39 210.656 116.15 211.088 115.734 211.472C115.35 211.824 114.854 212 114.246 212H107.526C106.95 212 106.47 211.856 106.086 211.568C105.734 211.28 105.51 210.992 105.414 210.704L100.998 200.576L96.5823 210.704ZM148.116 202.16H156.804C157.156 202.16 157.46 202.288 157.716 202.544C157.972 202.8 158.1 203.104 158.1 203.456V210.704C158.1 211.056 157.972 211.36 157.716 211.616C157.46 211.872 157.156 212 156.804 212H126.372C126.02 212 125.716 211.872 125.46 211.616C125.204 211.36 125.076 211.056 125.076 210.704V203.456C125.076 203.104 125.204 202.8 125.46 202.544C125.716 202.288 126.02 202.16 126.372 202.16H135.156V188.24H126.372C126.02 188.24 125.716 188.112 125.46 187.856C125.204 187.6 125.076 187.296 125.076 186.944V179.696C125.076 179.344 125.204 179.04 125.46 178.784C125.716 178.528 126.02 178.4 126.372 178.4H156.804C157.156 178.4 157.46 178.528 157.716 178.784C157.972 179.04 158.1 179.344 158.1 179.696V186.944C158.1 187.296 157.972 187.6 157.716 187.856C157.46 188.112 157.156 188.24 156.804 188.24H148.116V202.16ZM198.929 178.4C199.281 178.4 199.585 178.528 199.841 178.784C200.097 179.04 200.225 179.344 200.225 179.696V187.424C200.225 187.776 200.097 188.08 199.841 188.336C199.585 188.592 199.281 188.72 198.929 188.72H188.609V210.704C188.609 211.056 188.481 211.36 188.225 211.616C187.969 211.872 187.665 212 187.313 212H177.425C177.073 212 176.769 211.872 176.513 211.616C176.257 211.36 176.129 211.056 176.129 210.704V188.72H165.809C165.457 188.72 165.153 188.592 164.897 188.336C164.641 188.08 164.513 187.776 164.513 187.424V179.696C164.513 179.344 164.641 179.04 164.897 178.784C165.153 178.528 165.457 178.4 165.809 178.4H198.929ZM239.134 178.4C239.486 178.4 239.79 178.528 240.046 178.784C240.302 179.04 240.43 179.344 240.43 179.696V210.704C240.43 211.056 240.302 211.36 240.046 211.616C239.79 211.872 239.486 212 239.134 212H229.246C228.894 212 228.59 211.872 228.334 211.616C228.078 211.36 227.95 211.056 227.95 210.704V200.48H218.35V210.704C218.35 211.056 218.222 211.36 217.966 211.616C217.71 211.872 217.406 212 217.054 212H207.166C206.814 212 206.51 211.888 206.254 211.664C205.998 211.408 205.87 211.088 205.87 210.704V179.696C205.87 179.344 205.998 179.04 206.254 178.784C206.51 178.528 206.814 178.4 207.166 178.4H217.054C217.406 178.4 217.71 178.528 217.966 178.784C218.222 179.04 218.35 179.344 218.35 179.696V189.536H227.95V179.696C227.95 179.344 228.078 179.04 228.334 178.784C228.59 178.528 228.894 178.4 229.246 178.4H239.134ZM321.273 178.4C321.625 178.4 321.929 178.528 322.185 178.784C322.441 179.04 322.569 179.344 322.569 179.696V187.424C322.569 187.776 322.441 188.08 322.185 188.336C321.929 188.592 321.625 188.72 321.273 188.72H310.953V210.704C310.953 211.056 310.825 211.36 310.569 211.616C310.313 211.872 310.009 212 309.656 212H299.769C299.417 212 299.113 211.872 298.857 211.616C298.601 211.36 298.473 211.056 298.473 210.704V188.72H288.153C287.801 188.72 287.497 188.592 287.241 188.336C286.985 188.08 286.857 187.776 286.857 187.424V179.696C286.857 179.344 286.985 179.04 287.241 178.784C287.497 178.528 287.801 178.4 288.153 178.4H321.273ZM361.478 178.4C361.83 178.4 362.134 178.528 362.39 178.784C362.646 179.04 362.774 179.344 362.774 179.696V210.704C362.774 211.056 362.646 211.36 362.39 211.616C362.134 211.872 361.83 212 361.478 212H351.59C351.238 212 350.934 211.872 350.678 211.616C350.422 211.36 350.294 211.056 350.294 210.704V200.48H340.694V210.704C340.694 211.056 340.566 211.36 340.31 211.616C340.054 211.872 339.75 212 339.398 212H329.51C329.158 212 328.854 211.888 328.598 211.664C328.342 211.408 328.214 211.088 328.214 210.704V179.696C328.214 179.344 328.342 179.04 328.598 178.784C328.854 178.528 329.158 178.4 329.51 178.4H339.398C339.75 178.4 340.054 178.528 340.31 178.784C340.566 179.04 340.694 179.344 340.694 179.696V189.536H350.294V179.696C350.294 179.344 350.422 179.04 350.678 178.784C350.934 178.528 351.238 178.4 351.59 178.4H361.478ZM401.827 202.64C402.179 202.64 402.483 202.768 402.739 203.024C402.995 203.28 403.123 203.584 403.123 203.936V210.704C403.123 211.056 402.995 211.36 402.739 211.616C402.483 211.872 402.179 212 401.827 212H371.491C371.139 212 370.835 211.872 370.579 211.616C370.323 211.36 370.195 211.056 370.195 210.704V179.696C370.195 179.344 370.323 179.04 370.579 178.784C370.835 178.528 371.139 178.4 371.491 178.4H401.347C401.699 178.4 402.003 178.528 402.259 178.784C402.515 179.04 402.643 179.344 402.643 179.696V186.464C402.643 186.816 402.515 187.12 402.259 187.376C402.003 187.632 401.699 187.76 401.347 187.76H382.675V190.784H398.707C399.059 190.784 399.363 190.912 399.619 191.168C399.875 191.424 400.003 191.728 400.003 192.08V198.32C400.003 198.672 399.875 198.976 399.619 199.232C399.363 199.488 399.059 199.616 398.707 199.616H382.675V202.64H401.827ZM485.118 191.744C485.47 191.744 485.774 191.872 486.03 192.128C486.286 192.384 486.414 192.688 486.414 193.04V198.128C486.414 202.992 484.75 206.608 481.422 208.976C478.126 211.312 473.758 212.48 468.318 212.48C462.878 212.48 458.494 211.312 455.166 208.976C451.87 206.608 450.222 202.96 450.222 198.032V192.368C450.222 189.104 451.022 186.4 452.622 184.256C454.222 182.08 456.382 180.48 459.102 179.456C461.822 178.432 464.894 177.92 468.318 177.92C472.414 177.92 475.79 178.592 478.446 179.936C481.102 181.28 483.022 182.8 484.206 184.496C485.422 186.192 486.03 187.568 486.03 188.624C486.03 188.912 485.918 189.168 485.694 189.392C485.502 189.584 485.262 189.68 484.974 189.68H474.126C473.486 189.68 473.022 189.504 472.734 189.152C471.742 187.904 470.27 187.28 468.318 187.28C466.846 187.28 465.614 187.616 464.622 188.288C463.662 188.96 463.182 189.824 463.182 190.88V199.04C463.182 200.32 463.662 201.328 464.622 202.064C465.582 202.768 466.814 203.12 468.318 203.12C470.302 203.12 471.758 202.784 472.686 202.112C473.646 201.408 474.142 200.592 474.174 199.664H471.198C470.846 199.664 470.542 199.536 470.286 199.28C470.03 199.024 469.902 198.72 469.902 198.368V193.04C469.902 192.688 470.03 192.384 470.286 192.128C470.542 191.872 470.846 191.744 471.198 191.744H485.118ZM527.675 210.512C527.739 210.64 527.771 210.784 527.771 210.944C527.771 211.232 527.659 211.488 527.435 211.712C527.243 211.904 527.003 212 526.715 212H515.819C515.371 212 514.955 211.888 514.571 211.664C514.219 211.44 513.963 211.152 513.803 210.8L509.579 201.296H505.547V210.704C505.547 211.056 505.419 211.36 505.163 211.616C504.907 211.872 504.603 212 504.251 212H493.883C493.531 212 493.227 211.872 492.971 211.616C492.715 211.36 492.587 211.056 492.587 210.704V179.696C492.587 179.344 492.715 179.04 492.971 178.784C493.227 178.528 493.531 178.4 493.883 178.4H512.555C515.435 178.4 517.947 178.864 520.091 179.792C522.267 180.72 523.931 182.064 525.083 183.824C526.235 185.584 526.811 187.648 526.811 190.016C526.811 194.368 525.131 197.52 521.771 199.472L527.675 210.512ZM511.547 192.416C512.251 192.416 512.795 192.192 513.179 191.744C513.563 191.264 513.755 190.672 513.755 189.968C513.755 189.264 513.563 188.656 513.179 188.144C512.827 187.6 512.283 187.328 511.547 187.328H505.547V192.416H511.547ZM564.952 202.64C565.304 202.64 565.608 202.768 565.864 203.024C566.12 203.28 566.248 203.584 566.248 203.936V210.704C566.248 211.056 566.12 211.36 565.864 211.616C565.608 211.872 565.304 212 564.952 212H534.616C534.264 212 533.96 211.872 533.704 211.616C533.448 211.36 533.32 211.056 533.32 210.704V179.696C533.32 179.344 533.448 179.04 533.704 178.784C533.96 178.528 534.264 178.4 534.616 178.4H564.472C564.824 178.4 565.128 178.528 565.384 178.784C565.64 179.04 565.768 179.344 565.768 179.696V186.464C565.768 186.816 565.64 187.12 565.384 187.376C565.128 187.632 564.824 187.76 564.472 187.76H545.8V190.784H561.832C562.184 190.784 562.488 190.912 562.744 191.168C563 191.424 563.128 191.728 563.128 192.08V198.32C563.128 198.672 563 198.976 562.744 199.232C562.488 199.488 562.184 199.616 561.832 199.616H545.8V202.64H564.952ZM583.269 210.368C582.853 211.456 582.133 212 581.109 212H572.037C571.749 212 571.493 211.904 571.269 211.712C571.077 211.488 570.981 211.232 570.981 210.944L571.029 210.656L581.493 179.984C581.621 179.568 581.861 179.2 582.213 178.88C582.565 178.56 583.045 178.4 583.653 178.4H596.997C597.605 178.4 598.085 178.56 598.437 178.88C598.789 179.2 599.029 179.568 599.157 179.984L609.621 210.656L609.669 210.944C609.669 211.232 609.557 211.488 609.333 211.712C609.141 211.904 608.901 212 608.613 212H599.541C598.517 212 597.797 211.456 597.381 210.368L596.181 207.008H584.469L583.269 210.368ZM590.325 187.664L586.917 197.648H593.733L590.325 187.664ZM647.523 178.4C647.875 178.4 648.179 178.528 648.435 178.784C648.691 179.04 648.819 179.344 648.819 179.696V187.424C648.819 187.776 648.691 188.08 648.435 188.336C648.179 188.592 647.875 188.72 647.523 188.72H637.203V210.704C637.203 211.056 637.075 211.36 636.819 211.616C636.563 211.872 636.259 212 635.906 212H626.019C625.667 212 625.363 211.872 625.107 211.616C624.851 211.36 624.723 211.056 624.723 210.704V188.72H614.403C614.051 188.72 613.747 188.592 613.491 188.336C613.235 188.08 613.107 187.776 613.107 187.424V179.696C613.107 179.344 613.235 179.04 613.491 178.784C613.747 178.528 614.051 178.4 614.403 178.4H647.523ZM719.053 202.16H727.741C728.093 202.16 728.397 202.288 728.653 202.544C728.909 202.8 729.037 203.104 729.037 203.456V210.704C729.037 211.056 728.909 211.36 728.653 211.616C728.397 211.872 728.093 212 727.741 212H697.309C696.957 212 696.653 211.872 696.397 211.616C696.141 211.36 696.013 211.056 696.013 210.704V203.456C696.013 203.104 696.141 202.8 696.397 202.544C696.653 202.288 696.957 202.16 697.309 202.16H706.093V188.24H697.309C696.957 188.24 696.653 188.112 696.397 187.856C696.141 187.6 696.013 187.296 696.013 186.944V179.696C696.013 179.344 696.141 179.04 696.397 178.784C696.653 178.528 696.957 178.4 697.309 178.4H727.741C728.093 178.4 728.397 178.528 728.653 178.784C728.909 179.04 729.037 179.344 729.037 179.696V186.944C729.037 187.296 728.909 187.6 728.653 187.856C728.397 188.112 728.093 188.24 727.741 188.24H719.053V202.16ZM753.162 178.4C758.57 178.4 762.89 179.568 766.122 181.904C769.386 184.24 771.018 187.856 771.018 192.752V197.648C771.018 202.64 769.402 206.288 766.17 208.592C762.97 210.864 758.634 212 753.162 212H737.85C737.498 212 737.194 211.872 736.938 211.616C736.682 211.36 736.554 211.056 736.554 210.704V179.696C736.554 179.344 736.682 179.04 736.938 178.784C737.194 178.528 737.498 178.4 737.85 178.4H753.162ZM753.402 202.64C754.906 202.64 756.09 202.288 756.954 201.584C757.85 200.848 758.298 199.824 758.298 198.512V191.888C758.298 190.576 757.85 189.568 756.954 188.864C756.09 188.128 754.906 187.76 753.402 187.76H749.034V202.64H753.402ZM809.64 202.64C809.992 202.64 810.296 202.768 810.552 203.024C810.808 203.28 810.936 203.584 810.936 203.936V210.704C810.936 211.056 810.808 211.36 810.552 211.616C810.296 211.872 809.992 212 809.64 212H779.304C778.952 212 778.648 211.872 778.392 211.616C778.136 211.36 778.008 211.056 778.008 210.704V179.696C778.008 179.344 778.136 179.04 778.392 178.784C778.648 178.528 778.952 178.4 779.304 178.4H809.16C809.512 178.4 809.816 178.528 810.072 178.784C810.328 179.04 810.456 179.344 810.456 179.696V186.464C810.456 186.816 810.328 187.12 810.072 187.376C809.816 187.632 809.512 187.76 809.16 187.76H790.488V190.784H806.52C806.872 190.784 807.176 190.912 807.432 191.168C807.688 191.424 807.816 191.728 807.816 192.08V198.32C807.816 198.672 807.688 198.976 807.432 199.232C807.176 199.488 806.872 199.616 806.52 199.616H790.488V202.64H809.64ZM827.957 210.368C827.541 211.456 826.821 212 825.797 212H816.725C816.437 212 816.181 211.904 815.957 211.712C815.765 211.488 815.669 211.232 815.669 210.944L815.717 210.656L826.181 179.984C826.309 179.568 826.549 179.2 826.901 178.88C827.253 178.56 827.733 178.4 828.341 178.4H841.685C842.293 178.4 842.773 178.56 843.125 178.88C843.477 179.2 843.717 179.568 843.845 179.984L854.309 210.656L854.357 210.944C854.357 211.232 854.245 211.488 854.021 211.712C853.829 211.904 853.589 212 853.301 212H844.229C843.205 212 842.485 211.456 842.069 210.368L840.869 207.008H829.157L827.957 210.368ZM835.013 187.664L831.605 197.648H838.421L835.013 187.664ZM934.287 198.128C934.287 203.024 932.655 206.64 929.391 208.976C926.159 211.312 921.839 212.48 916.431 212.48C911.023 212.48 906.687 211.312 903.423 208.976C900.191 206.64 898.575 202.992 898.575 198.032V192.368C898.575 189.104 899.343 186.4 900.879 184.256C902.447 182.08 904.575 180.48 907.263 179.456C909.951 178.432 913.007 177.92 916.431 177.92C919.855 177.92 922.895 178.432 925.551 179.456C928.239 180.48 930.367 182.064 931.935 184.208C933.503 186.352 934.287 189.04 934.287 192.272V198.128ZM911.535 199.04C911.535 200.352 911.967 201.36 912.831 202.064C913.727 202.768 914.927 203.12 916.431 203.12C917.935 203.12 919.119 202.768 919.983 202.064C920.879 201.328 921.327 200.304 921.327 198.992V191.408C921.327 190.096 920.879 189.088 919.983 188.384C919.119 187.648 917.935 187.28 916.431 187.28C914.927 187.28 913.727 187.632 912.831 188.336C911.967 189.04 911.535 190.048 911.535 191.36V199.04ZM973.437 178.4C973.789 178.4 974.093 178.528 974.349 178.784C974.605 179.04 974.733 179.344 974.733 179.696V186.992C974.733 187.344 974.605 187.648 974.349 187.904C974.093 188.16 973.789 188.288 973.437 188.288H954.573V191.36H970.317C970.669 191.36 970.973 191.488 971.229 191.744C971.485 192 971.613 192.304 971.613 192.656V199.904C971.613 200.256 971.485 200.56 971.229 200.816C970.973 201.072 970.669 201.2 970.317 201.2H954.573V210.704C954.573 211.056 954.445 211.36 954.189 211.616C953.933 211.872 953.629 212 953.277 212H942.909C942.557 212 942.253 211.872 941.997 211.616C941.741 211.36 941.613 211.056 941.613 210.704V179.696C941.613 179.344 941.741 179.04 941.997 178.784C942.253 178.528 942.557 178.4 942.909 178.4H973.437ZM83.0556 249.592C86.5756 249.976 89.3916 250.6 91.5036 251.464C93.6476 252.328 95.1996 253.464 96.1596 254.872C97.1196 256.28 97.5996 258.04 97.5996 260.152C97.5996 262.456 96.8476 264.472 95.3436 266.2C93.8716 267.896 91.8236 269.208 89.1996 270.136C86.5756 271.032 83.5836 271.48 80.2236 271.48C76.4796 271.48 73.3116 271.016 70.7196 270.088C68.1276 269.16 66.1916 267.928 64.9116 266.392C63.6316 264.824 62.9916 263.112 62.9916 261.256C62.9916 260.936 63.0876 260.68 63.2796 260.488C63.5036 260.296 63.7756 260.2 64.0956 260.2H73.9356C74.6076 260.2 75.1516 260.408 75.5676 260.824C76.1116 261.336 76.7196 261.688 77.3916 261.88C78.0636 262.04 79.0076 262.12 80.2236 262.12C83.2636 262.12 84.7836 261.656 84.7836 260.728C84.7836 260.344 84.5756 260.024 84.1596 259.768C83.7756 259.48 83.0716 259.24 82.0476 259.048C81.0556 258.824 79.5836 258.6 77.6316 258.376C73.2476 257.864 69.8876 256.776 67.5516 255.112C65.2156 253.416 64.0476 251.032 64.0476 247.96C64.0476 245.784 64.7036 243.864 66.0156 242.2C67.3276 240.536 69.1836 239.24 71.5836 238.312C74.0156 237.384 76.8316 236.92 80.0316 236.92C83.3596 236.92 86.2716 237.448 88.7676 238.504C91.2636 239.528 93.1676 240.808 94.4796 242.344C95.7916 243.88 96.4476 245.384 96.4476 246.856C96.4476 247.176 96.3356 247.432 96.1116 247.624C95.9196 247.816 95.6476 247.912 95.2956 247.912H84.9756C84.4316 247.912 83.9356 247.72 83.4876 247.336C83.1356 247.016 82.7196 246.76 82.2396 246.568C81.7596 246.376 81.0236 246.28 80.0316 246.28C77.8876 246.28 76.8156 246.728 76.8156 247.624C76.8156 248.104 77.2316 248.488 78.0636 248.776C78.8956 249.032 80.5596 249.304 83.0556 249.592ZM137.757 237.4C138.109 237.4 138.413 237.528 138.669 237.784C138.925 238.04 139.053 238.344 139.053 238.696V246.424C139.053 246.776 138.925 247.08 138.669 247.336C138.413 247.592 138.109 247.72 137.757 247.72H127.437V269.704C127.437 270.056 127.309 270.36 127.053 270.616C126.797 270.872 126.493 271 126.141 271H116.253C115.901 271 115.597 270.872 115.341 270.616C115.085 270.36 114.957 270.056 114.957 269.704V247.72H104.637C104.285 247.72 103.981 247.592 103.725 247.336C103.469 247.08 103.341 246.776 103.341 246.424V238.696C103.341 238.344 103.469 238.04 103.725 237.784C103.981 237.528 104.285 237.4 104.637 237.4H137.757ZM155.066 269.368C154.65 270.456 153.93 271 152.906 271H143.834C143.546 271 143.29 270.904 143.066 270.712C142.874 270.488 142.778 270.232 142.778 269.944L142.826 269.656L153.29 238.984C153.418 238.568 153.658 238.2 154.01 237.88C154.362 237.56 154.842 237.4 155.45 237.4H168.794C169.402 237.4 169.882 237.56 170.234 237.88C170.586 238.2 170.826 238.568 170.954 238.984L181.418 269.656L181.466 269.944C181.466 270.232 181.354 270.488 181.13 270.712C180.938 270.904 180.698 271 180.41 271H171.338C170.314 271 169.594 270.456 169.178 269.368L167.978 266.008H156.266L155.066 269.368ZM162.122 246.664L158.714 256.648H165.53L162.122 246.664ZM221.815 269.512C221.879 269.64 221.911 269.784 221.911 269.944C221.911 270.232 221.799 270.488 221.575 270.712C221.383 270.904 221.143 271 220.855 271H209.959C209.511 271 209.095 270.888 208.711 270.664C208.359 270.44 208.103 270.152 207.943 269.8L203.719 260.296H199.687V269.704C199.687 270.056 199.559 270.36 199.303 270.616C199.047 270.872 198.743 271 198.391 271H188.023C187.671 271 187.367 270.872 187.111 270.616C186.855 270.36 186.727 270.056 186.727 269.704V238.696C186.727 238.344 186.855 238.04 187.111 237.784C187.367 237.528 187.671 237.4 188.023 237.4H206.695C209.575 237.4 212.087 237.864 214.231 238.792C216.407 239.72 218.071 241.064 219.223 242.824C220.375 244.584 220.951 246.648 220.951 249.016C220.951 253.368 219.271 256.52 215.911 258.472L221.815 269.512ZM205.687 251.416C206.391 251.416 206.935 251.192 207.319 250.744C207.703 250.264 207.895 249.672 207.895 248.968C207.895 248.264 207.703 247.656 207.319 247.144C206.967 246.6 206.423 246.328 205.687 246.328H199.687V251.416H205.687ZM260.101 237.4C260.453 237.4 260.757 237.528 261.013 237.784C261.269 238.04 261.397 238.344 261.397 238.696V246.424C261.397 246.776 261.269 247.08 261.013 247.336C260.757 247.592 260.453 247.72 260.101 247.72H249.781V269.704C249.781 270.056 249.653 270.36 249.397 270.616C249.141 270.872 248.837 271 248.485 271H238.597C238.245 271 237.941 270.872 237.685 270.616C237.429 270.36 237.301 270.056 237.301 269.704V247.72H226.981C226.629 247.72 226.325 247.592 226.069 247.336C225.813 247.08 225.685 246.776 225.685 246.424V238.696C225.685 238.344 225.813 238.04 226.069 237.784C226.325 237.528 226.629 237.4 226.981 237.4H260.101ZM290.85 261.16H299.538C299.89 261.16 300.194 261.288 300.45 261.544C300.706 261.8 300.834 262.104 300.834 262.456V269.704C300.834 270.056 300.706 270.36 300.45 270.616C300.194 270.872 299.89 271 299.538 271H269.106C268.754 271 268.45 270.872 268.194 270.616C267.938 270.36 267.81 270.056 267.81 269.704V262.456C267.81 262.104 267.938 261.8 268.194 261.544C268.45 261.288 268.754 261.16 269.106 261.16H277.89V247.24H269.106C268.754 247.24 268.45 247.112 268.194 246.856C267.938 246.6 267.81 246.296 267.81 245.944V238.696C267.81 238.344 267.938 238.04 268.194 237.784C268.45 237.528 268.754 237.4 269.106 237.4H299.538C299.89 237.4 300.194 237.528 300.45 237.784C300.706 238.04 300.834 238.344 300.834 238.696V245.944C300.834 246.296 300.706 246.6 300.45 246.856C300.194 247.112 299.89 247.24 299.538 247.24H290.85V261.16ZM340.127 237.4C340.479 237.4 340.783 237.528 341.039 237.784C341.295 238.04 341.423 238.344 341.423 238.696V269.704C341.423 270.056 341.295 270.36 341.039 270.616C340.783 270.872 340.479 271 340.127 271H332.399C331.631 271 330.991 270.664 330.479 269.992L320.015 256.648V269.704C320.015 270.056 319.887 270.36 319.631 270.616C319.375 270.872 319.071 271 318.719 271H309.791C309.439 271 309.135 270.872 308.879 270.616C308.623 270.36 308.495 270.056 308.495 269.704V238.696C308.495 238.344 308.623 238.04 308.879 237.784C309.135 237.528 309.439 237.4 309.791 237.4H317.567C318.335 237.4 318.959 237.72 319.439 238.36L329.903 252.808V238.696C329.903 238.344 330.031 238.04 330.287 237.784C330.543 237.528 330.847 237.4 331.199 237.4H340.127ZM383.164 250.744C383.516 250.744 383.82 250.872 384.076 251.128C384.332 251.384 384.46 251.688 384.46 252.04V257.128C384.46 261.992 382.796 265.608 379.468 267.976C376.172 270.312 371.804 271.48 366.364 271.48C360.924 271.48 356.54 270.312 353.212 267.976C349.916 265.608 348.268 261.96 348.268 257.032V251.368C348.268 248.104 349.068 245.4 350.668 243.256C352.268 241.08 354.428 239.48 357.148 238.456C359.868 237.432 362.94 236.92 366.364 236.92C370.46 236.92 373.836 237.592 376.492 238.936C379.148 240.28 381.068 241.8 382.252 243.496C383.468 245.192 384.076 246.568 384.076 247.624C384.076 247.912 383.964 248.168 383.74 248.392C383.548 248.584 383.308 248.68 383.02 248.68H372.172C371.532 248.68 371.068 248.504 370.78 248.152C369.788 246.904 368.316 246.28 366.364 246.28C364.892 246.28 363.66 246.616 362.668 247.288C361.708 247.96 361.228 248.824 361.228 249.88V258.04C361.228 259.32 361.708 260.328 362.668 261.064C363.628 261.768 364.86 262.12 366.364 262.12C368.348 262.12 369.804 261.784 370.732 261.112C371.692 260.408 372.188 259.592 372.22 258.664H369.244C368.892 258.664 368.588 258.536 368.332 258.28C368.076 258.024 367.948 257.72 367.948 257.368V252.04C367.948 251.688 368.076 251.384 368.332 251.128C368.588 250.872 368.892 250.744 369.244 250.744H383.164ZM440.535 269.368C440.119 270.456 439.399 271 438.375 271H429.303C429.015 271 428.759 270.904 428.535 270.712C428.343 270.488 428.247 270.232 428.247 269.944L428.295 269.656L438.759 238.984C438.887 238.568 439.127 238.2 439.479 237.88C439.831 237.56 440.311 237.4 440.919 237.4H454.263C454.871 237.4 455.351 237.56 455.703 237.88C456.055 238.2 456.295 238.568 456.423 238.984L466.887 269.656L466.935 269.944C466.935 270.232 466.823 270.488 466.599 270.712C466.407 270.904 466.167 271 465.879 271H456.807C455.783 271 455.063 270.456 454.647 269.368L453.447 266.008H441.735L440.535 269.368ZM447.591 246.664L444.183 256.648H450.999L447.591 246.664ZM531.649 249.592C535.169 249.976 537.985 250.6 540.097 251.464C542.241 252.328 543.793 253.464 544.753 254.872C545.713 256.28 546.193 258.04 546.193 260.152C546.193 262.456 545.441 264.472 543.937 266.2C542.465 267.896 540.417 269.208 537.793 270.136C535.169 271.032 532.177 271.48 528.817 271.48C525.073 271.48 521.905 271.016 519.313 270.088C516.721 269.16 514.785 267.928 513.505 266.392C512.225 264.824 511.585 263.112 511.585 261.256C511.585 260.936 511.681 260.68 511.873 260.488C512.097 260.296 512.369 260.2 512.689 260.2H522.529C523.201 260.2 523.745 260.408 524.161 260.824C524.705 261.336 525.313 261.688 525.985 261.88C526.657 262.04 527.601 262.12 528.817 262.12C531.857 262.12 533.377 261.656 533.377 260.728C533.377 260.344 533.169 260.024 532.753 259.768C532.369 259.48 531.665 259.24 530.641 259.048C529.649 258.824 528.177 258.6 526.225 258.376C521.841 257.864 518.481 256.776 516.145 255.112C513.809 253.416 512.641 251.032 512.641 247.96C512.641 245.784 513.297 243.864 514.609 242.2C515.921 240.536 517.777 239.24 520.177 238.312C522.609 237.384 525.425 236.92 528.625 236.92C531.953 236.92 534.865 237.448 537.361 238.504C539.857 239.528 541.761 240.808 543.073 242.344C544.385 243.88 545.041 245.384 545.041 246.856C545.041 247.176 544.929 247.432 544.705 247.624C544.513 247.816 544.241 247.912 543.889 247.912H533.569C533.025 247.912 532.529 247.72 532.081 247.336C531.729 247.016 531.313 246.76 530.833 246.568C530.353 246.376 529.617 246.28 528.625 246.28C526.481 246.28 525.409 246.728 525.409 247.624C525.409 248.104 525.825 248.488 526.657 248.776C527.489 249.032 529.153 249.304 531.649 249.592ZM589.615 269.32C589.743 269.512 589.807 269.72 589.807 269.944C589.807 270.232 589.695 270.488 589.471 270.712C589.279 270.904 589.039 271 588.751 271H576.367C575.631 271 575.055 270.744 574.639 270.232L566.287 259.912V269.704C566.287 270.056 566.159 270.36 565.903 270.616C565.647 270.872 565.343 271 564.991 271H555.103C554.751 271 554.447 270.872 554.191 270.616C553.935 270.36 553.807 270.056 553.807 269.704V238.696C553.807 238.344 553.935 238.04 554.191 237.784C554.447 237.528 554.751 237.4 555.103 237.4H564.991C565.343 237.4 565.647 237.528 565.903 237.784C566.159 238.04 566.287 238.344 566.287 238.696V247.72L573.871 238.216C574.351 237.672 574.943 237.4 575.647 237.4H587.215C587.503 237.4 587.743 237.512 587.935 237.736C588.159 237.928 588.271 238.168 588.271 238.456C588.271 238.712 588.191 238.936 588.031 239.128L576.655 253L589.615 269.32ZM603.66 269.368C603.244 270.456 602.524 271 601.5 271H592.428C592.14 271 591.884 270.904 591.66 270.712C591.468 270.488 591.372 270.232 591.372 269.944L591.42 269.656L601.884 238.984C602.012 238.568 602.252 238.2 602.604 237.88C602.956 237.56 603.436 237.4 604.044 237.4H617.388C617.996 237.4 618.476 237.56 618.828 237.88C619.18 238.2 619.42 238.568 619.548 238.984L630.012 269.656L630.06 269.944C630.06 270.232 629.948 270.488 629.724 270.712C629.532 270.904 629.292 271 629.004 271H619.932C618.908 271 618.188 270.456 617.772 269.368L616.572 266.008H604.86L603.66 269.368ZM610.716 246.664L607.308 256.648H614.124L610.716 246.664ZM667.913 237.4C668.265 237.4 668.569 237.528 668.825 237.784C669.081 238.04 669.209 238.344 669.209 238.696V246.424C669.209 246.776 669.081 247.08 668.825 247.336C668.569 247.592 668.265 247.72 667.913 247.72H657.593V269.704C657.593 270.056 657.465 270.36 657.209 270.616C656.953 270.872 656.649 271 656.297 271H646.409C646.057 271 645.753 270.872 645.497 270.616C645.241 270.36 645.113 270.056 645.113 269.704V247.72H634.793C634.441 247.72 634.137 247.592 633.881 247.336C633.625 247.08 633.497 246.776 633.497 246.424V238.696C633.497 238.344 633.625 238.04 633.881 237.784C634.137 237.528 634.441 237.4 634.793 237.4H667.913ZM707.686 261.64C708.038 261.64 708.342 261.768 708.598 262.024C708.854 262.28 708.982 262.584 708.982 262.936V269.704C708.982 270.056 708.854 270.36 708.598 270.616C708.342 270.872 708.038 271 707.686 271H677.35C676.998 271 676.694 270.872 676.438 270.616C676.182 270.36 676.054 270.056 676.054 269.704V238.696C676.054 238.344 676.182 238.04 676.438 237.784C676.694 237.528 676.998 237.4 677.35 237.4H707.206C707.558 237.4 707.862 237.528 708.118 237.784C708.374 238.04 708.502 238.344 708.502 238.696V245.464C708.502 245.816 708.374 246.12 708.118 246.376C707.862 246.632 707.558 246.76 707.206 246.76H688.534V249.784H704.566C704.918 249.784 705.222 249.912 705.478 250.168C705.734 250.424 705.862 250.728 705.862 251.08V257.32C705.862 257.672 705.734 257.976 705.478 258.232C705.222 258.488 704.918 258.616 704.566 258.616H688.534V261.64H707.686ZM728.692 269.704C728.596 269.992 728.356 270.28 727.972 270.568C727.62 270.856 727.156 271 726.58 271H719.86C719.252 271 718.74 270.824 718.324 270.472C717.94 270.088 717.716 269.656 717.652 269.176L713.476 238.6V238.456C713.476 238.168 713.572 237.928 713.764 237.736C713.988 237.512 714.244 237.4 714.532 237.4H722.788C723.428 237.4 723.94 237.592 724.324 237.976C724.74 238.36 724.98 238.84 725.044 239.416L726.58 254.104L729.364 246.472C729.46 246.152 729.684 245.848 730.036 245.56C730.42 245.24 730.9 245.08 731.476 245.08H734.74C735.316 245.08 735.78 245.24 736.132 245.56C736.516 245.848 736.756 246.152 736.852 246.472L739.636 254.104L741.172 239.416C741.236 238.84 741.46 238.36 741.844 237.976C742.26 237.592 742.788 237.4 743.428 237.4H751.684C751.972 237.4 752.212 237.512 752.404 237.736C752.628 237.928 752.74 238.168 752.74 238.456V238.6L748.564 269.176C748.5 269.656 748.26 270.088 747.844 270.472C747.46 270.824 746.964 271 746.356 271H739.636C739.06 271 738.58 270.856 738.196 270.568C737.844 270.28 737.62 269.992 737.524 269.704L733.108 259.576L728.692 269.704ZM789.249 261.64C789.601 261.64 789.905 261.768 790.161 262.024C790.417 262.28 790.545 262.584 790.545 262.936V269.704C790.545 270.056 790.417 270.36 790.161 270.616C789.905 270.872 789.601 271 789.249 271H758.913C758.561 271 758.257 270.872 758.001 270.616C757.745 270.36 757.617 270.056 757.617 269.704V238.696C757.617 238.344 757.745 238.04 758.001 237.784C758.257 237.528 758.561 237.4 758.913 237.4H788.769C789.121 237.4 789.425 237.528 789.681 237.784C789.937 238.04 790.065 238.344 790.065 238.696V245.464C790.065 245.816 789.937 246.12 789.681 246.376C789.425 246.632 789.121 246.76 788.769 246.76H770.097V249.784H786.129C786.481 249.784 786.785 249.912 787.041 250.168C787.297 250.424 787.425 250.728 787.425 251.08V257.32C787.425 257.672 787.297 257.976 787.041 258.232C786.785 258.488 786.481 258.616 786.129 258.616H770.097V261.64H789.249ZM828.206 253.48C829.454 253.864 830.526 254.712 831.422 256.024C832.318 257.304 832.766 258.776 832.766 260.44C832.766 263.992 831.614 266.648 829.31 268.408C827.006 270.136 823.646 271 819.23 271H799.454C799.102 271 798.798 270.872 798.542 270.616C798.286 270.36 798.158 270.056 798.158 269.704V238.696C798.158 238.344 798.286 238.04 798.542 237.784C798.798 237.528 799.102 237.4 799.454 237.4H818.75C823.294 237.4 826.638 238.232 828.782 239.896C830.958 241.528 832.046 244.008 832.046 247.336V247.48C832.046 249.016 831.63 250.328 830.798 251.416C829.966 252.504 829.102 253.192 828.206 253.48ZM819.038 247.768C819.038 247.192 818.862 246.696 818.51 246.28C818.19 245.864 817.71 245.656 817.07 245.656H810.638V250.024H817.07C817.71 250.024 818.19 249.8 818.51 249.352C818.862 248.872 819.038 248.344 819.038 247.768ZM817.598 262.744C818.334 262.744 818.878 262.504 819.23 262.024C819.614 261.512 819.806 260.952 819.806 260.344V260.296C819.806 259.688 819.598 259.16 819.182 258.712C818.798 258.264 818.27 258.04 817.598 258.04H810.638V262.744H817.598ZM857.899 249.592C861.419 249.976 864.235 250.6 866.347 251.464C868.491 252.328 870.043 253.464 871.003 254.872C871.963 256.28 872.443 258.04 872.443 260.152C872.443 262.456 871.691 264.472 870.187 266.2C868.715 267.896 866.667 269.208 864.043 270.136C861.419 271.032 858.427 271.48 855.067 271.48C851.323 271.48 848.155 271.016 845.563 270.088C842.971 269.16 841.035 267.928 839.755 266.392C838.475 264.824 837.835 263.112 837.835 261.256C837.835 260.936 837.931 260.68 838.123 260.488C838.347 260.296 838.619 260.2 838.939 260.2H848.779C849.451 260.2 849.995 260.408 850.411 260.824C850.955 261.336 851.563 261.688 852.235 261.88C852.907 262.04 853.851 262.12 855.067 262.12C858.107 262.12 859.627 261.656 859.627 260.728C859.627 260.344 859.419 260.024 859.003 259.768C858.619 259.48 857.915 259.24 856.891 259.048C855.899 258.824 854.427 258.6 852.475 258.376C848.091 257.864 844.731 256.776 842.395 255.112C840.059 253.416 838.891 251.032 838.891 247.96C838.891 245.784 839.547 243.864 840.859 242.2C842.171 240.536 844.027 239.24 846.427 238.312C848.859 237.384 851.675 236.92 854.875 236.92C858.203 236.92 861.115 237.448 863.611 238.504C866.107 239.528 868.011 240.808 869.323 242.344C870.635 243.88 871.291 245.384 871.291 246.856C871.291 247.176 871.179 247.432 870.955 247.624C870.763 247.816 870.491 247.912 870.139 247.912H859.819C859.275 247.912 858.779 247.72 858.331 247.336C857.979 247.016 857.563 246.76 857.083 246.568C856.603 246.376 855.867 246.28 854.875 246.28C852.731 246.28 851.659 246.728 851.659 247.624C851.659 248.104 852.075 248.488 852.907 248.776C853.739 249.032 855.403 249.304 857.899 249.592ZM912.025 237.4C912.377 237.4 912.681 237.528 912.937 237.784C913.193 238.04 913.321 238.344 913.321 238.696V269.704C913.321 270.056 913.193 270.36 912.937 270.616C912.681 270.872 912.377 271 912.025 271H902.137C901.785 271 901.481 270.872 901.225 270.616C900.969 270.36 900.841 270.056 900.841 269.704V259.48H891.241V269.704C891.241 270.056 891.113 270.36 890.857 270.616C890.601 270.872 890.297 271 889.945 271H880.057C879.705 271 879.401 270.888 879.145 270.664C878.889 270.408 878.761 270.088 878.761 269.704V238.696C878.761 238.344 878.889 238.04 879.145 237.784C879.401 237.528 879.705 237.4 880.057 237.4H889.945C890.297 237.4 890.601 237.528 890.857 237.784C891.113 238.04 891.241 238.344 891.241 238.696V248.536H900.841V238.696C900.841 238.344 900.969 238.04 901.225 237.784C901.481 237.528 901.785 237.4 902.137 237.4H912.025ZM954.678 257.128C954.678 262.024 953.046 265.64 949.782 267.976C946.55 270.312 942.23 271.48 936.822 271.48C931.414 271.48 927.078 270.312 923.814 267.976C920.582 265.64 918.966 261.992 918.966 257.032V251.368C918.966 248.104 919.734 245.4 921.27 243.256C922.838 241.08 924.966 239.48 927.654 238.456C930.342 237.432 933.398 236.92 936.822 236.92C940.246 236.92 943.286 237.432 945.942 238.456C948.63 239.48 950.758 241.064 952.326 243.208C953.894 245.352 954.678 248.04 954.678 251.272V257.128ZM931.926 258.04C931.926 259.352 932.358 260.36 933.222 261.064C934.118 261.768 935.318 262.12 936.822 262.12C938.326 262.12 939.51 261.768 940.374 261.064C941.27 260.328 941.718 259.304 941.718 257.992V250.408C941.718 249.096 941.27 248.088 940.374 247.384C939.51 246.648 938.326 246.28 936.822 246.28C935.318 246.28 934.118 246.632 933.222 247.336C932.358 248.04 931.926 249.048 931.926 250.36V258.04ZM982.499 237.4C985.507 237.4 988.131 237.912 990.371 238.936C992.611 239.96 994.323 241.352 995.507 243.112C996.691 244.872 997.283 246.84 997.283 249.016C997.283 252.6 996.163 255.416 993.923 257.464C991.683 259.48 987.875 260.488 982.499 260.488H976.163V269.704C976.163 270.056 976.035 270.36 975.779 270.616C975.523 270.872 975.219 271 974.867 271H964.547C964.195 271 963.891 270.872 963.635 270.616C963.379 270.36 963.251 270.056 963.251 269.704V238.696C963.251 238.344 963.379 238.04 963.635 237.784C963.891 237.528 964.195 237.4 964.547 237.4H982.499ZM982.307 251.608C983.075 251.608 983.683 251.384 984.131 250.936C984.579 250.456 984.803 249.832 984.803 249.064C984.803 248.264 984.579 247.608 984.131 247.096C983.683 246.584 983.075 246.328 982.307 246.328H976.211V251.608H982.307Z" fill="black"/>
</svg>
