<svg width="649" height="95" viewBox="0 0 649 95" fill="none" xmlns="http://www.w3.org/2000/svg">
<path d="M35.21 1.4C35.562 1.4 35.866 1.528 36.122 1.784C36.378 2.04 36.506 2.344 36.506 2.696V10.424C36.506 10.776 36.378 11.08 36.122 11.336C35.866 11.592 35.562 11.72 35.21 11.72H24.89V33.704C24.89 34.056 24.762 34.36 24.506 34.616C24.25 34.872 23.946 35 23.594 35H13.706C13.354 35 13.05 34.872 12.794 34.616C12.538 34.36 12.41 34.056 12.41 33.704V11.72H2.09C1.738 11.72 1.434 11.592 1.178 11.336C0.922 11.08 0.794 10.776 0.794 10.424V2.696C0.794 2.344 0.922 2.04 1.178 1.784C1.434 1.528 1.738 1.4 2.09 1.4H35.21ZM75.4153 1.4C75.7673 1.4 76.0713 1.528 76.3273 1.784C76.5833 2.04 76.7113 2.344 76.7113 2.696V33.704C76.7113 34.056 76.5833 34.36 76.3273 34.616C76.0713 34.872 75.7673 35 75.4153 35H65.5273C65.1753 35 64.8713 34.872 64.6153 34.616C64.3593 34.36 64.2313 34.056 64.2313 33.704V23.48H54.6313V33.704C54.6313 34.056 54.5033 34.36 54.2473 34.616C53.9913 34.872 53.6873 35 53.3353 35H43.4473C43.0953 35 42.7913 34.888 42.5353 34.664C42.2793 34.408 42.1513 34.088 42.1513 33.704V2.696C42.1513 2.344 42.2793 2.04 42.5353 1.784C42.7913 1.528 43.0953 1.4 43.4473 1.4H53.3353C53.6873 1.4 53.9913 1.528 54.2473 1.784C54.5033 2.04 54.6313 2.344 54.6313 2.696V12.536H64.2313V2.696C64.2313 2.344 64.3593 2.04 64.6153 1.784C64.8713 1.528 65.1753 1.4 65.5273 1.4H75.4153ZM115.765 25.64C116.117 25.64 116.421 25.768 116.677 26.024C116.933 26.28 117.061 26.584 117.061 26.936V33.704C117.061 34.056 116.933 34.36 116.677 34.616C116.421 34.872 116.117 35 115.765 35H85.4285C85.0765 35 84.7725 34.872 84.5165 34.616C84.2605 34.36 84.1325 34.056 84.1325 33.704V2.696C84.1325 2.344 84.2605 2.04 84.5165 1.784C84.7725 1.528 85.0765 1.4 85.4285 1.4H115.285C115.637 1.4 115.941 1.528 116.197 1.784C116.453 2.04 116.581 2.344 116.581 2.696V9.464C116.581 9.816 116.453 10.12 116.197 10.376C115.941 10.632 115.637 10.76 115.285 10.76H96.6125V13.784H112.645C112.997 13.784 113.301 13.912 113.557 14.168C113.813 14.424 113.941 14.728 113.941 15.08V21.32C113.941 21.672 113.813 21.976 113.557 22.232C113.301 22.488 112.997 22.616 112.645 22.616H96.6125V25.64H115.765ZM160.05 33.512C160.114 33.64 160.146 33.784 160.146 33.944C160.146 34.232 160.034 34.488 159.81 34.712C159.618 34.904 159.378 35 159.09 35H148.194C147.746 35 147.33 34.888 146.946 34.664C146.594 34.44 146.338 34.152 146.178 33.8L141.954 24.296H137.922V33.704C137.922 34.056 137.794 34.36 137.538 34.616C137.282 34.872 136.978 35 136.626 35H126.258C125.906 35 125.602 34.872 125.346 34.616C125.09 34.36 124.962 34.056 124.962 33.704V2.696C124.962 2.344 125.09 2.04 125.346 1.784C125.602 1.528 125.906 1.4 126.258 1.4H144.93C147.81 1.4 150.322 1.864 152.466 2.792C154.642 3.72 156.306 5.064 157.458 6.824C158.61 8.584 159.186 10.648 159.186 13.016C159.186 17.368 157.506 20.52 154.146 22.472L160.05 33.512ZM143.922 15.416C144.626 15.416 145.17 15.192 145.554 14.744C145.938 14.264 146.13 13.672 146.13 12.968C146.13 12.264 145.938 11.656 145.554 11.144C145.202 10.6 144.658 10.328 143.922 10.328H137.922V15.416H143.922ZM197.327 25.64C197.679 25.64 197.983 25.768 198.239 26.024C198.495 26.28 198.623 26.584 198.623 26.936V33.704C198.623 34.056 198.495 34.36 198.239 34.616C197.983 34.872 197.679 35 197.327 35H166.991C166.639 35 166.335 34.872 166.079 34.616C165.823 34.36 165.695 34.056 165.695 33.704V2.696C165.695 2.344 165.823 2.04 166.079 1.784C166.335 1.528 166.639 1.4 166.991 1.4H196.847C197.199 1.4 197.503 1.528 197.759 1.784C198.015 2.04 198.143 2.344 198.143 2.696V9.464C198.143 9.816 198.015 10.12 197.759 10.376C197.503 10.632 197.199 10.76 196.847 10.76H178.175V13.784H194.207C194.559 13.784 194.863 13.912 195.119 14.168C195.375 14.424 195.503 14.728 195.503 15.08V21.32C195.503 21.672 195.375 21.976 195.119 22.232C194.863 22.488 194.559 22.616 194.207 22.616H178.175V25.64H197.327ZM269.866 25.16H278.554C278.906 25.16 279.21 25.288 279.466 25.544C279.722 25.8 279.85 26.104 279.85 26.456V33.704C279.85 34.056 279.722 34.36 279.466 34.616C279.21 34.872 278.906 35 278.554 35H248.122C247.77 35 247.466 34.872 247.21 34.616C246.954 34.36 246.826 34.056 246.826 33.704V26.456C246.826 26.104 246.954 25.8 247.21 25.544C247.466 25.288 247.77 25.16 248.122 25.16H256.906V11.24H248.122C247.77 11.24 247.466 11.112 247.21 10.856C246.954 10.6 246.826 10.296 246.826 9.944V2.696C246.826 2.344 246.954 2.04 247.21 1.784C247.466 1.528 247.77 1.4 248.122 1.4H278.554C278.906 1.4 279.21 1.528 279.466 1.784C279.722 2.04 279.85 2.344 279.85 2.696V9.944C279.85 10.296 279.722 10.6 279.466 10.856C279.21 11.112 278.906 11.24 278.554 11.24H269.866V25.16ZM306.759 13.592C310.279 13.976 313.095 14.6 315.207 15.464C317.351 16.328 318.903 17.464 319.863 18.872C320.823 20.28 321.303 22.04 321.303 24.152C321.303 26.456 320.551 28.472 319.047 30.2C317.575 31.896 315.527 33.208 312.903 34.136C310.279 35.032 307.287 35.48 303.927 35.48C300.183 35.48 297.015 35.016 294.423 34.088C291.831 33.16 289.895 31.928 288.615 30.392C287.335 28.824 286.695 27.112 286.695 25.256C286.695 24.936 286.791 24.68 286.983 24.488C287.207 24.296 287.479 24.2 287.799 24.2H297.639C298.311 24.2 298.855 24.408 299.271 24.824C299.815 25.336 300.423 25.688 301.095 25.88C301.767 26.04 302.711 26.12 303.927 26.12C306.967 26.12 308.487 25.656 308.487 24.728C308.487 24.344 308.279 24.024 307.863 23.768C307.479 23.48 306.775 23.24 305.751 23.048C304.759 22.824 303.287 22.6 301.335 22.376C296.951 21.864 293.591 20.776 291.255 19.112C288.919 17.416 287.751 15.032 287.751 11.96C287.751 9.784 288.407 7.864 289.719 6.2C291.031 4.536 292.887 3.24 295.287 2.312C297.719 1.384 300.535 0.919998 303.735 0.919998C307.063 0.919998 309.975 1.448 312.471 2.504C314.967 3.528 316.871 4.808 318.183 6.344C319.495 7.88 320.151 9.384 320.151 10.856C320.151 11.176 320.039 11.432 319.815 11.624C319.623 11.816 319.351 11.912 318.999 11.912H308.679C308.135 11.912 307.639 11.72 307.191 11.336C306.839 11.016 306.423 10.76 305.943 10.568C305.463 10.376 304.727 10.28 303.735 10.28C301.591 10.28 300.519 10.728 300.519 11.624C300.519 12.104 300.935 12.488 301.767 12.776C302.599 13.032 304.263 13.304 306.759 13.592ZM400.705 1.4C401.057 1.4 401.361 1.528 401.617 1.784C401.873 2.04 402.001 2.344 402.001 2.696V33.704C402.001 34.056 401.873 34.36 401.617 34.616C401.361 34.872 401.057 35 400.705 35H392.977C392.209 35 391.569 34.664 391.057 33.992L380.593 20.648V33.704C380.593 34.056 380.465 34.36 380.209 34.616C379.953 34.872 379.649 35 379.297 35H370.369C370.017 35 369.713 34.872 369.457 34.616C369.201 34.36 369.073 34.056 369.073 33.704V2.696C369.073 2.344 369.201 2.04 369.457 1.784C369.713 1.528 370.017 1.4 370.369 1.4H378.145C378.913 1.4 379.537 1.72 380.017 2.36L390.481 16.808V2.696C390.481 2.344 390.609 2.04 390.865 1.784C391.121 1.528 391.425 1.4 391.777 1.4H400.705ZM444.319 21.128C444.319 26.024 442.687 29.64 439.423 31.976C436.191 34.312 431.871 35.48 426.463 35.48C421.055 35.48 416.719 34.312 413.455 31.976C410.223 29.64 408.607 25.992 408.607 21.032V15.368C408.607 12.104 409.375 9.4 410.911 7.256C412.479 5.08 414.607 3.48 417.295 2.456C419.983 1.432 423.039 0.919998 426.463 0.919998C429.887 0.919998 432.927 1.432 435.583 2.456C438.271 3.48 440.399 5.064 441.967 7.208C443.535 9.352 444.319 12.04 444.319 15.272V21.128ZM421.567 22.04C421.567 23.352 421.999 24.36 422.863 25.064C423.759 25.768 424.959 26.12 426.463 26.12C427.967 26.12 429.151 25.768 430.015 25.064C430.911 24.328 431.359 23.304 431.359 21.992V14.408C431.359 13.096 430.911 12.088 430.015 11.384C429.151 10.648 427.967 10.28 426.463 10.28C424.959 10.28 423.759 10.632 422.863 11.336C421.999 12.04 421.567 13.048 421.567 14.36V22.04ZM483.804 1.4C484.156 1.4 484.46 1.528 484.716 1.784C484.972 2.04 485.1 2.344 485.1 2.696V10.424C485.1 10.776 484.972 11.08 484.716 11.336C484.46 11.592 484.156 11.72 483.804 11.72H473.484V33.704C473.484 34.056 473.356 34.36 473.1 34.616C472.844 34.872 472.54 35 472.188 35H462.3C461.948 35 461.644 34.872 461.388 34.616C461.132 34.36 461.004 34.056 461.004 33.704V11.72H450.684C450.332 11.72 450.028 11.592 449.772 11.336C449.516 11.08 449.388 10.776 449.388 10.424V2.696C449.388 2.344 449.516 2.04 449.772 1.784C450.028 1.528 450.332 1.4 450.684 1.4H483.804ZM524.009 1.4C524.361 1.4 524.665 1.528 524.921 1.784C525.177 2.04 525.305 2.344 525.305 2.696V33.704C525.305 34.056 525.177 34.36 524.921 34.616C524.665 34.872 524.361 35 524.009 35H514.121C513.769 35 513.465 34.872 513.209 34.616C512.953 34.36 512.825 34.056 512.825 33.704V23.48H503.225V33.704C503.225 34.056 503.097 34.36 502.841 34.616C502.585 34.872 502.281 35 501.929 35H492.041C491.689 35 491.385 34.888 491.129 34.664C490.873 34.408 490.745 34.088 490.745 33.704V2.696C490.745 2.344 490.873 2.04 491.129 1.784C491.385 1.528 491.689 1.4 492.041 1.4H501.929C502.281 1.4 502.585 1.528 502.841 1.784C503.097 2.04 503.225 2.344 503.225 2.696V12.536H512.825V2.696C512.825 2.344 512.953 2.04 513.209 1.784C513.465 1.528 513.769 1.4 514.121 1.4H524.009ZM555.334 25.16H564.022C564.374 25.16 564.678 25.288 564.934 25.544C565.19 25.8 565.318 26.104 565.318 26.456V33.704C565.318 34.056 565.19 34.36 564.934 34.616C564.678 34.872 564.374 35 564.022 35H533.59C533.238 35 532.934 34.872 532.678 34.616C532.422 34.36 532.294 34.056 532.294 33.704V26.456C532.294 26.104 532.422 25.8 532.678 25.544C532.934 25.288 533.238 25.16 533.59 25.16H542.374V11.24H533.59C533.238 11.24 532.934 11.112 532.678 10.856C532.422 10.6 532.294 10.296 532.294 9.944V2.696C532.294 2.344 532.422 2.04 532.678 1.784C532.934 1.528 533.238 1.4 533.59 1.4H564.022C564.374 1.4 564.678 1.528 564.934 1.784C565.19 2.04 565.318 2.344 565.318 2.696V9.944C565.318 10.296 565.19 10.6 564.934 10.856C564.678 11.112 564.374 11.24 564.022 11.24H555.334V25.16ZM604.612 1.4C604.964 1.4 605.268 1.528 605.524 1.784C605.78 2.04 605.908 2.344 605.908 2.696V33.704C605.908 34.056 605.78 34.36 605.524 34.616C605.268 34.872 604.964 35 604.612 35H596.884C596.116 35 595.476 34.664 594.964 33.992L584.5 20.648V33.704C584.5 34.056 584.372 34.36 584.116 34.616C583.86 34.872 583.556 35 583.204 35H574.276C573.924 35 573.62 34.872 573.364 34.616C573.108 34.36 572.98 34.056 572.98 33.704V2.696C572.98 2.344 573.108 2.04 573.364 1.784C573.62 1.528 573.924 1.4 574.276 1.4H582.052C582.82 1.4 583.444 1.72 583.924 2.36L594.388 16.808V2.696C594.388 2.344 594.516 2.04 594.772 1.784C595.028 1.528 595.332 1.4 595.684 1.4H604.612ZM647.649 14.744C648.001 14.744 648.305 14.872 648.561 15.128C648.817 15.384 648.945 15.688 648.945 16.04V21.128C648.945 25.992 647.281 29.608 643.953 31.976C640.657 34.312 636.289 35.48 630.849 35.48C625.409 35.48 621.025 34.312 617.697 31.976C614.401 29.608 612.753 25.96 612.753 21.032V15.368C612.753 12.104 613.553 9.4 615.153 7.256C616.753 5.08 618.913 3.48 621.633 2.456C624.353 1.432 627.425 0.919998 630.849 0.919998C634.945 0.919998 638.321 1.592 640.977 2.936C643.633 4.28 645.553 5.8 646.737 7.496C647.953 9.192 648.561 10.568 648.561 11.624C648.561 11.912 648.449 12.168 648.225 12.392C648.033 12.584 647.793 12.68 647.505 12.68H636.657C636.017 12.68 635.553 12.504 635.265 12.152C634.273 10.904 632.801 10.28 630.849 10.28C629.377 10.28 628.145 10.616 627.153 11.288C626.193 11.96 625.713 12.824 625.713 13.88V22.04C625.713 23.32 626.193 24.328 627.153 25.064C628.113 25.768 629.345 26.12 630.849 26.12C632.833 26.12 634.289 25.784 635.217 25.112C636.177 24.408 636.673 23.592 636.705 22.664H633.729C633.377 22.664 633.073 22.536 632.817 22.28C632.561 22.024 632.433 21.72 632.433 21.368V16.04C632.433 15.688 632.561 15.384 632.817 15.128C633.073 14.872 633.377 14.744 633.729 14.744H647.649ZM116.197 60.4C116.549 60.4 116.853 60.528 117.109 60.784C117.365 61.04 117.493 61.344 117.493 61.696V92.704C117.493 93.056 117.365 93.36 117.109 93.616C116.853 93.872 116.549 94 116.197 94H106.309C105.957 94 105.653 93.872 105.397 93.616C105.141 93.36 105.013 93.056 105.013 92.704V82.48H95.4125V92.704C95.4125 93.056 95.2845 93.36 95.0285 93.616C94.7725 93.872 94.4685 94 94.1165 94H84.2285C83.8765 94 83.5725 93.888 83.3165 93.664C83.0605 93.408 82.9325 93.088 82.9325 92.704V61.696C82.9325 61.344 83.0605 61.04 83.3165 60.784C83.5725 60.528 83.8765 60.4 84.2285 60.4H94.1165C94.4685 60.4 94.7725 60.528 95.0285 60.784C95.2845 61.04 95.4125 61.344 95.4125 61.696V71.536H105.013V61.696C105.013 61.344 105.141 61.04 105.397 60.784C105.653 60.528 105.957 60.4 106.309 60.4H116.197ZM156.546 84.64C156.898 84.64 157.202 84.768 157.458 85.024C157.714 85.28 157.842 85.584 157.842 85.936V92.704C157.842 93.056 157.714 93.36 157.458 93.616C157.202 93.872 156.898 94 156.546 94H126.21C125.858 94 125.554 93.872 125.298 93.616C125.042 93.36 124.914 93.056 124.914 92.704V61.696C124.914 61.344 125.042 61.04 125.298 60.784C125.554 60.528 125.858 60.4 126.21 60.4H156.066C156.418 60.4 156.722 60.528 156.978 60.784C157.234 61.04 157.362 61.344 157.362 61.696V68.464C157.362 68.816 157.234 69.12 156.978 69.376C156.722 69.632 156.418 69.76 156.066 69.76H137.394V72.784H153.426C153.778 72.784 154.082 72.912 154.338 73.168C154.594 73.424 154.722 73.728 154.722 74.08V80.32C154.722 80.672 154.594 80.976 154.338 81.232C154.082 81.488 153.778 81.616 153.426 81.616H137.394V84.64H156.546ZM200.831 92.512C200.895 92.64 200.927 92.784 200.927 92.944C200.927 93.232 200.815 93.488 200.591 93.712C200.399 93.904 200.159 94 199.871 94H188.975C188.527 94 188.111 93.888 187.727 93.664C187.375 93.44 187.119 93.152 186.959 92.8L182.735 83.296H178.703V92.704C178.703 93.056 178.575 93.36 178.319 93.616C178.063 93.872 177.759 94 177.407 94H167.039C166.687 94 166.383 93.872 166.127 93.616C165.871 93.36 165.743 93.056 165.743 92.704V61.696C165.743 61.344 165.871 61.04 166.127 60.784C166.383 60.528 166.687 60.4 167.039 60.4H185.711C188.591 60.4 191.103 60.864 193.247 61.792C195.423 62.72 197.087 64.064 198.239 65.824C199.391 67.584 199.967 69.648 199.967 72.016C199.967 76.368 198.287 79.52 194.927 81.472L200.831 92.512ZM184.703 74.416C185.407 74.416 185.951 74.192 186.335 73.744C186.719 73.264 186.911 72.672 186.911 71.968C186.911 71.264 186.719 70.656 186.335 70.144C185.983 69.6 185.439 69.328 184.703 69.328H178.703V74.416H184.703ZM238.108 84.64C238.46 84.64 238.764 84.768 239.02 85.024C239.276 85.28 239.404 85.584 239.404 85.936V92.704C239.404 93.056 239.276 93.36 239.02 93.616C238.764 93.872 238.46 94 238.108 94H207.772C207.42 94 207.116 93.872 206.86 93.616C206.604 93.36 206.476 93.056 206.476 92.704V61.696C206.476 61.344 206.604 61.04 206.86 60.784C207.116 60.528 207.42 60.4 207.772 60.4H237.628C237.98 60.4 238.284 60.528 238.54 60.784C238.796 61.04 238.924 61.344 238.924 61.696V68.464C238.924 68.816 238.796 69.12 238.54 69.376C238.284 69.632 237.98 69.76 237.628 69.76H218.956V72.784H234.988C235.34 72.784 235.644 72.912 235.9 73.168C236.156 73.424 236.284 73.728 236.284 74.08V80.32C236.284 80.672 236.156 80.976 235.9 81.232C235.644 81.488 235.34 81.616 234.988 81.616H218.956V84.64H238.108ZM320.343 60.4C320.695 60.4 320.999 60.528 321.255 60.784C321.511 61.04 321.639 61.344 321.639 61.696V68.992C321.639 69.344 321.511 69.648 321.255 69.904C320.999 70.16 320.695 70.288 320.343 70.288H301.479V73.36H317.223C317.575 73.36 317.879 73.488 318.135 73.744C318.391 74 318.519 74.304 318.519 74.656V81.904C318.519 82.256 318.391 82.56 318.135 82.816C317.879 83.072 317.575 83.2 317.223 83.2H301.479V92.704C301.479 93.056 301.351 93.36 301.095 93.616C300.839 93.872 300.535 94 300.183 94H289.815C289.463 94 289.159 93.872 288.903 93.616C288.647 93.36 288.519 93.056 288.519 92.704V61.696C288.519 61.344 288.647 61.04 288.903 60.784C289.159 60.528 289.463 60.4 289.815 60.4H320.343ZM362.756 80.128C362.756 85.024 361.124 88.64 357.86 90.976C354.628 93.312 350.308 94.48 344.9 94.48C339.492 94.48 335.156 93.312 331.892 90.976C328.66 88.64 327.044 84.992 327.044 80.032V74.368C327.044 71.104 327.812 68.4 329.348 66.256C330.916 64.08 333.044 62.48 335.732 61.456C338.42 60.432 341.476 59.92 344.9 59.92C348.324 59.92 351.364 60.432 354.02 61.456C356.708 62.48 358.836 64.064 360.404 66.208C361.972 68.352 362.756 71.04 362.756 74.272V80.128ZM340.004 81.04C340.004 82.352 340.436 83.36 341.3 84.064C342.196 84.768 343.396 85.12 344.9 85.12C346.404 85.12 347.588 84.768 348.452 84.064C349.348 83.328 349.796 82.304 349.796 80.992V73.408C349.796 72.096 349.348 71.088 348.452 70.384C347.588 69.648 346.404 69.28 344.9 69.28C343.396 69.28 342.196 69.632 341.3 70.336C340.436 71.04 340.004 72.048 340.004 73.36V81.04ZM404.737 92.512C404.801 92.64 404.833 92.784 404.833 92.944C404.833 93.232 404.721 93.488 404.497 93.712C404.305 93.904 404.065 94 403.777 94H392.881C392.433 94 392.017 93.888 391.633 93.664C391.281 93.44 391.025 93.152 390.865 92.8L386.641 83.296H382.609V92.704C382.609 93.056 382.481 93.36 382.225 93.616C381.969 93.872 381.665 94 381.313 94H370.945C370.593 94 370.289 93.872 370.033 93.616C369.777 93.36 369.649 93.056 369.649 92.704V61.696C369.649 61.344 369.777 61.04 370.033 60.784C370.289 60.528 370.593 60.4 370.945 60.4H389.617C392.497 60.4 395.009 60.864 397.153 61.792C399.329 62.72 400.993 64.064 402.145 65.824C403.297 67.584 403.873 69.648 403.873 72.016C403.873 76.368 402.193 79.52 398.833 81.472L404.737 92.512ZM388.609 74.416C389.313 74.416 389.857 74.192 390.241 73.744C390.625 73.264 390.817 72.672 390.817 71.968C390.817 71.264 390.625 70.656 390.241 70.144C389.889 69.6 389.345 69.328 388.609 69.328H382.609V74.416H388.609ZM484.812 60.4C485.1 60.4 485.34 60.512 485.532 60.736C485.756 60.928 485.868 61.152 485.868 61.408C485.868 61.6 485.82 61.792 485.724 61.984L473.628 82V92.704C473.628 93.056 473.5 93.36 473.244 93.616C472.988 93.872 472.684 94 472.332 94H462.108C461.756 94 461.452 93.872 461.196 93.616C460.94 93.36 460.812 93.056 460.812 92.704V82L448.764 61.984C448.668 61.792 448.62 61.616 448.62 61.456C448.62 61.168 448.716 60.928 448.908 60.736C449.132 60.512 449.388 60.4 449.676 60.4H459.804C460.7 60.4 461.356 60.768 461.772 61.504L467.196 71.008L472.764 61.6C473.244 60.8 473.916 60.4 474.78 60.4H484.812ZM525.881 80.128C525.881 85.024 524.249 88.64 520.985 90.976C517.753 93.312 513.433 94.48 508.025 94.48C502.617 94.48 498.281 93.312 495.017 90.976C491.785 88.64 490.169 84.992 490.169 80.032V74.368C490.169 71.104 490.937 68.4 492.473 66.256C494.041 64.08 496.169 62.48 498.857 61.456C501.545 60.432 504.601 59.92 508.025 59.92C511.449 59.92 514.489 60.432 517.145 61.456C519.833 62.48 521.961 64.064 523.529 66.208C525.097 68.352 525.881 71.04 525.881 74.272V80.128ZM503.129 81.04C503.129 82.352 503.561 83.36 504.425 84.064C505.321 84.768 506.521 85.12 508.025 85.12C509.529 85.12 510.713 84.768 511.577 84.064C512.473 83.328 512.921 82.304 512.921 80.992V73.408C512.921 72.096 512.473 71.088 511.577 70.384C510.713 69.648 509.529 69.28 508.025 69.28C506.521 69.28 505.321 69.632 504.425 70.336C503.561 71.04 503.129 72.048 503.129 73.36V81.04ZM548.806 94.48C543.43 94.48 539.158 93.312 535.99 90.976C532.854 88.64 531.286 84.992 531.286 80.032V61.696C531.286 61.344 531.414 61.04 531.67 60.784C531.926 60.528 532.23 60.4 532.582 60.4H542.614C542.966 60.4 543.27 60.528 543.526 60.784C543.782 61.04 543.91 61.344 543.91 61.696V80.8C543.91 82.112 544.342 83.12 545.206 83.824C546.102 84.528 547.302 84.88 548.806 84.88C550.31 84.88 551.494 84.528 552.358 83.824C553.254 83.12 553.702 82.112 553.702 80.8V61.696C553.702 61.344 553.83 61.04 554.086 60.784C554.342 60.528 554.646 60.4 554.998 60.4H565.03C565.382 60.4 565.686 60.528 565.942 60.784C566.198 61.04 566.326 61.344 566.326 61.696V80.032C566.326 84.992 564.742 88.64 561.574 90.976C558.438 93.312 554.182 94.48 548.806 94.48Z" fill="black"/>
</svg>
