<svg width="49" height="53" viewBox="0 0 49 53" fill="none" xmlns="http://www.w3.org/2000/svg">
<path d="M43.75 3.3125H5.25C2.35156 3.3125 0 5.53809 0 8.28125V44.7188C0 47.4619 2.35156 49.6875 5.25 49.6875H43.75C46.6484 49.6875 49 47.4619 49 44.7188V8.28125C49 5.53809 46.6484 3.3125 43.75 3.3125ZM38.4016 19.7508C38.4234 20.0406 38.4234 20.3408 38.4234 20.6307C38.4234 29.6055 31.2047 39.9467 18.0141 39.9467C13.9453 39.9467 10.1719 38.8287 7 36.9033C7.57969 36.9654 8.1375 36.9861 8.72813 36.9861C12.0859 36.9861 15.1703 35.9096 17.6312 34.0877C14.4812 34.0256 11.8344 32.0691 10.9266 29.3777C12.0313 29.533 13.0266 29.533 14.1641 29.2535C10.8828 28.6221 8.42188 25.8893 8.42188 22.5871V22.5043C9.37344 23.0115 10.4891 23.3221 11.6594 23.3635C10.6755 22.7441 9.86889 21.9038 9.31161 20.9176C8.75433 19.9314 8.46369 18.8299 8.46563 17.7115C8.46563 16.4486 8.81563 15.2893 9.43906 14.2852C12.9719 18.4051 18.2766 21.0965 24.2266 21.3863C23.2094 16.7799 26.8516 13.043 31.2266 13.043C33.2937 13.043 35.1531 13.8607 36.4656 15.1857C38.0844 14.8959 39.6375 14.3266 41.0156 13.5502C40.4797 15.1236 39.3531 16.4486 37.8656 17.2871C39.3094 17.1422 40.7094 16.7592 42 16.2313C41.0266 17.5873 39.8016 18.7881 38.4016 19.7508Z" fill="black"/>
</svg>
